SplineFontDB: 3.2
FontName: musi-leko-tan-jan-Lusi
FullName: musi leko tan jan Lusi
FamilyName: musi leko tan jan Lusi
Weight: Regular
Copyright: (C) Copyright jan Lusi, 2025
Version: 1.4
ItalicAngle: 0
UnderlinePosition: -100
UnderlineWidth: 50
Ascent: 800
Descent: 200
InvalidEm: 0
sfntRevision: 0x00010000
LayerCount: 2
Layer: 0 1 "Back" 1
Layer: 1 1 "Fore" 0
XUID: [1021 774 1457269532 10720024]
StyleMap: 0x0000
FSType: 0
OS2Version: 4
OS2_WeightWidthSlopeOnly: 0
OS2_UseTypoMetrics: 1
CreationTime: 1754844836
ModificationTime: 1754845112
PfmFamily: 17
TTFWeight: 400
TTFWidth: 5
LineGap: 0
VLineGap: 0
Panose: 2 0 5 3 0 0 0 0 0 0
OS2TypoAscent: 1200
OS2TypoAOffset: 0
OS2TypoDescent: -300
OS2TypoDOffset: 0
OS2TypoLinegap: 0
OS2WinAscent: 988
OS2WinAOffset: 0
OS2WinDescent: 450
OS2WinDOffset: 0
HheadAscent: 1200
HheadAOffset: 0
HheadDescent: -300
HheadDOffset: 0
OS2SubXSize: 650
OS2SubYSize: 700
OS2SubXOff: 0
OS2SubYOff: 140
OS2SupXSize: 650
OS2SupYSize: 700
OS2SupXOff: 0
OS2SupYOff: 480
OS2StrikeYSize: 49
OS2StrikeYPos: 258
OS2CapHeight: 362
OS2XHeight: 362
OS2Vendor: 'PfEd'
OS2CodePages: 00000001.00000000
OS2UnicodeRanges: 80000001.0a000000.04000000.00000000
Lookup: 4 0 1 "'liga' Standard Ligatures in Latin lookup 0" { "'liga' Standard Ligatures in Latin lookup 0 subtable"  } ['liga' ('DFLT' <'dflt' > 'latn' <'dflt' > ) ]
Lookup: 1 0 0 "'liga' Standard Ligatures in Latin lookup 1" { "'liga' Standard Ligatures in Latin lookup 1 subtable"  } ['liga' ('DFLT' <'dflt' > 'latn' <'dflt' > ) ]
Lookup: 2 0 0 "Multiple Substitution lookup 2" { "Multiple Substitution lookup 2 subtable"  } []
Lookup: 6 0 0 "'calt' Contextual Alternates in Latin lookup 3" { "'calt' Contextual Alternates in Latin lookup 3 contextual 0"  "'calt' Contextual Alternates in Latin lookup 3 contextual 1"  } ['calt' ('DFLT' <'dflt' > 'latn' <'dflt' > ) ]
MarkAttachClasses: 1
DEI: 91125
ChainSub2: coverage "'calt' Contextual Alternates in Latin lookup 3 contextual 1" 0 0 0 1
 1 1 0

StartChar: .notdef
Encoding: 1114112 -1 0
Width: 364
GlyphClass: 1
Flags: W
LayerCount: 2
Fore
SplineSet
33 0 m 1,0,-1
 33 666 l 1,1,-1
 298 666 l 1,2,-1
 298 0 l 1,3,-1
 33 0 l 1,0,-1
66 33 m 1,4,-1
 265 33 l 1,5,-1
 265 633 l 1,6,-1
 66 633 l 1,7,-1
 66 33 l 1,4,-1
EndSplineSet
EndChar

StartChar: period
Encoding: 46 46 11
Width: 1000
GlyphClass: 1
Flags: W
LayerCount: 2
Fore
SplineSet
438 394 m 1,0,-1
 438 425 l 1,1,-1
 500 425 l 1,2,-1
 562 425 l 1,3,-1
 562 394 l 1,4,-1
 562 362 l 1,5,-1
 594 362 l 1,6,-1
 625 362 l 1,7,-1
 625 300 l 1,8,-1
 625 238 l 1,9,-1
 594 238 l 1,10,-1
 562 238 l 1,11,-1
 562 206 l 1,12,-1
 562 175 l 1,13,-1
 500 175 l 1,14,-1
 438 175 l 1,15,-1
 438 206 l 1,16,-1
 438 238 l 1,17,-1
 406 238 l 1,18,-1
 375 238 l 1,19,-1
 375 300 l 1,20,-1
 375 362 l 1,21,-1
 406 362 l 1,22,-1
 438 362 l 1,23,-1
 438 394 l 1,0,-1
EndSplineSet
MultipleSubs2: "Multiple Substitution lookup 2 subtable" period cartoucheMiddleTok
Substitution2: "'liga' Standard Ligatures in Latin lookup 1 subtable" middotTok
EndChar

StartChar: colon
Encoding: 58 58 22
Width: 1000
GlyphClass: 1
Flags: W
LayerCount: 2
Fore
SplineSet
438 206 m 1,0,-1
 438 238 l 1,1,-1
 500 238 l 1,2,-1
 562 238 l 1,3,-1
 562 206 l 1,4,-1
 562 175 l 1,5,-1
 594 175 l 1,6,-1
 625 175 l 1,7,-1
 625 112 l 1,8,-1
 625 50 l 1,9,-1
 594 50 l 1,10,-1
 562 50 l 1,11,-1
 562 19 l 1,12,-1
 562 -12 l 1,13,-1
 500 -12 l 1,14,-1
 438 -12 l 1,15,-1
 438 19 l 1,16,-1
 438 50 l 1,17,-1
 406 50 l 1,18,-1
 375 50 l 1,19,-1
 375 112 l 1,20,-1
 375 175 l 1,21,-1
 406 175 l 1,22,-1
 438 175 l 1,23,-1
 438 206 l 1,0,-1
438 581 m 1,24,-1
 438 612 l 1,25,-1
 500 612 l 1,26,-1
 562 612 l 1,27,-1
 562 581 l 1,28,-1
 562 550 l 1,29,-1
 594 550 l 1,30,-1
 625 550 l 1,31,-1
 625 488 l 1,32,-1
 625 425 l 1,33,-1
 594 425 l 1,34,-1
 562 425 l 1,35,-1
 562 394 l 1,36,-1
 562 362 l 1,37,-1
 500 362 l 1,38,-1
 438 362 l 1,39,-1
 438 394 l 1,40,-1
 438 425 l 1,41,-1
 406 425 l 1,42,-1
 375 425 l 1,43,-1
 375 488 l 1,44,-1
 375 550 l 1,45,-1
 406 550 l 1,46,-1
 438 550 l 1,47,-1
 438 581 l 1,24,-1
EndSplineSet
MultipleSubs2: "Multiple Substitution lookup 2 subtable" colon cartoucheMiddleTok
Substitution2: "'liga' Standard Ligatures in Latin lookup 1 subtable" colonTok
EndChar

StartChar: A
Encoding: 65 65 26
Width: 1000
GlyphClass: 1
Flags: W
LayerCount: 2
Fore
SplineSet
500 50 m 1,0,-1
 500 112 l 1,1,-1
 438 112 l 1,2,-1
 375 112 l 1,3,-1
 375 50 l 1,4,-1
 375 -12 l 1,5,-1
 438 -12 l 1,6,-1
 500 -12 l 1,7,-1
 500 50 l 1,0,-1
375 206 m 1,8,-1
 375 238 l 1,9,-1
 438 238 l 1,10,-1
 500 238 l 1,11,-1
 500 206 l 1,12,-1
 500 175 l 1,13,-1
 531 175 l 1,14,-1
 562 175 l 1,15,-1
 562 144 l 1,16,-1
 562 112 l 1,17,-1
 594 112 l 1,18,-1
 625 112 l 1,19,-1
 625 50 l 1,20,-1
 625 -12 l 1,21,-1
 656 -12 l 1,22,-1
 688 -12 l 1,23,-1
 688 -75 l 1,24,-1
 688 -138 l 1,25,-1
 625 -138 l 1,26,-1
 562 -138 l 1,27,-1
 562 -106 l 1,28,-1
 562 -75 l 1,29,-1
 531 -75 l 1,30,-1
 500 -75 l 1,31,-1
 500 -106 l 1,32,-1
 500 -138 l 1,33,-1
 438 -138 l 1,34,-1
 375 -138 l 1,35,-1
 375 -106 l 1,36,-1
 375 -75 l 1,37,-1
 344 -75 l 1,38,-1
 312 -75 l 1,39,-1
 312 -44 l 1,40,-1
 312 -12 l 1,41,-1
 281 -12 l 1,42,-1
 250 -12 l 1,43,-1
 250 50 l 1,44,-1
 250 112 l 1,45,-1
 281 112 l 1,46,-1
 312 112 l 1,47,-1
 312 144 l 1,48,-1
 312 175 l 1,49,-1
 344 175 l 1,50,-1
 375 175 l 1,51,-1
 375 206 l 1,8,-1
375 519 m 1,52,-1
 375 738 l 1,53,-1
 438 738 l 1,54,-1
 500 738 l 1,55,-1
 500 519 l 1,56,-1
 500 300 l 1,57,-1
 438 300 l 1,58,-1
 375 300 l 1,59,-1
 375 519 l 1,52,-1
EndSplineSet
EndChar

StartChar: B
Encoding: 66 66 27
Width: 1000
GlyphClass: 1
Flags: W
LayerCount: 2
Fore
SplineSet
562 206 m 1,0,-1
 562 238 l 1,1,-1
 531 238 l 1,2,-1
 500 238 l 1,3,-1
 500 206 l 1,4,-1
 500 175 l 1,5,-1
 469 175 l 1,6,-1
 438 175 l 1,7,-1
 438 50 l 1,8,-1
 438 -75 l 1,9,-1
 500 -75 l 1,10,-1
 562 -75 l 1,11,-1
 562 -44 l 1,12,-1
 562 -12 l 1,13,-1
 594 -12 l 1,14,-1
 625 -12 l 1,15,-1
 625 81 l 1,16,-1
 625 175 l 1,17,-1
 594 175 l 1,18,-1
 562 175 l 1,19,-1
 562 206 l 1,0,-1
250 300 m 1,20,-1
 250 362 l 1,21,-1
 312 362 l 1,22,-1
 375 362 l 1,23,-1
 375 331 l 1,24,-1
 375 300 l 1,25,-1
 406 300 l 1,26,-1
 438 300 l 1,27,-1
 438 331 l 1,28,-1
 438 362 l 1,29,-1
 531 362 l 1,30,-1
 625 362 l 1,31,-1
 625 331 l 1,32,-1
 625 300 l 1,33,-1
 656 300 l 1,34,-1
 688 300 l 1,35,-1
 688 269 l 1,36,-1
 688 238 l 1,37,-1
 719 238 l 1,38,-1
 750 238 l 1,39,-1
 750 81 l 1,40,-1
 750 -75 l 1,41,-1
 719 -75 l 1,42,-1
 688 -75 l 1,43,-1
 688 -106 l 1,44,-1
 688 -138 l 1,45,-1
 656 -138 l 1,46,-1
 625 -138 l 1,47,-1
 625 -169 l 1,48,-1
 625 -200 l 1,49,-1
 531 -200 l 1,50,-1
 438 -200 l 1,51,-1
 438 -325 l 1,52,-1
 438 -450 l 1,53,-1
 375 -450 l 1,54,-1
 312 -450 l 1,55,-1
 312 -106 l 1,56,-1
 312 238 l 1,57,-1
 281 238 l 1,58,-1
 250 238 l 1,59,-1
 250 300 l 1,20,-1
EndSplineSet
EndChar

StartChar: C
Encoding: 67 67 28
Width: 1000
GlyphClass: 1
Flags: W
LayerCount: 2
Fore
SplineSet
562 -44 m 1,0,-1
 562 -12 l 1,1,-1
 531 -12 l 1,2,-1
 500 -12 l 1,3,-1
 500 -44 l 1,4,-1
 500 -75 l 1,5,-1
 531 -75 l 1,6,-1
 562 -75 l 1,7,-1
 562 -44 l 1,0,-1
562 206 m 1,8,-1
 562 238 l 1,9,-1
 531 238 l 1,10,-1
 500 238 l 1,11,-1
 500 206 l 1,12,-1
 500 175 l 1,13,-1
 531 175 l 1,14,-1
 562 175 l 1,15,-1
 562 206 l 1,8,-1
438 331 m 1,16,-1
 438 362 l 1,17,-1
 531 362 l 1,18,-1
 625 362 l 1,19,-1
 625 331 l 1,20,-1
 625 300 l 1,21,-1
 656 300 l 1,22,-1
 688 300 l 1,23,-1
 688 269 l 1,24,-1
 688 238 l 1,25,-1
 719 238 l 1,26,-1
 750 238 l 1,27,-1
 750 206 l 1,28,-1
 750 175 l 1,29,-1
 656 175 l 1,30,-1
 562 175 l 1,31,-1
 562 144 l 1,32,-1
 562 112 l 1,33,-1
 625 112 l 1,34,-1
 688 112 l 1,35,-1
 688 81 l 1,36,-1
 688 50 l 1,37,-1
 719 50 l 1,38,-1
 750 50 l 1,39,-1
 750 -12 l 1,40,-1
 750 -75 l 1,41,-1
 719 -75 l 1,42,-1
 688 -75 l 1,43,-1
 688 -106 l 1,44,-1
 688 -138 l 1,45,-1
 656 -138 l 1,46,-1
 625 -138 l 1,47,-1
 625 -169 l 1,48,-1
 625 -200 l 1,49,-1
 531 -200 l 1,50,-1
 438 -200 l 1,51,-1
 438 -169 l 1,52,-1
 438 -138 l 1,53,-1
 406 -138 l 1,54,-1
 375 -138 l 1,55,-1
 375 -106 l 1,56,-1
 375 -75 l 1,57,-1
 344 -75 l 1,58,-1
 312 -75 l 1,59,-1
 312 -44 l 1,60,-1
 312 -12 l 1,61,-1
 406 -12 l 1,62,-1
 500 -12 l 1,63,-1
 500 19 l 1,64,-1
 500 50 l 1,65,-1
 438 50 l 1,66,-1
 375 50 l 1,67,-1
 375 81 l 1,68,-1
 375 112 l 1,69,-1
 344 112 l 1,70,-1
 312 112 l 1,71,-1
 312 175 l 1,72,-1
 312 238 l 1,73,-1
 344 238 l 1,74,-1
 375 238 l 1,75,-1
 375 269 l 1,76,-1
 375 300 l 1,77,-1
 406 300 l 1,78,-1
 438 300 l 1,79,-1
 438 331 l 1,16,-1
EndSplineSet
EndChar

StartChar: D
Encoding: 68 68 29
Width: 1000
GlyphClass: 1
Flags: W
LayerCount: 2
Fore
SplineSet
375 394 m 1,0,-1
 375 488 l 1,1,-1
 438 488 l 1,2,-1
 500 488 l 1,3,-1
 500 394 l 1,4,-1
 500 300 l 1,5,-1
 625 300 l 1,6,-1
 750 300 l 1,7,-1
 750 238 l 1,8,-1
 750 175 l 1,9,-1
 625 175 l 1,10,-1
 500 175 l 1,11,-1
 500 50 l 1,12,-1
 500 -75 l 1,13,-1
 562 -75 l 1,14,-1
 625 -75 l 1,15,-1
 625 -44 l 1,16,-1
 625 -12 l 1,17,-1
 688 -12 l 1,18,-1
 750 -12 l 1,19,-1
 750 -75 l 1,20,-1
 750 -138 l 1,21,-1
 719 -138 l 1,22,-1
 688 -138 l 1,23,-1
 688 -169 l 1,24,-1
 688 -200 l 1,25,-1
 562 -200 l 1,26,-1
 438 -200 l 1,27,-1
 438 -169 l 1,28,-1
 438 -138 l 1,29,-1
 406 -138 l 1,30,-1
 375 -138 l 1,31,-1
 375 19 l 1,32,-1
 375 175 l 1,33,-1
 344 175 l 1,34,-1
 312 175 l 1,35,-1
 312 238 l 1,36,-1
 312 300 l 1,37,-1
 344 300 l 1,38,-1
 375 300 l 1,39,-1
 375 394 l 1,0,-1
EndSplineSet
EndChar

StartChar: E
Encoding: 69 69 30
Width: 1000
GlyphClass: 1
Flags: W
LayerCount: 2
Fore
SplineSet
500 675 m 1,0,-1
 500 738 l 1,1,-1
 562 738 l 1,2,-1
 625 738 l 1,3,-1
 625 706 l 1,4,-1
 625 675 l 1,5,-1
 656 675 l 1,6,-1
 688 675 l 1,7,-1
 688 612 l 1,8,-1
 688 550 l 1,9,-1
 719 550 l 1,10,-1
 750 550 l 1,11,-1
 750 488 l 1,12,-1
 750 425 l 1,13,-1
 781 425 l 1,14,-1
 812 425 l 1,15,-1
 812 394 l 1,16,-1
 812 362 l 1,17,-1
 844 362 l 1,18,-1
 875 362 l 1,19,-1
 875 300 l 1,20,-1
 875 238 l 1,21,-1
 844 238 l 1,22,-1
 812 238 l 1,23,-1
 812 206 l 1,24,-1
 812 175 l 1,25,-1
 781 175 l 1,26,-1
 750 175 l 1,27,-1
 750 112 l 1,28,-1
 750 50 l 1,29,-1
 719 50 l 1,30,-1
 688 50 l 1,31,-1
 688 -12 l 1,32,-1
 688 -75 l 1,33,-1
 656 -75 l 1,34,-1
 625 -75 l 1,35,-1
 625 -106 l 1,36,-1
 625 -138 l 1,37,-1
 562 -138 l 1,38,-1
 500 -138 l 1,39,-1
 500 -75 l 1,40,-1
 500 -12 l 1,41,-1
 531 -12 l 1,42,-1
 562 -12 l 1,43,-1
 562 50 l 1,44,-1
 562 112 l 1,45,-1
 594 112 l 1,46,-1
 625 112 l 1,47,-1
 625 175 l 1,48,-1
 625 238 l 1,49,-1
 656 238 l 1,50,-1
 688 238 l 1,51,-1
 688 300 l 1,52,-1
 688 362 l 1,53,-1
 656 362 l 1,54,-1
 625 362 l 1,55,-1
 625 425 l 1,56,-1
 625 488 l 1,57,-1
 594 488 l 1,58,-1
 562 488 l 1,59,-1
 562 550 l 1,60,-1
 562 612 l 1,61,-1
 531 612 l 1,62,-1
 500 612 l 1,63,-1
 500 675 l 1,0,-1
125 675 m 1,64,-1
 125 738 l 1,65,-1
 188 738 l 1,66,-1
 250 738 l 1,67,-1
 250 706 l 1,68,-1
 250 675 l 1,69,-1
 281 675 l 1,70,-1
 312 675 l 1,71,-1
 312 612 l 1,72,-1
 312 550 l 1,73,-1
 344 550 l 1,74,-1
 375 550 l 1,75,-1
 375 488 l 1,76,-1
 375 425 l 1,77,-1
 406 425 l 1,78,-1
 438 425 l 1,79,-1
 438 394 l 1,80,-1
 438 362 l 1,81,-1
 469 362 l 1,82,-1
 500 362 l 1,83,-1
 500 300 l 1,84,-1
 500 238 l 1,85,-1
 469 238 l 1,86,-1
 438 238 l 1,87,-1
 438 206 l 1,88,-1
 438 175 l 1,89,-1
 406 175 l 1,90,-1
 375 175 l 1,91,-1
 375 112 l 1,92,-1
 375 50 l 1,93,-1
 344 50 l 1,94,-1
 312 50 l 1,95,-1
 312 -12 l 1,96,-1
 312 -75 l 1,97,-1
 281 -75 l 1,98,-1
 250 -75 l 1,99,-1
 250 -106 l 1,100,-1
 250 -138 l 1,101,-1
 188 -138 l 1,102,-1
 125 -138 l 1,103,-1
 125 -75 l 1,104,-1
 125 -12 l 1,105,-1
 156 -12 l 1,106,-1
 188 -12 l 1,107,-1
 188 50 l 1,108,-1
 188 112 l 1,109,-1
 219 112 l 1,110,-1
 250 112 l 1,111,-1
 250 175 l 1,112,-1
 250 238 l 1,113,-1
 281 238 l 1,114,-1
 312 238 l 1,115,-1
 312 300 l 1,116,-1
 312 362 l 1,117,-1
 281 362 l 1,118,-1
 250 362 l 1,119,-1
 250 425 l 1,120,-1
 250 488 l 1,121,-1
 219 488 l 1,122,-1
 188 488 l 1,123,-1
 188 550 l 1,124,-1
 188 612 l 1,125,-1
 156 612 l 1,126,-1
 125 612 l 1,127,-1
 125 675 l 1,64,-1
EndSplineSet
EndChar

StartChar: F
Encoding: 70 70 31
Width: 1000
GlyphClass: 1
Flags: W
LayerCount: 2
Fore
SplineSet
562 206 m 1,0,-1
 562 238 l 1,1,-1
 531 238 l 1,2,-1
 500 238 l 1,3,-1
 500 206 l 1,4,-1
 500 175 l 1,5,-1
 469 175 l 1,6,-1
 438 175 l 1,7,-1
 438 50 l 1,8,-1
 438 -75 l 1,9,-1
 500 -75 l 1,10,-1
 562 -75 l 1,11,-1
 562 -44 l 1,12,-1
 562 -12 l 1,13,-1
 594 -12 l 1,14,-1
 625 -12 l 1,15,-1
 625 81 l 1,16,-1
 625 175 l 1,17,-1
 594 175 l 1,18,-1
 562 175 l 1,19,-1
 562 206 l 1,0,-1
250 300 m 1,20,-1
 250 362 l 1,21,-1
 312 362 l 1,22,-1
 375 362 l 1,23,-1
 375 331 l 1,24,-1
 375 300 l 1,25,-1
 406 300 l 1,26,-1
 438 300 l 1,27,-1
 438 331 l 1,28,-1
 438 362 l 1,29,-1
 531 362 l 1,30,-1
 625 362 l 1,31,-1
 625 331 l 1,32,-1
 625 300 l 1,33,-1
 656 300 l 1,34,-1
 688 300 l 1,35,-1
 688 269 l 1,36,-1
 688 238 l 1,37,-1
 719 238 l 1,38,-1
 750 238 l 1,39,-1
 750 81 l 1,40,-1
 750 -75 l 1,41,-1
 719 -75 l 1,42,-1
 688 -75 l 1,43,-1
 688 -106 l 1,44,-1
 688 -138 l 1,45,-1
 656 -138 l 1,46,-1
 625 -138 l 1,47,-1
 625 -169 l 1,48,-1
 625 -200 l 1,49,-1
 531 -200 l 1,50,-1
 438 -200 l 1,51,-1
 438 -325 l 1,52,-1
 438 -450 l 1,53,-1
 375 -450 l 1,54,-1
 312 -450 l 1,55,-1
 312 -106 l 1,56,-1
 312 238 l 1,57,-1
 281 238 l 1,58,-1
 250 238 l 1,59,-1
 250 300 l 1,20,-1
EndSplineSet
EndChar

StartChar: G
Encoding: 71 71 32
Width: 1000
GlyphClass: 1
Flags: W
LayerCount: 2
Fore
SplineSet
312 206 m 1,0,-1
 312 612 l 1,1,-1
 375 612 l 1,2,-1
 438 612 l 1,3,-1
 438 394 l 1,4,-1
 438 175 l 1,5,-1
 469 175 l 1,6,-1
 500 175 l 1,7,-1
 500 206 l 1,8,-1
 500 238 l 1,9,-1
 531 238 l 1,10,-1
 562 238 l 1,11,-1
 562 269 l 1,12,-1
 562 300 l 1,13,-1
 594 300 l 1,14,-1
 625 300 l 1,15,-1
 625 331 l 1,16,-1
 625 362 l 1,17,-1
 688 362 l 1,18,-1
 750 362 l 1,19,-1
 750 300 l 1,20,-1
 750 238 l 1,21,-1
 719 238 l 1,22,-1
 688 238 l 1,23,-1
 688 206 l 1,24,-1
 688 175 l 1,25,-1
 656 175 l 1,26,-1
 625 175 l 1,27,-1
 625 144 l 1,28,-1
 625 112 l 1,29,-1
 594 112 l 1,30,-1
 562 112 l 1,31,-1
 562 81 l 1,32,-1
 562 50 l 1,33,-1
 594 50 l 1,34,-1
 625 50 l 1,35,-1
 625 19 l 1,36,-1
 625 -12 l 1,37,-1
 656 -12 l 1,38,-1
 688 -12 l 1,39,-1
 688 -44 l 1,40,-1
 688 -75 l 1,41,-1
 719 -75 l 1,42,-1
 750 -75 l 1,43,-1
 750 -138 l 1,44,-1
 750 -200 l 1,45,-1
 688 -200 l 1,46,-1
 625 -200 l 1,47,-1
 625 -169 l 1,48,-1
 625 -138 l 1,49,-1
 594 -138 l 1,50,-1
 562 -138 l 1,51,-1
 562 -106 l 1,52,-1
 562 -75 l 1,53,-1
 531 -75 l 1,54,-1
 500 -75 l 1,55,-1
 500 -44 l 1,56,-1
 500 -12 l 1,57,-1
 469 -12 l 1,58,-1
 438 -12 l 1,59,-1
 438 -106 l 1,60,-1
 438 -200 l 1,61,-1
 375 -200 l 1,62,-1
 312 -200 l 1,63,-1
 312 206 l 1,0,-1
EndSplineSet
EndChar

StartChar: H
Encoding: 72 72 33
Width: 1000
GlyphClass: 1
Flags: W
LayerCount: 2
Fore
SplineSet
312 206 m 1,0,-1
 312 612 l 1,1,-1
 375 612 l 1,2,-1
 438 612 l 1,3,-1
 438 394 l 1,4,-1
 438 175 l 1,5,-1
 469 175 l 1,6,-1
 500 175 l 1,7,-1
 500 206 l 1,8,-1
 500 238 l 1,9,-1
 531 238 l 1,10,-1
 562 238 l 1,11,-1
 562 269 l 1,12,-1
 562 300 l 1,13,-1
 594 300 l 1,14,-1
 625 300 l 1,15,-1
 625 331 l 1,16,-1
 625 362 l 1,17,-1
 688 362 l 1,18,-1
 750 362 l 1,19,-1
 750 300 l 1,20,-1
 750 238 l 1,21,-1
 719 238 l 1,22,-1
 688 238 l 1,23,-1
 688 206 l 1,24,-1
 688 175 l 1,25,-1
 656 175 l 1,26,-1
 625 175 l 1,27,-1
 625 144 l 1,28,-1
 625 112 l 1,29,-1
 594 112 l 1,30,-1
 562 112 l 1,31,-1
 562 81 l 1,32,-1
 562 50 l 1,33,-1
 594 50 l 1,34,-1
 625 50 l 1,35,-1
 625 19 l 1,36,-1
 625 -12 l 1,37,-1
 656 -12 l 1,38,-1
 688 -12 l 1,39,-1
 688 -44 l 1,40,-1
 688 -75 l 1,41,-1
 719 -75 l 1,42,-1
 750 -75 l 1,43,-1
 750 -138 l 1,44,-1
 750 -200 l 1,45,-1
 688 -200 l 1,46,-1
 625 -200 l 1,47,-1
 625 -169 l 1,48,-1
 625 -138 l 1,49,-1
 594 -138 l 1,50,-1
 562 -138 l 1,51,-1
 562 -106 l 1,52,-1
 562 -75 l 1,53,-1
 531 -75 l 1,54,-1
 500 -75 l 1,55,-1
 500 -44 l 1,56,-1
 500 -12 l 1,57,-1
 469 -12 l 1,58,-1
 438 -12 l 1,59,-1
 438 -106 l 1,60,-1
 438 -200 l 1,61,-1
 375 -200 l 1,62,-1
 312 -200 l 1,63,-1
 312 206 l 1,0,-1
EndSplineSet
EndChar

StartChar: I
Encoding: 73 73 34
Width: 1000
GlyphClass: 1
Flags: W
LayerCount: 2
Fore
SplineSet
438 50 m 1,0,-1
 438 238 l 1,1,-1
 500 238 l 1,2,-1
 562 238 l 1,3,-1
 562 81 l 1,4,-1
 562 -75 l 1,5,-1
 594 -75 l 1,6,-1
 625 -75 l 1,7,-1
 625 -138 l 1,8,-1
 625 -200 l 1,9,-1
 562 -200 l 1,10,-1
 500 -200 l 1,11,-1
 500 -169 l 1,12,-1
 500 -138 l 1,13,-1
 469 -138 l 1,14,-1
 438 -138 l 1,15,-1
 438 50 l 1,0,-1
438 362 m 1,16,-1
 438 425 l 1,17,-1
 500 425 l 1,18,-1
 562 425 l 1,19,-1
 562 362 l 1,20,-1
 562 300 l 1,21,-1
 500 300 l 1,22,-1
 438 300 l 1,23,-1
 438 362 l 1,16,-1
EndSplineSet
EndChar

StartChar: J
Encoding: 74 74 35
Width: 1000
GlyphClass: 1
Flags: W
LayerCount: 2
Fore
SplineSet
438 -44 m 1,0,-1
 438 238 l 1,1,-1
 500 238 l 1,2,-1
 562 238 l 1,3,-1
 562 -75 l 1,4,-1
 562 -388 l 1,5,-1
 531 -388 l 1,6,-1
 500 -388 l 1,7,-1
 500 -419 l 1,8,-1
 500 -450 l 1,9,-1
 438 -450 l 1,10,-1
 375 -450 l 1,11,-1
 375 -388 l 1,12,-1
 375 -325 l 1,13,-1
 406 -325 l 1,14,-1
 438 -325 l 1,15,-1
 438 -44 l 1,0,-1
438 362 m 1,16,-1
 438 425 l 1,17,-1
 500 425 l 1,18,-1
 562 425 l 1,19,-1
 562 362 l 1,20,-1
 562 300 l 1,21,-1
 500 300 l 1,22,-1
 438 300 l 1,23,-1
 438 362 l 1,16,-1
EndSplineSet
EndChar

StartChar: K
Encoding: 75 75 36
Width: 1000
GlyphClass: 1
Flags: W
LayerCount: 2
Fore
SplineSet
312 206 m 1,0,-1
 312 612 l 1,1,-1
 375 612 l 1,2,-1
 438 612 l 1,3,-1
 438 394 l 1,4,-1
 438 175 l 1,5,-1
 469 175 l 1,6,-1
 500 175 l 1,7,-1
 500 206 l 1,8,-1
 500 238 l 1,9,-1
 531 238 l 1,10,-1
 562 238 l 1,11,-1
 562 269 l 1,12,-1
 562 300 l 1,13,-1
 594 300 l 1,14,-1
 625 300 l 1,15,-1
 625 331 l 1,16,-1
 625 362 l 1,17,-1
 688 362 l 1,18,-1
 750 362 l 1,19,-1
 750 300 l 1,20,-1
 750 238 l 1,21,-1
 719 238 l 1,22,-1
 688 238 l 1,23,-1
 688 206 l 1,24,-1
 688 175 l 1,25,-1
 656 175 l 1,26,-1
 625 175 l 1,27,-1
 625 144 l 1,28,-1
 625 112 l 1,29,-1
 594 112 l 1,30,-1
 562 112 l 1,31,-1
 562 81 l 1,32,-1
 562 50 l 1,33,-1
 594 50 l 1,34,-1
 625 50 l 1,35,-1
 625 19 l 1,36,-1
 625 -12 l 1,37,-1
 656 -12 l 1,38,-1
 688 -12 l 1,39,-1
 688 -44 l 1,40,-1
 688 -75 l 1,41,-1
 719 -75 l 1,42,-1
 750 -75 l 1,43,-1
 750 -138 l 1,44,-1
 750 -200 l 1,45,-1
 688 -200 l 1,46,-1
 625 -200 l 1,47,-1
 625 -169 l 1,48,-1
 625 -138 l 1,49,-1
 594 -138 l 1,50,-1
 562 -138 l 1,51,-1
 562 -106 l 1,52,-1
 562 -75 l 1,53,-1
 531 -75 l 1,54,-1
 500 -75 l 1,55,-1
 500 -44 l 1,56,-1
 500 -12 l 1,57,-1
 469 -12 l 1,58,-1
 438 -12 l 1,59,-1
 438 -106 l 1,60,-1
 438 -200 l 1,61,-1
 375 -200 l 1,62,-1
 312 -200 l 1,63,-1
 312 206 l 1,0,-1
EndSplineSet
EndChar

StartChar: L
Encoding: 76 76 37
Width: 1000
GlyphClass: 1
Flags: W
LayerCount: 2
Fore
SplineSet
438 238 m 1,0,-1
 438 612 l 1,1,-1
 500 612 l 1,2,-1
 562 612 l 1,3,-1
 562 269 l 1,4,-1
 562 -75 l 1,5,-1
 594 -75 l 1,6,-1
 625 -75 l 1,7,-1
 625 -138 l 1,8,-1
 625 -200 l 1,9,-1
 562 -200 l 1,10,-1
 500 -200 l 1,11,-1
 500 -169 l 1,12,-1
 500 -138 l 1,13,-1
 469 -138 l 1,14,-1
 438 -138 l 1,15,-1
 438 238 l 1,0,-1
EndSplineSet
EndChar

StartChar: M
Encoding: 77 77 38
Width: 1000
GlyphClass: 1
Flags: W
LayerCount: 2
Fore
SplineSet
62 300 m 1,0,-1
 62 362 l 1,1,-1
 125 362 l 1,2,-1
 188 362 l 1,3,-1
 188 331 l 1,4,-1
 188 300 l 1,5,-1
 219 300 l 1,6,-1
 250 300 l 1,7,-1
 250 331 l 1,8,-1
 250 362 l 1,9,-1
 344 362 l 1,10,-1
 438 362 l 1,11,-1
 438 331 l 1,12,-1
 438 300 l 1,13,-1
 500 300 l 1,14,-1
 562 300 l 1,15,-1
 562 331 l 1,16,-1
 562 362 l 1,17,-1
 656 362 l 1,18,-1
 750 362 l 1,19,-1
 750 331 l 1,20,-1
 750 300 l 1,21,-1
 781 300 l 1,22,-1
 812 300 l 1,23,-1
 812 269 l 1,24,-1
 812 238 l 1,25,-1
 844 238 l 1,26,-1
 875 238 l 1,27,-1
 875 19 l 1,28,-1
 875 -200 l 1,29,-1
 812 -200 l 1,30,-1
 750 -200 l 1,31,-1
 750 -12 l 1,32,-1
 750 175 l 1,33,-1
 719 175 l 1,34,-1
 688 175 l 1,35,-1
 688 206 l 1,36,-1
 688 238 l 1,37,-1
 656 238 l 1,38,-1
 625 238 l 1,39,-1
 625 206 l 1,40,-1
 625 175 l 1,41,-1
 594 175 l 1,42,-1
 562 175 l 1,43,-1
 562 -12 l 1,44,-1
 562 -200 l 1,45,-1
 500 -200 l 1,46,-1
 438 -200 l 1,47,-1
 438 -12 l 1,48,-1
 438 175 l 1,49,-1
 406 175 l 1,50,-1
 375 175 l 1,51,-1
 375 206 l 1,52,-1
 375 238 l 1,53,-1
 344 238 l 1,54,-1
 312 238 l 1,55,-1
 312 206 l 1,56,-1
 312 175 l 1,57,-1
 281 175 l 1,58,-1
 250 175 l 1,59,-1
 250 -12 l 1,60,-1
 250 -200 l 1,61,-1
 188 -200 l 1,62,-1
 125 -200 l 1,63,-1
 125 19 l 1,64,-1
 125 238 l 1,65,-1
 94 238 l 1,66,-1
 62 238 l 1,67,-1
 62 300 l 1,0,-1
EndSplineSet
EndChar

StartChar: N
Encoding: 78 78 39
Width: 1000
GlyphClass: 1
Flags: W
LayerCount: 2
Fore
SplineSet
312 19 m 1,0,-1
 312 175 l 1,1,-1
 469 175 l 1,2,-1
 625 175 l 1,3,-1
 625 144 l 1,4,-1
 625 112 l 1,5,-1
 656 112 l 1,6,-1
 688 112 l 1,7,-1
 688 -12 l 1,8,-1
 688 -138 l 1,9,-1
 625 -138 l 1,10,-1
 562 -138 l 1,11,-1
 562 -44 l 1,12,-1
 562 50 l 1,13,-1
 500 50 l 1,14,-1
 438 50 l 1,15,-1
 438 -44 l 1,16,-1
 438 -138 l 1,17,-1
 375 -138 l 1,18,-1
 312 -138 l 1,19,-1
 312 19 l 1,0,-1
438 488 m 1,20,-1
 438 738 l 1,21,-1
 500 738 l 1,22,-1
 562 738 l 1,23,-1
 562 488 l 1,24,-1
 562 238 l 1,25,-1
 500 238 l 1,26,-1
 438 238 l 1,27,-1
 438 488 l 1,20,-1
EndSplineSet
EndChar

StartChar: O
Encoding: 79 79 40
Width: 1000
GlyphClass: 1
Flags: W
LayerCount: 2
Fore
SplineSet
562 50 m 1,0,-1
 562 112 l 1,1,-1
 500 112 l 1,2,-1
 438 112 l 1,3,-1
 438 50 l 1,4,-1
 438 -12 l 1,5,-1
 500 -12 l 1,6,-1
 562 -12 l 1,7,-1
 562 50 l 1,0,-1
438 206 m 1,8,-1
 438 238 l 1,9,-1
 500 238 l 1,10,-1
 562 238 l 1,11,-1
 562 206 l 1,12,-1
 562 175 l 1,13,-1
 594 175 l 1,14,-1
 625 175 l 1,15,-1
 625 144 l 1,16,-1
 625 112 l 1,17,-1
 656 112 l 1,18,-1
 688 112 l 1,19,-1
 688 50 l 1,20,-1
 688 -12 l 1,21,-1
 656 -12 l 1,22,-1
 625 -12 l 1,23,-1
 625 -44 l 1,24,-1
 625 -75 l 1,25,-1
 594 -75 l 1,26,-1
 562 -75 l 1,27,-1
 562 -106 l 1,28,-1
 562 -138 l 1,29,-1
 500 -138 l 1,30,-1
 438 -138 l 1,31,-1
 438 -106 l 1,32,-1
 438 -75 l 1,33,-1
 406 -75 l 1,34,-1
 375 -75 l 1,35,-1
 375 -44 l 1,36,-1
 375 -12 l 1,37,-1
 344 -12 l 1,38,-1
 312 -12 l 1,39,-1
 312 50 l 1,40,-1
 312 112 l 1,41,-1
 344 112 l 1,42,-1
 375 112 l 1,43,-1
 375 144 l 1,44,-1
 375 175 l 1,45,-1
 406 175 l 1,46,-1
 438 175 l 1,47,-1
 438 206 l 1,8,-1
438 519 m 1,48,-1
 438 738 l 1,49,-1
 500 738 l 1,50,-1
 562 738 l 1,51,-1
 562 519 l 1,52,-1
 562 300 l 1,53,-1
 500 300 l 1,54,-1
 438 300 l 1,55,-1
 438 519 l 1,48,-1
EndSplineSet
EndChar

StartChar: P
Encoding: 80 80 41
Width: 1000
GlyphClass: 1
Flags: W
LayerCount: 2
Fore
SplineSet
562 206 m 1,0,-1
 562 238 l 1,1,-1
 531 238 l 1,2,-1
 500 238 l 1,3,-1
 500 206 l 1,4,-1
 500 175 l 1,5,-1
 469 175 l 1,6,-1
 438 175 l 1,7,-1
 438 50 l 1,8,-1
 438 -75 l 1,9,-1
 500 -75 l 1,10,-1
 562 -75 l 1,11,-1
 562 -44 l 1,12,-1
 562 -12 l 1,13,-1
 594 -12 l 1,14,-1
 625 -12 l 1,15,-1
 625 81 l 1,16,-1
 625 175 l 1,17,-1
 594 175 l 1,18,-1
 562 175 l 1,19,-1
 562 206 l 1,0,-1
250 300 m 1,20,-1
 250 362 l 1,21,-1
 312 362 l 1,22,-1
 375 362 l 1,23,-1
 375 331 l 1,24,-1
 375 300 l 1,25,-1
 406 300 l 1,26,-1
 438 300 l 1,27,-1
 438 331 l 1,28,-1
 438 362 l 1,29,-1
 531 362 l 1,30,-1
 625 362 l 1,31,-1
 625 331 l 1,32,-1
 625 300 l 1,33,-1
 656 300 l 1,34,-1
 688 300 l 1,35,-1
 688 269 l 1,36,-1
 688 238 l 1,37,-1
 719 238 l 1,38,-1
 750 238 l 1,39,-1
 750 81 l 1,40,-1
 750 -75 l 1,41,-1
 719 -75 l 1,42,-1
 688 -75 l 1,43,-1
 688 -106 l 1,44,-1
 688 -138 l 1,45,-1
 656 -138 l 1,46,-1
 625 -138 l 1,47,-1
 625 -169 l 1,48,-1
 625 -200 l 1,49,-1
 531 -200 l 1,50,-1
 438 -200 l 1,51,-1
 438 -325 l 1,52,-1
 438 -450 l 1,53,-1
 375 -450 l 1,54,-1
 312 -450 l 1,55,-1
 312 -106 l 1,56,-1
 312 238 l 1,57,-1
 281 238 l 1,58,-1
 250 238 l 1,59,-1
 250 300 l 1,20,-1
EndSplineSet
EndChar

StartChar: Q
Encoding: 81 81 42
Width: 1000
GlyphClass: 1
Flags: W
LayerCount: 2
Fore
SplineSet
312 206 m 1,0,-1
 312 612 l 1,1,-1
 375 612 l 1,2,-1
 438 612 l 1,3,-1
 438 394 l 1,4,-1
 438 175 l 1,5,-1
 469 175 l 1,6,-1
 500 175 l 1,7,-1
 500 206 l 1,8,-1
 500 238 l 1,9,-1
 531 238 l 1,10,-1
 562 238 l 1,11,-1
 562 269 l 1,12,-1
 562 300 l 1,13,-1
 594 300 l 1,14,-1
 625 300 l 1,15,-1
 625 331 l 1,16,-1
 625 362 l 1,17,-1
 688 362 l 1,18,-1
 750 362 l 1,19,-1
 750 300 l 1,20,-1
 750 238 l 1,21,-1
 719 238 l 1,22,-1
 688 238 l 1,23,-1
 688 206 l 1,24,-1
 688 175 l 1,25,-1
 656 175 l 1,26,-1
 625 175 l 1,27,-1
 625 144 l 1,28,-1
 625 112 l 1,29,-1
 594 112 l 1,30,-1
 562 112 l 1,31,-1
 562 81 l 1,32,-1
 562 50 l 1,33,-1
 594 50 l 1,34,-1
 625 50 l 1,35,-1
 625 19 l 1,36,-1
 625 -12 l 1,37,-1
 656 -12 l 1,38,-1
 688 -12 l 1,39,-1
 688 -44 l 1,40,-1
 688 -75 l 1,41,-1
 719 -75 l 1,42,-1
 750 -75 l 1,43,-1
 750 -138 l 1,44,-1
 750 -200 l 1,45,-1
 688 -200 l 1,46,-1
 625 -200 l 1,47,-1
 625 -169 l 1,48,-1
 625 -138 l 1,49,-1
 594 -138 l 1,50,-1
 562 -138 l 1,51,-1
 562 -106 l 1,52,-1
 562 -75 l 1,53,-1
 531 -75 l 1,54,-1
 500 -75 l 1,55,-1
 500 -44 l 1,56,-1
 500 -12 l 1,57,-1
 469 -12 l 1,58,-1
 438 -12 l 1,59,-1
 438 -106 l 1,60,-1
 438 -200 l 1,61,-1
 375 -200 l 1,62,-1
 312 -200 l 1,63,-1
 312 206 l 1,0,-1
EndSplineSet
EndChar

StartChar: R
Encoding: 82 82 43
Width: 1000
GlyphClass: 1
Flags: W
LayerCount: 2
Fore
SplineSet
188 269 m 1,0,-1
 188 362 l 1,1,-1
 250 362 l 1,2,-1
 312 362 l 1,3,-1
 312 300 l 1,4,-1
 312 238 l 1,5,-1
 344 238 l 1,6,-1
 375 238 l 1,7,-1
 375 144 l 1,8,-1
 375 50 l 1,9,-1
 406 50 l 1,10,-1
 438 50 l 1,11,-1
 438 81 l 1,12,-1
 438 112 l 1,13,-1
 500 112 l 1,14,-1
 562 112 l 1,15,-1
 562 81 l 1,16,-1
 562 50 l 1,17,-1
 594 50 l 1,18,-1
 625 50 l 1,19,-1
 625 144 l 1,20,-1
 625 238 l 1,21,-1
 656 238 l 1,22,-1
 688 238 l 1,23,-1
 688 300 l 1,24,-1
 688 362 l 1,25,-1
 750 362 l 1,26,-1
 812 362 l 1,27,-1
 812 269 l 1,28,-1
 812 175 l 1,29,-1
 781 175 l 1,30,-1
 750 175 l 1,31,-1
 750 81 l 1,32,-1
 750 -12 l 1,33,-1
 719 -12 l 1,34,-1
 688 -12 l 1,35,-1
 688 -106 l 1,36,-1
 688 -200 l 1,37,-1
 625 -200 l 1,38,-1
 562 -200 l 1,39,-1
 562 -138 l 1,40,-1
 562 -75 l 1,41,-1
 500 -75 l 1,42,-1
 438 -75 l 1,43,-1
 438 -138 l 1,44,-1
 438 -200 l 1,45,-1
 375 -200 l 1,46,-1
 312 -200 l 1,47,-1
 312 -106 l 1,48,-1
 312 -12 l 1,49,-1
 281 -12 l 1,50,-1
 250 -12 l 1,51,-1
 250 81 l 1,52,-1
 250 175 l 1,53,-1
 219 175 l 1,54,-1
 188 175 l 1,55,-1
 188 269 l 1,0,-1
EndSplineSet
EndChar

StartChar: S
Encoding: 83 83 44
Width: 1000
GlyphClass: 1
Flags: W
LayerCount: 2
Fore
SplineSet
562 -44 m 1,0,-1
 562 -12 l 1,1,-1
 531 -12 l 1,2,-1
 500 -12 l 1,3,-1
 500 -44 l 1,4,-1
 500 -75 l 1,5,-1
 531 -75 l 1,6,-1
 562 -75 l 1,7,-1
 562 -44 l 1,0,-1
562 206 m 1,8,-1
 562 238 l 1,9,-1
 531 238 l 1,10,-1
 500 238 l 1,11,-1
 500 206 l 1,12,-1
 500 175 l 1,13,-1
 531 175 l 1,14,-1
 562 175 l 1,15,-1
 562 206 l 1,8,-1
438 331 m 1,16,-1
 438 362 l 1,17,-1
 531 362 l 1,18,-1
 625 362 l 1,19,-1
 625 331 l 1,20,-1
 625 300 l 1,21,-1
 656 300 l 1,22,-1
 688 300 l 1,23,-1
 688 269 l 1,24,-1
 688 238 l 1,25,-1
 719 238 l 1,26,-1
 750 238 l 1,27,-1
 750 206 l 1,28,-1
 750 175 l 1,29,-1
 656 175 l 1,30,-1
 562 175 l 1,31,-1
 562 144 l 1,32,-1
 562 112 l 1,33,-1
 625 112 l 1,34,-1
 688 112 l 1,35,-1
 688 81 l 1,36,-1
 688 50 l 1,37,-1
 719 50 l 1,38,-1
 750 50 l 1,39,-1
 750 -12 l 1,40,-1
 750 -75 l 1,41,-1
 719 -75 l 1,42,-1
 688 -75 l 1,43,-1
 688 -106 l 1,44,-1
 688 -138 l 1,45,-1
 656 -138 l 1,46,-1
 625 -138 l 1,47,-1
 625 -169 l 1,48,-1
 625 -200 l 1,49,-1
 531 -200 l 1,50,-1
 438 -200 l 1,51,-1
 438 -169 l 1,52,-1
 438 -138 l 1,53,-1
 406 -138 l 1,54,-1
 375 -138 l 1,55,-1
 375 -106 l 1,56,-1
 375 -75 l 1,57,-1
 344 -75 l 1,58,-1
 312 -75 l 1,59,-1
 312 -44 l 1,60,-1
 312 -12 l 1,61,-1
 406 -12 l 1,62,-1
 500 -12 l 1,63,-1
 500 19 l 1,64,-1
 500 50 l 1,65,-1
 438 50 l 1,66,-1
 375 50 l 1,67,-1
 375 81 l 1,68,-1
 375 112 l 1,69,-1
 344 112 l 1,70,-1
 312 112 l 1,71,-1
 312 175 l 1,72,-1
 312 238 l 1,73,-1
 344 238 l 1,74,-1
 375 238 l 1,75,-1
 375 269 l 1,76,-1
 375 300 l 1,77,-1
 406 300 l 1,78,-1
 438 300 l 1,79,-1
 438 331 l 1,16,-1
EndSplineSet
EndChar

StartChar: T
Encoding: 84 84 45
Width: 1000
GlyphClass: 1
Flags: W
LayerCount: 2
Fore
SplineSet
375 394 m 1,0,-1
 375 488 l 1,1,-1
 438 488 l 1,2,-1
 500 488 l 1,3,-1
 500 394 l 1,4,-1
 500 300 l 1,5,-1
 625 300 l 1,6,-1
 750 300 l 1,7,-1
 750 238 l 1,8,-1
 750 175 l 1,9,-1
 625 175 l 1,10,-1
 500 175 l 1,11,-1
 500 50 l 1,12,-1
 500 -75 l 1,13,-1
 562 -75 l 1,14,-1
 625 -75 l 1,15,-1
 625 -44 l 1,16,-1
 625 -12 l 1,17,-1
 688 -12 l 1,18,-1
 750 -12 l 1,19,-1
 750 -75 l 1,20,-1
 750 -138 l 1,21,-1
 719 -138 l 1,22,-1
 688 -138 l 1,23,-1
 688 -169 l 1,24,-1
 688 -200 l 1,25,-1
 562 -200 l 1,26,-1
 438 -200 l 1,27,-1
 438 -169 l 1,28,-1
 438 -138 l 1,29,-1
 406 -138 l 1,30,-1
 375 -138 l 1,31,-1
 375 19 l 1,32,-1
 375 175 l 1,33,-1
 344 175 l 1,34,-1
 312 175 l 1,35,-1
 312 238 l 1,36,-1
 312 300 l 1,37,-1
 344 300 l 1,38,-1
 375 300 l 1,39,-1
 375 394 l 1,0,-1
EndSplineSet
EndChar

StartChar: U
Encoding: 85 85 46
Width: 1000
GlyphClass: 1
Flags: W
LayerCount: 2
Fore
SplineSet
250 144 m 1,0,-1
 250 362 l 1,1,-1
 312 362 l 1,2,-1
 375 362 l 1,3,-1
 375 175 l 1,4,-1
 375 -12 l 1,5,-1
 406 -12 l 1,6,-1
 438 -12 l 1,7,-1
 438 -44 l 1,8,-1
 438 -75 l 1,9,-1
 469 -75 l 1,10,-1
 500 -75 l 1,11,-1
 500 -44 l 1,12,-1
 500 -12 l 1,13,-1
 531 -12 l 1,14,-1
 562 -12 l 1,15,-1
 562 175 l 1,16,-1
 562 362 l 1,17,-1
 625 362 l 1,18,-1
 688 362 l 1,19,-1
 688 144 l 1,20,-1
 688 -75 l 1,21,-1
 719 -75 l 1,22,-1
 750 -75 l 1,23,-1
 750 -138 l 1,24,-1
 750 -200 l 1,25,-1
 688 -200 l 1,26,-1
 625 -200 l 1,27,-1
 625 -169 l 1,28,-1
 625 -138 l 1,29,-1
 594 -138 l 1,30,-1
 562 -138 l 1,31,-1
 562 -169 l 1,32,-1
 562 -200 l 1,33,-1
 469 -200 l 1,34,-1
 375 -200 l 1,35,-1
 375 -169 l 1,36,-1
 375 -138 l 1,37,-1
 344 -138 l 1,38,-1
 312 -138 l 1,39,-1
 312 -106 l 1,40,-1
 312 -75 l 1,41,-1
 281 -75 l 1,42,-1
 250 -75 l 1,43,-1
 250 144 l 1,0,-1
EndSplineSet
EndChar

StartChar: V
Encoding: 86 86 47
Width: 1000
GlyphClass: 1
Flags: W
LayerCount: 2
Fore
SplineSet
188 269 m 1,0,-1
 188 362 l 1,1,-1
 250 362 l 1,2,-1
 312 362 l 1,3,-1
 312 300 l 1,4,-1
 312 238 l 1,5,-1
 344 238 l 1,6,-1
 375 238 l 1,7,-1
 375 144 l 1,8,-1
 375 50 l 1,9,-1
 406 50 l 1,10,-1
 438 50 l 1,11,-1
 438 81 l 1,12,-1
 438 112 l 1,13,-1
 500 112 l 1,14,-1
 562 112 l 1,15,-1
 562 81 l 1,16,-1
 562 50 l 1,17,-1
 594 50 l 1,18,-1
 625 50 l 1,19,-1
 625 144 l 1,20,-1
 625 238 l 1,21,-1
 656 238 l 1,22,-1
 688 238 l 1,23,-1
 688 300 l 1,24,-1
 688 362 l 1,25,-1
 750 362 l 1,26,-1
 812 362 l 1,27,-1
 812 269 l 1,28,-1
 812 175 l 1,29,-1
 781 175 l 1,30,-1
 750 175 l 1,31,-1
 750 81 l 1,32,-1
 750 -12 l 1,33,-1
 719 -12 l 1,34,-1
 688 -12 l 1,35,-1
 688 -106 l 1,36,-1
 688 -200 l 1,37,-1
 625 -200 l 1,38,-1
 562 -200 l 1,39,-1
 562 -138 l 1,40,-1
 562 -75 l 1,41,-1
 500 -75 l 1,42,-1
 438 -75 l 1,43,-1
 438 -138 l 1,44,-1
 438 -200 l 1,45,-1
 375 -200 l 1,46,-1
 312 -200 l 1,47,-1
 312 -106 l 1,48,-1
 312 -12 l 1,49,-1
 281 -12 l 1,50,-1
 250 -12 l 1,51,-1
 250 81 l 1,52,-1
 250 175 l 1,53,-1
 219 175 l 1,54,-1
 188 175 l 1,55,-1
 188 269 l 1,0,-1
EndSplineSet
EndChar

StartChar: W
Encoding: 87 87 48
Width: 1000
GlyphClass: 1
Flags: W
LayerCount: 2
Fore
SplineSet
188 269 m 1,0,-1
 188 362 l 1,1,-1
 250 362 l 1,2,-1
 312 362 l 1,3,-1
 312 300 l 1,4,-1
 312 238 l 1,5,-1
 344 238 l 1,6,-1
 375 238 l 1,7,-1
 375 144 l 1,8,-1
 375 50 l 1,9,-1
 406 50 l 1,10,-1
 438 50 l 1,11,-1
 438 81 l 1,12,-1
 438 112 l 1,13,-1
 500 112 l 1,14,-1
 562 112 l 1,15,-1
 562 81 l 1,16,-1
 562 50 l 1,17,-1
 594 50 l 1,18,-1
 625 50 l 1,19,-1
 625 144 l 1,20,-1
 625 238 l 1,21,-1
 656 238 l 1,22,-1
 688 238 l 1,23,-1
 688 300 l 1,24,-1
 688 362 l 1,25,-1
 750 362 l 1,26,-1
 812 362 l 1,27,-1
 812 269 l 1,28,-1
 812 175 l 1,29,-1
 781 175 l 1,30,-1
 750 175 l 1,31,-1
 750 81 l 1,32,-1
 750 -12 l 1,33,-1
 719 -12 l 1,34,-1
 688 -12 l 1,35,-1
 688 -106 l 1,36,-1
 688 -200 l 1,37,-1
 625 -200 l 1,38,-1
 562 -200 l 1,39,-1
 562 -138 l 1,40,-1
 562 -75 l 1,41,-1
 500 -75 l 1,42,-1
 438 -75 l 1,43,-1
 438 -138 l 1,44,-1
 438 -200 l 1,45,-1
 375 -200 l 1,46,-1
 312 -200 l 1,47,-1
 312 -106 l 1,48,-1
 312 -12 l 1,49,-1
 281 -12 l 1,50,-1
 250 -12 l 1,51,-1
 250 81 l 1,52,-1
 250 175 l 1,53,-1
 219 175 l 1,54,-1
 188 175 l 1,55,-1
 188 269 l 1,0,-1
EndSplineSet
EndChar

StartChar: X
Encoding: 88 88 49
Width: 1000
GlyphClass: 1
Flags: W
LayerCount: 2
Fore
SplineSet
562 -44 m 1,0,-1
 562 -12 l 1,1,-1
 531 -12 l 1,2,-1
 500 -12 l 1,3,-1
 500 -44 l 1,4,-1
 500 -75 l 1,5,-1
 531 -75 l 1,6,-1
 562 -75 l 1,7,-1
 562 -44 l 1,0,-1
562 206 m 1,8,-1
 562 238 l 1,9,-1
 531 238 l 1,10,-1
 500 238 l 1,11,-1
 500 206 l 1,12,-1
 500 175 l 1,13,-1
 531 175 l 1,14,-1
 562 175 l 1,15,-1
 562 206 l 1,8,-1
438 331 m 1,16,-1
 438 362 l 1,17,-1
 531 362 l 1,18,-1
 625 362 l 1,19,-1
 625 331 l 1,20,-1
 625 300 l 1,21,-1
 656 300 l 1,22,-1
 688 300 l 1,23,-1
 688 269 l 1,24,-1
 688 238 l 1,25,-1
 719 238 l 1,26,-1
 750 238 l 1,27,-1
 750 206 l 1,28,-1
 750 175 l 1,29,-1
 656 175 l 1,30,-1
 562 175 l 1,31,-1
 562 144 l 1,32,-1
 562 112 l 1,33,-1
 625 112 l 1,34,-1
 688 112 l 1,35,-1
 688 81 l 1,36,-1
 688 50 l 1,37,-1
 719 50 l 1,38,-1
 750 50 l 1,39,-1
 750 -12 l 1,40,-1
 750 -75 l 1,41,-1
 719 -75 l 1,42,-1
 688 -75 l 1,43,-1
 688 -106 l 1,44,-1
 688 -138 l 1,45,-1
 656 -138 l 1,46,-1
 625 -138 l 1,47,-1
 625 -169 l 1,48,-1
 625 -200 l 1,49,-1
 531 -200 l 1,50,-1
 438 -200 l 1,51,-1
 438 -169 l 1,52,-1
 438 -138 l 1,53,-1
 406 -138 l 1,54,-1
 375 -138 l 1,55,-1
 375 -106 l 1,56,-1
 375 -75 l 1,57,-1
 344 -75 l 1,58,-1
 312 -75 l 1,59,-1
 312 -44 l 1,60,-1
 312 -12 l 1,61,-1
 406 -12 l 1,62,-1
 500 -12 l 1,63,-1
 500 19 l 1,64,-1
 500 50 l 1,65,-1
 438 50 l 1,66,-1
 375 50 l 1,67,-1
 375 81 l 1,68,-1
 375 112 l 1,69,-1
 344 112 l 1,70,-1
 312 112 l 1,71,-1
 312 175 l 1,72,-1
 312 238 l 1,73,-1
 344 238 l 1,74,-1
 375 238 l 1,75,-1
 375 269 l 1,76,-1
 375 300 l 1,77,-1
 406 300 l 1,78,-1
 438 300 l 1,79,-1
 438 331 l 1,16,-1
EndSplineSet
EndChar

StartChar: Y
Encoding: 89 89 50
Width: 1000
GlyphClass: 1
Flags: W
LayerCount: 2
Fore
SplineSet
438 -44 m 1,0,-1
 438 238 l 1,1,-1
 500 238 l 1,2,-1
 562 238 l 1,3,-1
 562 -75 l 1,4,-1
 562 -388 l 1,5,-1
 531 -388 l 1,6,-1
 500 -388 l 1,7,-1
 500 -419 l 1,8,-1
 500 -450 l 1,9,-1
 438 -450 l 1,10,-1
 375 -450 l 1,11,-1
 375 -388 l 1,12,-1
 375 -325 l 1,13,-1
 406 -325 l 1,14,-1
 438 -325 l 1,15,-1
 438 -44 l 1,0,-1
438 362 m 1,16,-1
 438 425 l 1,17,-1
 500 425 l 1,18,-1
 562 425 l 1,19,-1
 562 362 l 1,20,-1
 562 300 l 1,21,-1
 500 300 l 1,22,-1
 438 300 l 1,23,-1
 438 362 l 1,16,-1
EndSplineSet
EndChar

StartChar: Z
Encoding: 90 90 51
Width: 1000
GlyphClass: 1
Flags: W
LayerCount: 2
Fore
SplineSet
562 -44 m 1,0,-1
 562 -12 l 1,1,-1
 531 -12 l 1,2,-1
 500 -12 l 1,3,-1
 500 -44 l 1,4,-1
 500 -75 l 1,5,-1
 531 -75 l 1,6,-1
 562 -75 l 1,7,-1
 562 -44 l 1,0,-1
562 206 m 1,8,-1
 562 238 l 1,9,-1
 531 238 l 1,10,-1
 500 238 l 1,11,-1
 500 206 l 1,12,-1
 500 175 l 1,13,-1
 531 175 l 1,14,-1
 562 175 l 1,15,-1
 562 206 l 1,8,-1
438 331 m 1,16,-1
 438 362 l 1,17,-1
 531 362 l 1,18,-1
 625 362 l 1,19,-1
 625 331 l 1,20,-1
 625 300 l 1,21,-1
 656 300 l 1,22,-1
 688 300 l 1,23,-1
 688 269 l 1,24,-1
 688 238 l 1,25,-1
 719 238 l 1,26,-1
 750 238 l 1,27,-1
 750 206 l 1,28,-1
 750 175 l 1,29,-1
 656 175 l 1,30,-1
 562 175 l 1,31,-1
 562 144 l 1,32,-1
 562 112 l 1,33,-1
 625 112 l 1,34,-1
 688 112 l 1,35,-1
 688 81 l 1,36,-1
 688 50 l 1,37,-1
 719 50 l 1,38,-1
 750 50 l 1,39,-1
 750 -12 l 1,40,-1
 750 -75 l 1,41,-1
 719 -75 l 1,42,-1
 688 -75 l 1,43,-1
 688 -106 l 1,44,-1
 688 -138 l 1,45,-1
 656 -138 l 1,46,-1
 625 -138 l 1,47,-1
 625 -169 l 1,48,-1
 625 -200 l 1,49,-1
 531 -200 l 1,50,-1
 438 -200 l 1,51,-1
 438 -169 l 1,52,-1
 438 -138 l 1,53,-1
 406 -138 l 1,54,-1
 375 -138 l 1,55,-1
 375 -106 l 1,56,-1
 375 -75 l 1,57,-1
 344 -75 l 1,58,-1
 312 -75 l 1,59,-1
 312 -44 l 1,60,-1
 312 -12 l 1,61,-1
 406 -12 l 1,62,-1
 500 -12 l 1,63,-1
 500 19 l 1,64,-1
 500 50 l 1,65,-1
 438 50 l 1,66,-1
 375 50 l 1,67,-1
 375 81 l 1,68,-1
 375 112 l 1,69,-1
 344 112 l 1,70,-1
 312 112 l 1,71,-1
 312 175 l 1,72,-1
 312 238 l 1,73,-1
 344 238 l 1,74,-1
 375 238 l 1,75,-1
 375 269 l 1,76,-1
 375 300 l 1,77,-1
 406 300 l 1,78,-1
 438 300 l 1,79,-1
 438 331 l 1,16,-1
EndSplineSet
EndChar

StartChar: bracketleft
Encoding: 91 91 52
Width: 1000
GlyphClass: 1
Flags: W
LayerCount: 2
Fore
SplineSet
375 956 m 1,0,-1
 375 988 l 1,1,-1
 719 988 l 1,2,-1
 1062 988 l 1,3,-1
 1062 925 l 1,4,-1
 1062 862 l 1,5,-1
 750 862 l 1,6,-1
 438 862 l 1,7,-1
 438 300 l 1,8,-1
 438 -262 l 1,9,-1
 750 -262 l 1,10,-1
 1062 -262 l 1,11,-1
 1062 -325 l 1,12,-1
 1062 -388 l 1,13,-1
 719 -388 l 1,14,-1
 375 -388 l 1,15,-1
 375 -356 l 1,16,-1
 375 -325 l 1,17,-1
 344 -325 l 1,18,-1
 312 -325 l 1,19,-1
 312 300 l 1,20,-1
 312 925 l 1,21,-1
 344 925 l 1,22,-1
 375 925 l 1,23,-1
 375 956 l 1,0,-1
EndSplineSet
Substitution2: "'liga' Standard Ligatures in Latin lookup 1 subtable" cartoucheStartTok
EndChar

StartChar: bracketright
Encoding: 93 93 53
Width: 1000
GlyphClass: 1
Flags: W
LayerCount: 2
Fore
SplineSet
0 925 m 1,0,-1
 0 988 l 1,1,-1
 312 988 l 1,2,-1
 625 988 l 1,3,-1
 625 956 l 1,4,-1
 625 925 l 1,5,-1
 656 925 l 1,6,-1
 688 925 l 1,7,-1
 688 300 l 1,8,-1
 688 -325 l 1,9,-1
 656 -325 l 1,10,-1
 625 -325 l 1,11,-1
 625 -356 l 1,12,-1
 625 -388 l 1,13,-1
 312 -388 l 1,14,-1
 0 -388 l 1,15,-1
 0 -325 l 1,16,-1
 0 -262 l 1,17,-1
 281 -262 l 1,18,-1
 562 -262 l 1,19,-1
 562 300 l 1,20,-1
 562 862 l 1,21,-1
 281 862 l 1,22,-1
 0 862 l 1,23,-1
 0 925 l 1,0,-1
EndSplineSet
Substitution2: "'liga' Standard Ligatures in Latin lookup 1 subtable" cartoucheEndTok
EndChar

StartChar: underscore
Encoding: 95 95 55
Width: 0
GlyphClass: 1
Flags: W
LayerCount: 2
Fore
SplineSet
-1000 -325 m 1,0,-1
 -1000 -262 l 1,1,-1
 -469 -262 l 1,2,-1
 62 -262 l 1,3,-1
 62 -325 l 1,4,-1
 62 -388 l 1,5,-1
 -469 -388 l 1,6,-1
 -1000 -388 l 1,7,-1
 -1000 -325 l 1,0,-1
-1000 925 m 1,8,-1
 -1000 988 l 1,9,-1
 -469 988 l 1,10,-1
 62 988 l 1,11,-1
 62 925 l 1,12,-1
 62 862 l 1,13,-1
 -469 862 l 1,14,-1
 -1000 862 l 1,15,-1
 -1000 925 l 1,8,-1
EndSplineSet
MultipleSubs2: "Multiple Substitution lookup 2 subtable" underscore cartoucheMiddleTok
EndChar

StartChar: a
Encoding: 97 97 56
Width: 1000
GlyphClass: 1
Flags: W
LayerCount: 2
Fore
SplineSet
500 50 m 1,0,-1
 500 112 l 1,1,-1
 438 112 l 1,2,-1
 375 112 l 1,3,-1
 375 50 l 1,4,-1
 375 -12 l 1,5,-1
 438 -12 l 1,6,-1
 500 -12 l 1,7,-1
 500 50 l 1,0,-1
375 206 m 1,8,-1
 375 238 l 1,9,-1
 438 238 l 1,10,-1
 500 238 l 1,11,-1
 500 206 l 1,12,-1
 500 175 l 1,13,-1
 531 175 l 1,14,-1
 562 175 l 1,15,-1
 562 144 l 1,16,-1
 562 112 l 1,17,-1
 594 112 l 1,18,-1
 625 112 l 1,19,-1
 625 50 l 1,20,-1
 625 -12 l 1,21,-1
 656 -12 l 1,22,-1
 688 -12 l 1,23,-1
 688 -75 l 1,24,-1
 688 -138 l 1,25,-1
 625 -138 l 1,26,-1
 562 -138 l 1,27,-1
 562 -106 l 1,28,-1
 562 -75 l 1,29,-1
 531 -75 l 1,30,-1
 500 -75 l 1,31,-1
 500 -106 l 1,32,-1
 500 -138 l 1,33,-1
 438 -138 l 1,34,-1
 375 -138 l 1,35,-1
 375 -106 l 1,36,-1
 375 -75 l 1,37,-1
 344 -75 l 1,38,-1
 312 -75 l 1,39,-1
 312 -44 l 1,40,-1
 312 -12 l 1,41,-1
 281 -12 l 1,42,-1
 250 -12 l 1,43,-1
 250 50 l 1,44,-1
 250 112 l 1,45,-1
 281 112 l 1,46,-1
 312 112 l 1,47,-1
 312 144 l 1,48,-1
 312 175 l 1,49,-1
 344 175 l 1,50,-1
 375 175 l 1,51,-1
 375 206 l 1,8,-1
375 519 m 1,52,-1
 375 738 l 1,53,-1
 438 738 l 1,54,-1
 500 738 l 1,55,-1
 500 519 l 1,56,-1
 500 300 l 1,57,-1
 438 300 l 1,58,-1
 375 300 l 1,59,-1
 375 519 l 1,52,-1
EndSplineSet
MultipleSubs2: "Multiple Substitution lookup 2 subtable" a cartoucheMiddleTok
Substitution2: "'liga' Standard Ligatures in Latin lookup 1 subtable" aTok
EndChar

StartChar: b
Encoding: 98 98 57
Width: 1000
GlyphClass: 1
Flags: W
LayerCount: 2
Fore
SplineSet
562 206 m 1,0,-1
 562 238 l 1,1,-1
 531 238 l 1,2,-1
 500 238 l 1,3,-1
 500 206 l 1,4,-1
 500 175 l 1,5,-1
 469 175 l 1,6,-1
 438 175 l 1,7,-1
 438 50 l 1,8,-1
 438 -75 l 1,9,-1
 500 -75 l 1,10,-1
 562 -75 l 1,11,-1
 562 -44 l 1,12,-1
 562 -12 l 1,13,-1
 594 -12 l 1,14,-1
 625 -12 l 1,15,-1
 625 81 l 1,16,-1
 625 175 l 1,17,-1
 594 175 l 1,18,-1
 562 175 l 1,19,-1
 562 206 l 1,0,-1
250 300 m 1,20,-1
 250 362 l 1,21,-1
 312 362 l 1,22,-1
 375 362 l 1,23,-1
 375 331 l 1,24,-1
 375 300 l 1,25,-1
 406 300 l 1,26,-1
 438 300 l 1,27,-1
 438 331 l 1,28,-1
 438 362 l 1,29,-1
 531 362 l 1,30,-1
 625 362 l 1,31,-1
 625 331 l 1,32,-1
 625 300 l 1,33,-1
 656 300 l 1,34,-1
 688 300 l 1,35,-1
 688 269 l 1,36,-1
 688 238 l 1,37,-1
 719 238 l 1,38,-1
 750 238 l 1,39,-1
 750 81 l 1,40,-1
 750 -75 l 1,41,-1
 719 -75 l 1,42,-1
 688 -75 l 1,43,-1
 688 -106 l 1,44,-1
 688 -138 l 1,45,-1
 656 -138 l 1,46,-1
 625 -138 l 1,47,-1
 625 -169 l 1,48,-1
 625 -200 l 1,49,-1
 531 -200 l 1,50,-1
 438 -200 l 1,51,-1
 438 -325 l 1,52,-1
 438 -450 l 1,53,-1
 375 -450 l 1,54,-1
 312 -450 l 1,55,-1
 312 -106 l 1,56,-1
 312 238 l 1,57,-1
 281 238 l 1,58,-1
 250 238 l 1,59,-1
 250 300 l 1,20,-1
EndSplineSet
EndChar

StartChar: c
Encoding: 99 99 58
Width: 1000
GlyphClass: 1
Flags: W
LayerCount: 2
Fore
SplineSet
562 -44 m 1,0,-1
 562 -12 l 1,1,-1
 531 -12 l 1,2,-1
 500 -12 l 1,3,-1
 500 -44 l 1,4,-1
 500 -75 l 1,5,-1
 531 -75 l 1,6,-1
 562 -75 l 1,7,-1
 562 -44 l 1,0,-1
562 206 m 1,8,-1
 562 238 l 1,9,-1
 531 238 l 1,10,-1
 500 238 l 1,11,-1
 500 206 l 1,12,-1
 500 175 l 1,13,-1
 531 175 l 1,14,-1
 562 175 l 1,15,-1
 562 206 l 1,8,-1
438 331 m 1,16,-1
 438 362 l 1,17,-1
 531 362 l 1,18,-1
 625 362 l 1,19,-1
 625 331 l 1,20,-1
 625 300 l 1,21,-1
 656 300 l 1,22,-1
 688 300 l 1,23,-1
 688 269 l 1,24,-1
 688 238 l 1,25,-1
 719 238 l 1,26,-1
 750 238 l 1,27,-1
 750 206 l 1,28,-1
 750 175 l 1,29,-1
 656 175 l 1,30,-1
 562 175 l 1,31,-1
 562 144 l 1,32,-1
 562 112 l 1,33,-1
 625 112 l 1,34,-1
 688 112 l 1,35,-1
 688 81 l 1,36,-1
 688 50 l 1,37,-1
 719 50 l 1,38,-1
 750 50 l 1,39,-1
 750 -12 l 1,40,-1
 750 -75 l 1,41,-1
 719 -75 l 1,42,-1
 688 -75 l 1,43,-1
 688 -106 l 1,44,-1
 688 -138 l 1,45,-1
 656 -138 l 1,46,-1
 625 -138 l 1,47,-1
 625 -169 l 1,48,-1
 625 -200 l 1,49,-1
 531 -200 l 1,50,-1
 438 -200 l 1,51,-1
 438 -169 l 1,52,-1
 438 -138 l 1,53,-1
 406 -138 l 1,54,-1
 375 -138 l 1,55,-1
 375 -106 l 1,56,-1
 375 -75 l 1,57,-1
 344 -75 l 1,58,-1
 312 -75 l 1,59,-1
 312 -44 l 1,60,-1
 312 -12 l 1,61,-1
 406 -12 l 1,62,-1
 500 -12 l 1,63,-1
 500 19 l 1,64,-1
 500 50 l 1,65,-1
 438 50 l 1,66,-1
 375 50 l 1,67,-1
 375 81 l 1,68,-1
 375 112 l 1,69,-1
 344 112 l 1,70,-1
 312 112 l 1,71,-1
 312 175 l 1,72,-1
 312 238 l 1,73,-1
 344 238 l 1,74,-1
 375 238 l 1,75,-1
 375 269 l 1,76,-1
 375 300 l 1,77,-1
 406 300 l 1,78,-1
 438 300 l 1,79,-1
 438 331 l 1,16,-1
EndSplineSet
EndChar

StartChar: d
Encoding: 100 100 59
Width: 1000
GlyphClass: 1
Flags: W
LayerCount: 2
Fore
SplineSet
375 394 m 1,0,-1
 375 488 l 1,1,-1
 438 488 l 1,2,-1
 500 488 l 1,3,-1
 500 394 l 1,4,-1
 500 300 l 1,5,-1
 625 300 l 1,6,-1
 750 300 l 1,7,-1
 750 238 l 1,8,-1
 750 175 l 1,9,-1
 625 175 l 1,10,-1
 500 175 l 1,11,-1
 500 50 l 1,12,-1
 500 -75 l 1,13,-1
 562 -75 l 1,14,-1
 625 -75 l 1,15,-1
 625 -44 l 1,16,-1
 625 -12 l 1,17,-1
 688 -12 l 1,18,-1
 750 -12 l 1,19,-1
 750 -75 l 1,20,-1
 750 -138 l 1,21,-1
 719 -138 l 1,22,-1
 688 -138 l 1,23,-1
 688 -169 l 1,24,-1
 688 -200 l 1,25,-1
 562 -200 l 1,26,-1
 438 -200 l 1,27,-1
 438 -169 l 1,28,-1
 438 -138 l 1,29,-1
 406 -138 l 1,30,-1
 375 -138 l 1,31,-1
 375 19 l 1,32,-1
 375 175 l 1,33,-1
 344 175 l 1,34,-1
 312 175 l 1,35,-1
 312 238 l 1,36,-1
 312 300 l 1,37,-1
 344 300 l 1,38,-1
 375 300 l 1,39,-1
 375 394 l 1,0,-1
EndSplineSet
EndChar

StartChar: e
Encoding: 101 101 60
Width: 1000
GlyphClass: 1
Flags: W
LayerCount: 2
Fore
SplineSet
500 675 m 1,0,-1
 500 738 l 1,1,-1
 562 738 l 1,2,-1
 625 738 l 1,3,-1
 625 706 l 1,4,-1
 625 675 l 1,5,-1
 656 675 l 1,6,-1
 688 675 l 1,7,-1
 688 612 l 1,8,-1
 688 550 l 1,9,-1
 719 550 l 1,10,-1
 750 550 l 1,11,-1
 750 488 l 1,12,-1
 750 425 l 1,13,-1
 781 425 l 1,14,-1
 812 425 l 1,15,-1
 812 394 l 1,16,-1
 812 362 l 1,17,-1
 844 362 l 1,18,-1
 875 362 l 1,19,-1
 875 300 l 1,20,-1
 875 238 l 1,21,-1
 844 238 l 1,22,-1
 812 238 l 1,23,-1
 812 206 l 1,24,-1
 812 175 l 1,25,-1
 781 175 l 1,26,-1
 750 175 l 1,27,-1
 750 112 l 1,28,-1
 750 50 l 1,29,-1
 719 50 l 1,30,-1
 688 50 l 1,31,-1
 688 -12 l 1,32,-1
 688 -75 l 1,33,-1
 656 -75 l 1,34,-1
 625 -75 l 1,35,-1
 625 -106 l 1,36,-1
 625 -138 l 1,37,-1
 562 -138 l 1,38,-1
 500 -138 l 1,39,-1
 500 -75 l 1,40,-1
 500 -12 l 1,41,-1
 531 -12 l 1,42,-1
 562 -12 l 1,43,-1
 562 50 l 1,44,-1
 562 112 l 1,45,-1
 594 112 l 1,46,-1
 625 112 l 1,47,-1
 625 175 l 1,48,-1
 625 238 l 1,49,-1
 656 238 l 1,50,-1
 688 238 l 1,51,-1
 688 300 l 1,52,-1
 688 362 l 1,53,-1
 656 362 l 1,54,-1
 625 362 l 1,55,-1
 625 425 l 1,56,-1
 625 488 l 1,57,-1
 594 488 l 1,58,-1
 562 488 l 1,59,-1
 562 550 l 1,60,-1
 562 612 l 1,61,-1
 531 612 l 1,62,-1
 500 612 l 1,63,-1
 500 675 l 1,0,-1
125 675 m 1,64,-1
 125 738 l 1,65,-1
 188 738 l 1,66,-1
 250 738 l 1,67,-1
 250 706 l 1,68,-1
 250 675 l 1,69,-1
 281 675 l 1,70,-1
 312 675 l 1,71,-1
 312 612 l 1,72,-1
 312 550 l 1,73,-1
 344 550 l 1,74,-1
 375 550 l 1,75,-1
 375 488 l 1,76,-1
 375 425 l 1,77,-1
 406 425 l 1,78,-1
 438 425 l 1,79,-1
 438 394 l 1,80,-1
 438 362 l 1,81,-1
 469 362 l 1,82,-1
 500 362 l 1,83,-1
 500 300 l 1,84,-1
 500 238 l 1,85,-1
 469 238 l 1,86,-1
 438 238 l 1,87,-1
 438 206 l 1,88,-1
 438 175 l 1,89,-1
 406 175 l 1,90,-1
 375 175 l 1,91,-1
 375 112 l 1,92,-1
 375 50 l 1,93,-1
 344 50 l 1,94,-1
 312 50 l 1,95,-1
 312 -12 l 1,96,-1
 312 -75 l 1,97,-1
 281 -75 l 1,98,-1
 250 -75 l 1,99,-1
 250 -106 l 1,100,-1
 250 -138 l 1,101,-1
 188 -138 l 1,102,-1
 125 -138 l 1,103,-1
 125 -75 l 1,104,-1
 125 -12 l 1,105,-1
 156 -12 l 1,106,-1
 188 -12 l 1,107,-1
 188 50 l 1,108,-1
 188 112 l 1,109,-1
 219 112 l 1,110,-1
 250 112 l 1,111,-1
 250 175 l 1,112,-1
 250 238 l 1,113,-1
 281 238 l 1,114,-1
 312 238 l 1,115,-1
 312 300 l 1,116,-1
 312 362 l 1,117,-1
 281 362 l 1,118,-1
 250 362 l 1,119,-1
 250 425 l 1,120,-1
 250 488 l 1,121,-1
 219 488 l 1,122,-1
 188 488 l 1,123,-1
 188 550 l 1,124,-1
 188 612 l 1,125,-1
 156 612 l 1,126,-1
 125 612 l 1,127,-1
 125 675 l 1,64,-1
EndSplineSet
MultipleSubs2: "Multiple Substitution lookup 2 subtable" e cartoucheMiddleTok
Substitution2: "'liga' Standard Ligatures in Latin lookup 1 subtable" eTok
EndChar

StartChar: f
Encoding: 102 102 61
Width: 1000
GlyphClass: 1
Flags: W
LayerCount: 2
Fore
SplineSet
562 206 m 1,0,-1
 562 238 l 1,1,-1
 531 238 l 1,2,-1
 500 238 l 1,3,-1
 500 206 l 1,4,-1
 500 175 l 1,5,-1
 469 175 l 1,6,-1
 438 175 l 1,7,-1
 438 50 l 1,8,-1
 438 -75 l 1,9,-1
 500 -75 l 1,10,-1
 562 -75 l 1,11,-1
 562 -44 l 1,12,-1
 562 -12 l 1,13,-1
 594 -12 l 1,14,-1
 625 -12 l 1,15,-1
 625 81 l 1,16,-1
 625 175 l 1,17,-1
 594 175 l 1,18,-1
 562 175 l 1,19,-1
 562 206 l 1,0,-1
250 300 m 1,20,-1
 250 362 l 1,21,-1
 312 362 l 1,22,-1
 375 362 l 1,23,-1
 375 331 l 1,24,-1
 375 300 l 1,25,-1
 406 300 l 1,26,-1
 438 300 l 1,27,-1
 438 331 l 1,28,-1
 438 362 l 1,29,-1
 531 362 l 1,30,-1
 625 362 l 1,31,-1
 625 331 l 1,32,-1
 625 300 l 1,33,-1
 656 300 l 1,34,-1
 688 300 l 1,35,-1
 688 269 l 1,36,-1
 688 238 l 1,37,-1
 719 238 l 1,38,-1
 750 238 l 1,39,-1
 750 81 l 1,40,-1
 750 -75 l 1,41,-1
 719 -75 l 1,42,-1
 688 -75 l 1,43,-1
 688 -106 l 1,44,-1
 688 -138 l 1,45,-1
 656 -138 l 1,46,-1
 625 -138 l 1,47,-1
 625 -169 l 1,48,-1
 625 -200 l 1,49,-1
 531 -200 l 1,50,-1
 438 -200 l 1,51,-1
 438 -325 l 1,52,-1
 438 -450 l 1,53,-1
 375 -450 l 1,54,-1
 312 -450 l 1,55,-1
 312 -106 l 1,56,-1
 312 238 l 1,57,-1
 281 238 l 1,58,-1
 250 238 l 1,59,-1
 250 300 l 1,20,-1
EndSplineSet
EndChar

StartChar: g
Encoding: 103 103 62
Width: 1000
GlyphClass: 1
Flags: W
LayerCount: 2
Fore
SplineSet
312 206 m 1,0,-1
 312 612 l 1,1,-1
 375 612 l 1,2,-1
 438 612 l 1,3,-1
 438 394 l 1,4,-1
 438 175 l 1,5,-1
 469 175 l 1,6,-1
 500 175 l 1,7,-1
 500 206 l 1,8,-1
 500 238 l 1,9,-1
 531 238 l 1,10,-1
 562 238 l 1,11,-1
 562 269 l 1,12,-1
 562 300 l 1,13,-1
 594 300 l 1,14,-1
 625 300 l 1,15,-1
 625 331 l 1,16,-1
 625 362 l 1,17,-1
 688 362 l 1,18,-1
 750 362 l 1,19,-1
 750 300 l 1,20,-1
 750 238 l 1,21,-1
 719 238 l 1,22,-1
 688 238 l 1,23,-1
 688 206 l 1,24,-1
 688 175 l 1,25,-1
 656 175 l 1,26,-1
 625 175 l 1,27,-1
 625 144 l 1,28,-1
 625 112 l 1,29,-1
 594 112 l 1,30,-1
 562 112 l 1,31,-1
 562 81 l 1,32,-1
 562 50 l 1,33,-1
 594 50 l 1,34,-1
 625 50 l 1,35,-1
 625 19 l 1,36,-1
 625 -12 l 1,37,-1
 656 -12 l 1,38,-1
 688 -12 l 1,39,-1
 688 -44 l 1,40,-1
 688 -75 l 1,41,-1
 719 -75 l 1,42,-1
 750 -75 l 1,43,-1
 750 -138 l 1,44,-1
 750 -200 l 1,45,-1
 688 -200 l 1,46,-1
 625 -200 l 1,47,-1
 625 -169 l 1,48,-1
 625 -138 l 1,49,-1
 594 -138 l 1,50,-1
 562 -138 l 1,51,-1
 562 -106 l 1,52,-1
 562 -75 l 1,53,-1
 531 -75 l 1,54,-1
 500 -75 l 1,55,-1
 500 -44 l 1,56,-1
 500 -12 l 1,57,-1
 469 -12 l 1,58,-1
 438 -12 l 1,59,-1
 438 -106 l 1,60,-1
 438 -200 l 1,61,-1
 375 -200 l 1,62,-1
 312 -200 l 1,63,-1
 312 206 l 1,0,-1
EndSplineSet
EndChar

StartChar: h
Encoding: 104 104 63
Width: 1000
GlyphClass: 1
Flags: W
LayerCount: 2
Fore
SplineSet
312 206 m 1,0,-1
 312 612 l 1,1,-1
 375 612 l 1,2,-1
 438 612 l 1,3,-1
 438 394 l 1,4,-1
 438 175 l 1,5,-1
 469 175 l 1,6,-1
 500 175 l 1,7,-1
 500 206 l 1,8,-1
 500 238 l 1,9,-1
 531 238 l 1,10,-1
 562 238 l 1,11,-1
 562 269 l 1,12,-1
 562 300 l 1,13,-1
 594 300 l 1,14,-1
 625 300 l 1,15,-1
 625 331 l 1,16,-1
 625 362 l 1,17,-1
 688 362 l 1,18,-1
 750 362 l 1,19,-1
 750 300 l 1,20,-1
 750 238 l 1,21,-1
 719 238 l 1,22,-1
 688 238 l 1,23,-1
 688 206 l 1,24,-1
 688 175 l 1,25,-1
 656 175 l 1,26,-1
 625 175 l 1,27,-1
 625 144 l 1,28,-1
 625 112 l 1,29,-1
 594 112 l 1,30,-1
 562 112 l 1,31,-1
 562 81 l 1,32,-1
 562 50 l 1,33,-1
 594 50 l 1,34,-1
 625 50 l 1,35,-1
 625 19 l 1,36,-1
 625 -12 l 1,37,-1
 656 -12 l 1,38,-1
 688 -12 l 1,39,-1
 688 -44 l 1,40,-1
 688 -75 l 1,41,-1
 719 -75 l 1,42,-1
 750 -75 l 1,43,-1
 750 -138 l 1,44,-1
 750 -200 l 1,45,-1
 688 -200 l 1,46,-1
 625 -200 l 1,47,-1
 625 -169 l 1,48,-1
 625 -138 l 1,49,-1
 594 -138 l 1,50,-1
 562 -138 l 1,51,-1
 562 -106 l 1,52,-1
 562 -75 l 1,53,-1
 531 -75 l 1,54,-1
 500 -75 l 1,55,-1
 500 -44 l 1,56,-1
 500 -12 l 1,57,-1
 469 -12 l 1,58,-1
 438 -12 l 1,59,-1
 438 -106 l 1,60,-1
 438 -200 l 1,61,-1
 375 -200 l 1,62,-1
 312 -200 l 1,63,-1
 312 206 l 1,0,-1
EndSplineSet
EndChar

StartChar: i
Encoding: 105 105 64
Width: 1000
GlyphClass: 1
Flags: W
LayerCount: 2
Fore
SplineSet
438 50 m 1,0,-1
 438 238 l 1,1,-1
 500 238 l 1,2,-1
 562 238 l 1,3,-1
 562 81 l 1,4,-1
 562 -75 l 1,5,-1
 594 -75 l 1,6,-1
 625 -75 l 1,7,-1
 625 -138 l 1,8,-1
 625 -200 l 1,9,-1
 562 -200 l 1,10,-1
 500 -200 l 1,11,-1
 500 -169 l 1,12,-1
 500 -138 l 1,13,-1
 469 -138 l 1,14,-1
 438 -138 l 1,15,-1
 438 50 l 1,0,-1
438 362 m 1,16,-1
 438 425 l 1,17,-1
 500 425 l 1,18,-1
 562 425 l 1,19,-1
 562 362 l 1,20,-1
 562 300 l 1,21,-1
 500 300 l 1,22,-1
 438 300 l 1,23,-1
 438 362 l 1,16,-1
EndSplineSet
MultipleSubs2: "Multiple Substitution lookup 2 subtable" i cartoucheMiddleTok
EndChar

StartChar: j
Encoding: 106 106 65
Width: 1000
GlyphClass: 1
Flags: W
LayerCount: 2
Fore
SplineSet
438 -44 m 1,0,-1
 438 238 l 1,1,-1
 500 238 l 1,2,-1
 562 238 l 1,3,-1
 562 -75 l 1,4,-1
 562 -388 l 1,5,-1
 531 -388 l 1,6,-1
 500 -388 l 1,7,-1
 500 -419 l 1,8,-1
 500 -450 l 1,9,-1
 438 -450 l 1,10,-1
 375 -450 l 1,11,-1
 375 -388 l 1,12,-1
 375 -325 l 1,13,-1
 406 -325 l 1,14,-1
 438 -325 l 1,15,-1
 438 -44 l 1,0,-1
438 362 m 1,16,-1
 438 425 l 1,17,-1
 500 425 l 1,18,-1
 562 425 l 1,19,-1
 562 362 l 1,20,-1
 562 300 l 1,21,-1
 500 300 l 1,22,-1
 438 300 l 1,23,-1
 438 362 l 1,16,-1
EndSplineSet
MultipleSubs2: "Multiple Substitution lookup 2 subtable" j cartoucheMiddleTok
EndChar

StartChar: k
Encoding: 107 107 66
Width: 1000
GlyphClass: 1
Flags: W
LayerCount: 2
Fore
SplineSet
312 206 m 1,0,-1
 312 612 l 1,1,-1
 375 612 l 1,2,-1
 438 612 l 1,3,-1
 438 394 l 1,4,-1
 438 175 l 1,5,-1
 469 175 l 1,6,-1
 500 175 l 1,7,-1
 500 206 l 1,8,-1
 500 238 l 1,9,-1
 531 238 l 1,10,-1
 562 238 l 1,11,-1
 562 269 l 1,12,-1
 562 300 l 1,13,-1
 594 300 l 1,14,-1
 625 300 l 1,15,-1
 625 331 l 1,16,-1
 625 362 l 1,17,-1
 688 362 l 1,18,-1
 750 362 l 1,19,-1
 750 300 l 1,20,-1
 750 238 l 1,21,-1
 719 238 l 1,22,-1
 688 238 l 1,23,-1
 688 206 l 1,24,-1
 688 175 l 1,25,-1
 656 175 l 1,26,-1
 625 175 l 1,27,-1
 625 144 l 1,28,-1
 625 112 l 1,29,-1
 594 112 l 1,30,-1
 562 112 l 1,31,-1
 562 81 l 1,32,-1
 562 50 l 1,33,-1
 594 50 l 1,34,-1
 625 50 l 1,35,-1
 625 19 l 1,36,-1
 625 -12 l 1,37,-1
 656 -12 l 1,38,-1
 688 -12 l 1,39,-1
 688 -44 l 1,40,-1
 688 -75 l 1,41,-1
 719 -75 l 1,42,-1
 750 -75 l 1,43,-1
 750 -138 l 1,44,-1
 750 -200 l 1,45,-1
 688 -200 l 1,46,-1
 625 -200 l 1,47,-1
 625 -169 l 1,48,-1
 625 -138 l 1,49,-1
 594 -138 l 1,50,-1
 562 -138 l 1,51,-1
 562 -106 l 1,52,-1
 562 -75 l 1,53,-1
 531 -75 l 1,54,-1
 500 -75 l 1,55,-1
 500 -44 l 1,56,-1
 500 -12 l 1,57,-1
 469 -12 l 1,58,-1
 438 -12 l 1,59,-1
 438 -106 l 1,60,-1
 438 -200 l 1,61,-1
 375 -200 l 1,62,-1
 312 -200 l 1,63,-1
 312 206 l 1,0,-1
EndSplineSet
MultipleSubs2: "Multiple Substitution lookup 2 subtable" k cartoucheMiddleTok
EndChar

StartChar: l
Encoding: 108 108 67
Width: 1000
GlyphClass: 1
Flags: W
LayerCount: 2
Fore
SplineSet
438 238 m 1,0,-1
 438 612 l 1,1,-1
 500 612 l 1,2,-1
 562 612 l 1,3,-1
 562 269 l 1,4,-1
 562 -75 l 1,5,-1
 594 -75 l 1,6,-1
 625 -75 l 1,7,-1
 625 -138 l 1,8,-1
 625 -200 l 1,9,-1
 562 -200 l 1,10,-1
 500 -200 l 1,11,-1
 500 -169 l 1,12,-1
 500 -138 l 1,13,-1
 469 -138 l 1,14,-1
 438 -138 l 1,15,-1
 438 238 l 1,0,-1
EndSplineSet
MultipleSubs2: "Multiple Substitution lookup 2 subtable" l cartoucheMiddleTok
EndChar

StartChar: m
Encoding: 109 109 68
Width: 1000
GlyphClass: 1
Flags: W
LayerCount: 2
Fore
SplineSet
62 300 m 1,0,-1
 62 362 l 1,1,-1
 125 362 l 1,2,-1
 188 362 l 1,3,-1
 188 331 l 1,4,-1
 188 300 l 1,5,-1
 219 300 l 1,6,-1
 250 300 l 1,7,-1
 250 331 l 1,8,-1
 250 362 l 1,9,-1
 344 362 l 1,10,-1
 438 362 l 1,11,-1
 438 331 l 1,12,-1
 438 300 l 1,13,-1
 500 300 l 1,14,-1
 562 300 l 1,15,-1
 562 331 l 1,16,-1
 562 362 l 1,17,-1
 656 362 l 1,18,-1
 750 362 l 1,19,-1
 750 331 l 1,20,-1
 750 300 l 1,21,-1
 781 300 l 1,22,-1
 812 300 l 1,23,-1
 812 269 l 1,24,-1
 812 238 l 1,25,-1
 844 238 l 1,26,-1
 875 238 l 1,27,-1
 875 19 l 1,28,-1
 875 -200 l 1,29,-1
 812 -200 l 1,30,-1
 750 -200 l 1,31,-1
 750 -12 l 1,32,-1
 750 175 l 1,33,-1
 719 175 l 1,34,-1
 688 175 l 1,35,-1
 688 206 l 1,36,-1
 688 238 l 1,37,-1
 656 238 l 1,38,-1
 625 238 l 1,39,-1
 625 206 l 1,40,-1
 625 175 l 1,41,-1
 594 175 l 1,42,-1
 562 175 l 1,43,-1
 562 -12 l 1,44,-1
 562 -200 l 1,45,-1
 500 -200 l 1,46,-1
 438 -200 l 1,47,-1
 438 -12 l 1,48,-1
 438 175 l 1,49,-1
 406 175 l 1,50,-1
 375 175 l 1,51,-1
 375 206 l 1,52,-1
 375 238 l 1,53,-1
 344 238 l 1,54,-1
 312 238 l 1,55,-1
 312 206 l 1,56,-1
 312 175 l 1,57,-1
 281 175 l 1,58,-1
 250 175 l 1,59,-1
 250 -12 l 1,60,-1
 250 -200 l 1,61,-1
 188 -200 l 1,62,-1
 125 -200 l 1,63,-1
 125 19 l 1,64,-1
 125 238 l 1,65,-1
 94 238 l 1,66,-1
 62 238 l 1,67,-1
 62 300 l 1,0,-1
EndSplineSet
MultipleSubs2: "Multiple Substitution lookup 2 subtable" m cartoucheMiddleTok
EndChar

StartChar: n
Encoding: 110 110 69
Width: 1000
GlyphClass: 1
Flags: W
LayerCount: 2
Fore
SplineSet
312 19 m 1,0,-1
 312 175 l 1,1,-1
 469 175 l 1,2,-1
 625 175 l 1,3,-1
 625 144 l 1,4,-1
 625 112 l 1,5,-1
 656 112 l 1,6,-1
 688 112 l 1,7,-1
 688 -12 l 1,8,-1
 688 -138 l 1,9,-1
 625 -138 l 1,10,-1
 562 -138 l 1,11,-1
 562 -44 l 1,12,-1
 562 50 l 1,13,-1
 500 50 l 1,14,-1
 438 50 l 1,15,-1
 438 -44 l 1,16,-1
 438 -138 l 1,17,-1
 375 -138 l 1,18,-1
 312 -138 l 1,19,-1
 312 19 l 1,0,-1
438 488 m 1,20,-1
 438 738 l 1,21,-1
 500 738 l 1,22,-1
 562 738 l 1,23,-1
 562 488 l 1,24,-1
 562 238 l 1,25,-1
 500 238 l 1,26,-1
 438 238 l 1,27,-1
 438 488 l 1,20,-1
EndSplineSet
MultipleSubs2: "Multiple Substitution lookup 2 subtable" n cartoucheMiddleTok
Substitution2: "'liga' Standard Ligatures in Latin lookup 1 subtable" nTok
EndChar

StartChar: o
Encoding: 111 111 70
Width: 1000
GlyphClass: 1
Flags: W
LayerCount: 2
Fore
SplineSet
562 50 m 1,0,-1
 562 112 l 1,1,-1
 500 112 l 1,2,-1
 438 112 l 1,3,-1
 438 50 l 1,4,-1
 438 -12 l 1,5,-1
 500 -12 l 1,6,-1
 562 -12 l 1,7,-1
 562 50 l 1,0,-1
438 206 m 1,8,-1
 438 238 l 1,9,-1
 500 238 l 1,10,-1
 562 238 l 1,11,-1
 562 206 l 1,12,-1
 562 175 l 1,13,-1
 594 175 l 1,14,-1
 625 175 l 1,15,-1
 625 144 l 1,16,-1
 625 112 l 1,17,-1
 656 112 l 1,18,-1
 688 112 l 1,19,-1
 688 50 l 1,20,-1
 688 -12 l 1,21,-1
 656 -12 l 1,22,-1
 625 -12 l 1,23,-1
 625 -44 l 1,24,-1
 625 -75 l 1,25,-1
 594 -75 l 1,26,-1
 562 -75 l 1,27,-1
 562 -106 l 1,28,-1
 562 -138 l 1,29,-1
 500 -138 l 1,30,-1
 438 -138 l 1,31,-1
 438 -106 l 1,32,-1
 438 -75 l 1,33,-1
 406 -75 l 1,34,-1
 375 -75 l 1,35,-1
 375 -44 l 1,36,-1
 375 -12 l 1,37,-1
 344 -12 l 1,38,-1
 312 -12 l 1,39,-1
 312 50 l 1,40,-1
 312 112 l 1,41,-1
 344 112 l 1,42,-1
 375 112 l 1,43,-1
 375 144 l 1,44,-1
 375 175 l 1,45,-1
 406 175 l 1,46,-1
 438 175 l 1,47,-1
 438 206 l 1,8,-1
438 519 m 1,48,-1
 438 738 l 1,49,-1
 500 738 l 1,50,-1
 562 738 l 1,51,-1
 562 519 l 1,52,-1
 562 300 l 1,53,-1
 500 300 l 1,54,-1
 438 300 l 1,55,-1
 438 519 l 1,48,-1
EndSplineSet
MultipleSubs2: "Multiple Substitution lookup 2 subtable" o cartoucheMiddleTok
Substitution2: "'liga' Standard Ligatures in Latin lookup 1 subtable" oTok
EndChar

StartChar: p
Encoding: 112 112 71
Width: 1000
GlyphClass: 1
Flags: W
LayerCount: 2
Fore
SplineSet
562 206 m 1,0,-1
 562 238 l 1,1,-1
 531 238 l 1,2,-1
 500 238 l 1,3,-1
 500 206 l 1,4,-1
 500 175 l 1,5,-1
 469 175 l 1,6,-1
 438 175 l 1,7,-1
 438 50 l 1,8,-1
 438 -75 l 1,9,-1
 500 -75 l 1,10,-1
 562 -75 l 1,11,-1
 562 -44 l 1,12,-1
 562 -12 l 1,13,-1
 594 -12 l 1,14,-1
 625 -12 l 1,15,-1
 625 81 l 1,16,-1
 625 175 l 1,17,-1
 594 175 l 1,18,-1
 562 175 l 1,19,-1
 562 206 l 1,0,-1
250 300 m 1,20,-1
 250 362 l 1,21,-1
 312 362 l 1,22,-1
 375 362 l 1,23,-1
 375 331 l 1,24,-1
 375 300 l 1,25,-1
 406 300 l 1,26,-1
 438 300 l 1,27,-1
 438 331 l 1,28,-1
 438 362 l 1,29,-1
 531 362 l 1,30,-1
 625 362 l 1,31,-1
 625 331 l 1,32,-1
 625 300 l 1,33,-1
 656 300 l 1,34,-1
 688 300 l 1,35,-1
 688 269 l 1,36,-1
 688 238 l 1,37,-1
 719 238 l 1,38,-1
 750 238 l 1,39,-1
 750 81 l 1,40,-1
 750 -75 l 1,41,-1
 719 -75 l 1,42,-1
 688 -75 l 1,43,-1
 688 -106 l 1,44,-1
 688 -138 l 1,45,-1
 656 -138 l 1,46,-1
 625 -138 l 1,47,-1
 625 -169 l 1,48,-1
 625 -200 l 1,49,-1
 531 -200 l 1,50,-1
 438 -200 l 1,51,-1
 438 -325 l 1,52,-1
 438 -450 l 1,53,-1
 375 -450 l 1,54,-1
 312 -450 l 1,55,-1
 312 -106 l 1,56,-1
 312 238 l 1,57,-1
 281 238 l 1,58,-1
 250 238 l 1,59,-1
 250 300 l 1,20,-1
EndSplineSet
MultipleSubs2: "Multiple Substitution lookup 2 subtable" p cartoucheMiddleTok
EndChar

StartChar: q
Encoding: 113 113 72
Width: 1000
GlyphClass: 1
Flags: W
LayerCount: 2
Fore
SplineSet
312 206 m 1,0,-1
 312 612 l 1,1,-1
 375 612 l 1,2,-1
 438 612 l 1,3,-1
 438 394 l 1,4,-1
 438 175 l 1,5,-1
 469 175 l 1,6,-1
 500 175 l 1,7,-1
 500 206 l 1,8,-1
 500 238 l 1,9,-1
 531 238 l 1,10,-1
 562 238 l 1,11,-1
 562 269 l 1,12,-1
 562 300 l 1,13,-1
 594 300 l 1,14,-1
 625 300 l 1,15,-1
 625 331 l 1,16,-1
 625 362 l 1,17,-1
 688 362 l 1,18,-1
 750 362 l 1,19,-1
 750 300 l 1,20,-1
 750 238 l 1,21,-1
 719 238 l 1,22,-1
 688 238 l 1,23,-1
 688 206 l 1,24,-1
 688 175 l 1,25,-1
 656 175 l 1,26,-1
 625 175 l 1,27,-1
 625 144 l 1,28,-1
 625 112 l 1,29,-1
 594 112 l 1,30,-1
 562 112 l 1,31,-1
 562 81 l 1,32,-1
 562 50 l 1,33,-1
 594 50 l 1,34,-1
 625 50 l 1,35,-1
 625 19 l 1,36,-1
 625 -12 l 1,37,-1
 656 -12 l 1,38,-1
 688 -12 l 1,39,-1
 688 -44 l 1,40,-1
 688 -75 l 1,41,-1
 719 -75 l 1,42,-1
 750 -75 l 1,43,-1
 750 -138 l 1,44,-1
 750 -200 l 1,45,-1
 688 -200 l 1,46,-1
 625 -200 l 1,47,-1
 625 -169 l 1,48,-1
 625 -138 l 1,49,-1
 594 -138 l 1,50,-1
 562 -138 l 1,51,-1
 562 -106 l 1,52,-1
 562 -75 l 1,53,-1
 531 -75 l 1,54,-1
 500 -75 l 1,55,-1
 500 -44 l 1,56,-1
 500 -12 l 1,57,-1
 469 -12 l 1,58,-1
 438 -12 l 1,59,-1
 438 -106 l 1,60,-1
 438 -200 l 1,61,-1
 375 -200 l 1,62,-1
 312 -200 l 1,63,-1
 312 206 l 1,0,-1
EndSplineSet
EndChar

StartChar: r
Encoding: 114 114 73
Width: 1000
GlyphClass: 1
Flags: W
LayerCount: 2
Fore
SplineSet
188 269 m 1,0,-1
 188 362 l 1,1,-1
 250 362 l 1,2,-1
 312 362 l 1,3,-1
 312 300 l 1,4,-1
 312 238 l 1,5,-1
 344 238 l 1,6,-1
 375 238 l 1,7,-1
 375 144 l 1,8,-1
 375 50 l 1,9,-1
 406 50 l 1,10,-1
 438 50 l 1,11,-1
 438 81 l 1,12,-1
 438 112 l 1,13,-1
 500 112 l 1,14,-1
 562 112 l 1,15,-1
 562 81 l 1,16,-1
 562 50 l 1,17,-1
 594 50 l 1,18,-1
 625 50 l 1,19,-1
 625 144 l 1,20,-1
 625 238 l 1,21,-1
 656 238 l 1,22,-1
 688 238 l 1,23,-1
 688 300 l 1,24,-1
 688 362 l 1,25,-1
 750 362 l 1,26,-1
 812 362 l 1,27,-1
 812 269 l 1,28,-1
 812 175 l 1,29,-1
 781 175 l 1,30,-1
 750 175 l 1,31,-1
 750 81 l 1,32,-1
 750 -12 l 1,33,-1
 719 -12 l 1,34,-1
 688 -12 l 1,35,-1
 688 -106 l 1,36,-1
 688 -200 l 1,37,-1
 625 -200 l 1,38,-1
 562 -200 l 1,39,-1
 562 -138 l 1,40,-1
 562 -75 l 1,41,-1
 500 -75 l 1,42,-1
 438 -75 l 1,43,-1
 438 -138 l 1,44,-1
 438 -200 l 1,45,-1
 375 -200 l 1,46,-1
 312 -200 l 1,47,-1
 312 -106 l 1,48,-1
 312 -12 l 1,49,-1
 281 -12 l 1,50,-1
 250 -12 l 1,51,-1
 250 81 l 1,52,-1
 250 175 l 1,53,-1
 219 175 l 1,54,-1
 188 175 l 1,55,-1
 188 269 l 1,0,-1
EndSplineSet
EndChar

StartChar: s
Encoding: 115 115 74
Width: 1000
GlyphClass: 1
Flags: W
LayerCount: 2
Fore
SplineSet
562 -44 m 1,0,-1
 562 -12 l 1,1,-1
 531 -12 l 1,2,-1
 500 -12 l 1,3,-1
 500 -44 l 1,4,-1
 500 -75 l 1,5,-1
 531 -75 l 1,6,-1
 562 -75 l 1,7,-1
 562 -44 l 1,0,-1
562 206 m 1,8,-1
 562 238 l 1,9,-1
 531 238 l 1,10,-1
 500 238 l 1,11,-1
 500 206 l 1,12,-1
 500 175 l 1,13,-1
 531 175 l 1,14,-1
 562 175 l 1,15,-1
 562 206 l 1,8,-1
438 331 m 1,16,-1
 438 362 l 1,17,-1
 531 362 l 1,18,-1
 625 362 l 1,19,-1
 625 331 l 1,20,-1
 625 300 l 1,21,-1
 656 300 l 1,22,-1
 688 300 l 1,23,-1
 688 269 l 1,24,-1
 688 238 l 1,25,-1
 719 238 l 1,26,-1
 750 238 l 1,27,-1
 750 206 l 1,28,-1
 750 175 l 1,29,-1
 656 175 l 1,30,-1
 562 175 l 1,31,-1
 562 144 l 1,32,-1
 562 112 l 1,33,-1
 625 112 l 1,34,-1
 688 112 l 1,35,-1
 688 81 l 1,36,-1
 688 50 l 1,37,-1
 719 50 l 1,38,-1
 750 50 l 1,39,-1
 750 -12 l 1,40,-1
 750 -75 l 1,41,-1
 719 -75 l 1,42,-1
 688 -75 l 1,43,-1
 688 -106 l 1,44,-1
 688 -138 l 1,45,-1
 656 -138 l 1,46,-1
 625 -138 l 1,47,-1
 625 -169 l 1,48,-1
 625 -200 l 1,49,-1
 531 -200 l 1,50,-1
 438 -200 l 1,51,-1
 438 -169 l 1,52,-1
 438 -138 l 1,53,-1
 406 -138 l 1,54,-1
 375 -138 l 1,55,-1
 375 -106 l 1,56,-1
 375 -75 l 1,57,-1
 344 -75 l 1,58,-1
 312 -75 l 1,59,-1
 312 -44 l 1,60,-1
 312 -12 l 1,61,-1
 406 -12 l 1,62,-1
 500 -12 l 1,63,-1
 500 19 l 1,64,-1
 500 50 l 1,65,-1
 438 50 l 1,66,-1
 375 50 l 1,67,-1
 375 81 l 1,68,-1
 375 112 l 1,69,-1
 344 112 l 1,70,-1
 312 112 l 1,71,-1
 312 175 l 1,72,-1
 312 238 l 1,73,-1
 344 238 l 1,74,-1
 375 238 l 1,75,-1
 375 269 l 1,76,-1
 375 300 l 1,77,-1
 406 300 l 1,78,-1
 438 300 l 1,79,-1
 438 331 l 1,16,-1
EndSplineSet
MultipleSubs2: "Multiple Substitution lookup 2 subtable" s cartoucheMiddleTok
EndChar

StartChar: t
Encoding: 116 116 75
Width: 1000
GlyphClass: 1
Flags: W
LayerCount: 2
Fore
SplineSet
375 394 m 1,0,-1
 375 488 l 1,1,-1
 438 488 l 1,2,-1
 500 488 l 1,3,-1
 500 394 l 1,4,-1
 500 300 l 1,5,-1
 625 300 l 1,6,-1
 750 300 l 1,7,-1
 750 238 l 1,8,-1
 750 175 l 1,9,-1
 625 175 l 1,10,-1
 500 175 l 1,11,-1
 500 50 l 1,12,-1
 500 -75 l 1,13,-1
 562 -75 l 1,14,-1
 625 -75 l 1,15,-1
 625 -44 l 1,16,-1
 625 -12 l 1,17,-1
 688 -12 l 1,18,-1
 750 -12 l 1,19,-1
 750 -75 l 1,20,-1
 750 -138 l 1,21,-1
 719 -138 l 1,22,-1
 688 -138 l 1,23,-1
 688 -169 l 1,24,-1
 688 -200 l 1,25,-1
 562 -200 l 1,26,-1
 438 -200 l 1,27,-1
 438 -169 l 1,28,-1
 438 -138 l 1,29,-1
 406 -138 l 1,30,-1
 375 -138 l 1,31,-1
 375 19 l 1,32,-1
 375 175 l 1,33,-1
 344 175 l 1,34,-1
 312 175 l 1,35,-1
 312 238 l 1,36,-1
 312 300 l 1,37,-1
 344 300 l 1,38,-1
 375 300 l 1,39,-1
 375 394 l 1,0,-1
EndSplineSet
MultipleSubs2: "Multiple Substitution lookup 2 subtable" t cartoucheMiddleTok
EndChar

StartChar: u
Encoding: 117 117 76
Width: 1000
GlyphClass: 1
Flags: W
LayerCount: 2
Fore
SplineSet
250 144 m 1,0,-1
 250 362 l 1,1,-1
 312 362 l 1,2,-1
 375 362 l 1,3,-1
 375 175 l 1,4,-1
 375 -12 l 1,5,-1
 406 -12 l 1,6,-1
 438 -12 l 1,7,-1
 438 -44 l 1,8,-1
 438 -75 l 1,9,-1
 469 -75 l 1,10,-1
 500 -75 l 1,11,-1
 500 -44 l 1,12,-1
 500 -12 l 1,13,-1
 531 -12 l 1,14,-1
 562 -12 l 1,15,-1
 562 175 l 1,16,-1
 562 362 l 1,17,-1
 625 362 l 1,18,-1
 688 362 l 1,19,-1
 688 144 l 1,20,-1
 688 -75 l 1,21,-1
 719 -75 l 1,22,-1
 750 -75 l 1,23,-1
 750 -138 l 1,24,-1
 750 -200 l 1,25,-1
 688 -200 l 1,26,-1
 625 -200 l 1,27,-1
 625 -169 l 1,28,-1
 625 -138 l 1,29,-1
 594 -138 l 1,30,-1
 562 -138 l 1,31,-1
 562 -169 l 1,32,-1
 562 -200 l 1,33,-1
 469 -200 l 1,34,-1
 375 -200 l 1,35,-1
 375 -169 l 1,36,-1
 375 -138 l 1,37,-1
 344 -138 l 1,38,-1
 312 -138 l 1,39,-1
 312 -106 l 1,40,-1
 312 -75 l 1,41,-1
 281 -75 l 1,42,-1
 250 -75 l 1,43,-1
 250 144 l 1,0,-1
EndSplineSet
MultipleSubs2: "Multiple Substitution lookup 2 subtable" u cartoucheMiddleTok
EndChar

StartChar: v
Encoding: 118 118 77
Width: 1000
GlyphClass: 1
Flags: W
LayerCount: 2
Fore
SplineSet
188 269 m 1,0,-1
 188 362 l 1,1,-1
 250 362 l 1,2,-1
 312 362 l 1,3,-1
 312 300 l 1,4,-1
 312 238 l 1,5,-1
 344 238 l 1,6,-1
 375 238 l 1,7,-1
 375 144 l 1,8,-1
 375 50 l 1,9,-1
 406 50 l 1,10,-1
 438 50 l 1,11,-1
 438 81 l 1,12,-1
 438 112 l 1,13,-1
 500 112 l 1,14,-1
 562 112 l 1,15,-1
 562 81 l 1,16,-1
 562 50 l 1,17,-1
 594 50 l 1,18,-1
 625 50 l 1,19,-1
 625 144 l 1,20,-1
 625 238 l 1,21,-1
 656 238 l 1,22,-1
 688 238 l 1,23,-1
 688 300 l 1,24,-1
 688 362 l 1,25,-1
 750 362 l 1,26,-1
 812 362 l 1,27,-1
 812 269 l 1,28,-1
 812 175 l 1,29,-1
 781 175 l 1,30,-1
 750 175 l 1,31,-1
 750 81 l 1,32,-1
 750 -12 l 1,33,-1
 719 -12 l 1,34,-1
 688 -12 l 1,35,-1
 688 -106 l 1,36,-1
 688 -200 l 1,37,-1
 625 -200 l 1,38,-1
 562 -200 l 1,39,-1
 562 -138 l 1,40,-1
 562 -75 l 1,41,-1
 500 -75 l 1,42,-1
 438 -75 l 1,43,-1
 438 -138 l 1,44,-1
 438 -200 l 1,45,-1
 375 -200 l 1,46,-1
 312 -200 l 1,47,-1
 312 -106 l 1,48,-1
 312 -12 l 1,49,-1
 281 -12 l 1,50,-1
 250 -12 l 1,51,-1
 250 81 l 1,52,-1
 250 175 l 1,53,-1
 219 175 l 1,54,-1
 188 175 l 1,55,-1
 188 269 l 1,0,-1
EndSplineSet
EndChar

StartChar: w
Encoding: 119 119 78
Width: 1000
GlyphClass: 1
Flags: W
LayerCount: 2
Fore
SplineSet
188 269 m 1,0,-1
 188 362 l 1,1,-1
 250 362 l 1,2,-1
 312 362 l 1,3,-1
 312 300 l 1,4,-1
 312 238 l 1,5,-1
 344 238 l 1,6,-1
 375 238 l 1,7,-1
 375 144 l 1,8,-1
 375 50 l 1,9,-1
 406 50 l 1,10,-1
 438 50 l 1,11,-1
 438 81 l 1,12,-1
 438 112 l 1,13,-1
 500 112 l 1,14,-1
 562 112 l 1,15,-1
 562 81 l 1,16,-1
 562 50 l 1,17,-1
 594 50 l 1,18,-1
 625 50 l 1,19,-1
 625 144 l 1,20,-1
 625 238 l 1,21,-1
 656 238 l 1,22,-1
 688 238 l 1,23,-1
 688 300 l 1,24,-1
 688 362 l 1,25,-1
 750 362 l 1,26,-1
 812 362 l 1,27,-1
 812 269 l 1,28,-1
 812 175 l 1,29,-1
 781 175 l 1,30,-1
 750 175 l 1,31,-1
 750 81 l 1,32,-1
 750 -12 l 1,33,-1
 719 -12 l 1,34,-1
 688 -12 l 1,35,-1
 688 -106 l 1,36,-1
 688 -200 l 1,37,-1
 625 -200 l 1,38,-1
 562 -200 l 1,39,-1
 562 -138 l 1,40,-1
 562 -75 l 1,41,-1
 500 -75 l 1,42,-1
 438 -75 l 1,43,-1
 438 -138 l 1,44,-1
 438 -200 l 1,45,-1
 375 -200 l 1,46,-1
 312 -200 l 1,47,-1
 312 -106 l 1,48,-1
 312 -12 l 1,49,-1
 281 -12 l 1,50,-1
 250 -12 l 1,51,-1
 250 81 l 1,52,-1
 250 175 l 1,53,-1
 219 175 l 1,54,-1
 188 175 l 1,55,-1
 188 269 l 1,0,-1
EndSplineSet
MultipleSubs2: "Multiple Substitution lookup 2 subtable" w cartoucheMiddleTok
EndChar

StartChar: x
Encoding: 120 120 79
Width: 1000
GlyphClass: 1
Flags: W
LayerCount: 2
Fore
SplineSet
562 -44 m 1,0,-1
 562 -12 l 1,1,-1
 531 -12 l 1,2,-1
 500 -12 l 1,3,-1
 500 -44 l 1,4,-1
 500 -75 l 1,5,-1
 531 -75 l 1,6,-1
 562 -75 l 1,7,-1
 562 -44 l 1,0,-1
562 206 m 1,8,-1
 562 238 l 1,9,-1
 531 238 l 1,10,-1
 500 238 l 1,11,-1
 500 206 l 1,12,-1
 500 175 l 1,13,-1
 531 175 l 1,14,-1
 562 175 l 1,15,-1
 562 206 l 1,8,-1
438 331 m 1,16,-1
 438 362 l 1,17,-1
 531 362 l 1,18,-1
 625 362 l 1,19,-1
 625 331 l 1,20,-1
 625 300 l 1,21,-1
 656 300 l 1,22,-1
 688 300 l 1,23,-1
 688 269 l 1,24,-1
 688 238 l 1,25,-1
 719 238 l 1,26,-1
 750 238 l 1,27,-1
 750 206 l 1,28,-1
 750 175 l 1,29,-1
 656 175 l 1,30,-1
 562 175 l 1,31,-1
 562 144 l 1,32,-1
 562 112 l 1,33,-1
 625 112 l 1,34,-1
 688 112 l 1,35,-1
 688 81 l 1,36,-1
 688 50 l 1,37,-1
 719 50 l 1,38,-1
 750 50 l 1,39,-1
 750 -12 l 1,40,-1
 750 -75 l 1,41,-1
 719 -75 l 1,42,-1
 688 -75 l 1,43,-1
 688 -106 l 1,44,-1
 688 -138 l 1,45,-1
 656 -138 l 1,46,-1
 625 -138 l 1,47,-1
 625 -169 l 1,48,-1
 625 -200 l 1,49,-1
 531 -200 l 1,50,-1
 438 -200 l 1,51,-1
 438 -169 l 1,52,-1
 438 -138 l 1,53,-1
 406 -138 l 1,54,-1
 375 -138 l 1,55,-1
 375 -106 l 1,56,-1
 375 -75 l 1,57,-1
 344 -75 l 1,58,-1
 312 -75 l 1,59,-1
 312 -44 l 1,60,-1
 312 -12 l 1,61,-1
 406 -12 l 1,62,-1
 500 -12 l 1,63,-1
 500 19 l 1,64,-1
 500 50 l 1,65,-1
 438 50 l 1,66,-1
 375 50 l 1,67,-1
 375 81 l 1,68,-1
 375 112 l 1,69,-1
 344 112 l 1,70,-1
 312 112 l 1,71,-1
 312 175 l 1,72,-1
 312 238 l 1,73,-1
 344 238 l 1,74,-1
 375 238 l 1,75,-1
 375 269 l 1,76,-1
 375 300 l 1,77,-1
 406 300 l 1,78,-1
 438 300 l 1,79,-1
 438 331 l 1,16,-1
EndSplineSet
EndChar

StartChar: y
Encoding: 121 121 80
Width: 1000
GlyphClass: 1
Flags: W
LayerCount: 2
Fore
SplineSet
438 -44 m 1,0,-1
 438 238 l 1,1,-1
 500 238 l 1,2,-1
 562 238 l 1,3,-1
 562 -75 l 1,4,-1
 562 -388 l 1,5,-1
 531 -388 l 1,6,-1
 500 -388 l 1,7,-1
 500 -419 l 1,8,-1
 500 -450 l 1,9,-1
 438 -450 l 1,10,-1
 375 -450 l 1,11,-1
 375 -388 l 1,12,-1
 375 -325 l 1,13,-1
 406 -325 l 1,14,-1
 438 -325 l 1,15,-1
 438 -44 l 1,0,-1
438 362 m 1,16,-1
 438 425 l 1,17,-1
 500 425 l 1,18,-1
 562 425 l 1,19,-1
 562 362 l 1,20,-1
 562 300 l 1,21,-1
 500 300 l 1,22,-1
 438 300 l 1,23,-1
 438 362 l 1,16,-1
EndSplineSet
EndChar

StartChar: z
Encoding: 122 122 81
Width: 1000
GlyphClass: 1
Flags: W
LayerCount: 2
Fore
SplineSet
562 -44 m 1,0,-1
 562 -12 l 1,1,-1
 531 -12 l 1,2,-1
 500 -12 l 1,3,-1
 500 -44 l 1,4,-1
 500 -75 l 1,5,-1
 531 -75 l 1,6,-1
 562 -75 l 1,7,-1
 562 -44 l 1,0,-1
562 206 m 1,8,-1
 562 238 l 1,9,-1
 531 238 l 1,10,-1
 500 238 l 1,11,-1
 500 206 l 1,12,-1
 500 175 l 1,13,-1
 531 175 l 1,14,-1
 562 175 l 1,15,-1
 562 206 l 1,8,-1
438 331 m 1,16,-1
 438 362 l 1,17,-1
 531 362 l 1,18,-1
 625 362 l 1,19,-1
 625 331 l 1,20,-1
 625 300 l 1,21,-1
 656 300 l 1,22,-1
 688 300 l 1,23,-1
 688 269 l 1,24,-1
 688 238 l 1,25,-1
 719 238 l 1,26,-1
 750 238 l 1,27,-1
 750 206 l 1,28,-1
 750 175 l 1,29,-1
 656 175 l 1,30,-1
 562 175 l 1,31,-1
 562 144 l 1,32,-1
 562 112 l 1,33,-1
 625 112 l 1,34,-1
 688 112 l 1,35,-1
 688 81 l 1,36,-1
 688 50 l 1,37,-1
 719 50 l 1,38,-1
 750 50 l 1,39,-1
 750 -12 l 1,40,-1
 750 -75 l 1,41,-1
 719 -75 l 1,42,-1
 688 -75 l 1,43,-1
 688 -106 l 1,44,-1
 688 -138 l 1,45,-1
 656 -138 l 1,46,-1
 625 -138 l 1,47,-1
 625 -169 l 1,48,-1
 625 -200 l 1,49,-1
 531 -200 l 1,50,-1
 438 -200 l 1,51,-1
 438 -169 l 1,52,-1
 438 -138 l 1,53,-1
 406 -138 l 1,54,-1
 375 -138 l 1,55,-1
 375 -106 l 1,56,-1
 375 -75 l 1,57,-1
 344 -75 l 1,58,-1
 312 -75 l 1,59,-1
 312 -44 l 1,60,-1
 312 -12 l 1,61,-1
 406 -12 l 1,62,-1
 500 -12 l 1,63,-1
 500 19 l 1,64,-1
 500 50 l 1,65,-1
 438 50 l 1,66,-1
 375 50 l 1,67,-1
 375 81 l 1,68,-1
 375 112 l 1,69,-1
 344 112 l 1,70,-1
 312 112 l 1,71,-1
 312 175 l 1,72,-1
 312 238 l 1,73,-1
 344 238 l 1,74,-1
 375 238 l 1,75,-1
 375 269 l 1,76,-1
 375 300 l 1,77,-1
 406 300 l 1,78,-1
 438 300 l 1,79,-1
 438 331 l 1,16,-1
EndSplineSet
EndChar

StartChar: teTok
Encoding: 12300 12300 87
Width: 1000
GlyphClass: 1
Flags: W
LayerCount: 2
Fore
SplineSet
312 644 m 1,0,-1
 312 925 l 1,1,-1
 500 925 l 1,2,-1
 688 925 l 1,3,-1
 688 862 l 1,4,-1
 688 800 l 1,5,-1
 562 800 l 1,6,-1
 438 800 l 1,7,-1
 438 581 l 1,8,-1
 438 362 l 1,9,-1
 375 362 l 1,10,-1
 312 362 l 1,11,-1
 312 644 l 1,0,-1
EndSplineSet
MultipleSubs2: "Multiple Substitution lookup 2 subtable" teTok cartoucheMiddleTok
Ligature2: "'liga' Standard Ligatures in Latin lookup 0 subtable" t e
EndChar

StartChar: toTok
Encoding: 12301 12301 88
Width: 1000
GlyphClass: 1
Flags: W
LayerCount: 2
Fore
SplineSet
562 19 m 1,0,-1
 562 238 l 1,1,-1
 625 238 l 1,2,-1
 688 238 l 1,3,-1
 688 -44 l 1,4,-1
 688 -325 l 1,5,-1
 500 -325 l 1,6,-1
 312 -325 l 1,7,-1
 312 -262 l 1,8,-1
 312 -200 l 1,9,-1
 438 -200 l 1,10,-1
 562 -200 l 1,11,-1
 562 19 l 1,0,-1
EndSplineSet
MultipleSubs2: "Multiple Substitution lookup 2 subtable" toTok cartoucheMiddleTok
Ligature2: "'liga' Standard Ligatures in Latin lookup 0 subtable" t o
EndChar

StartChar: aTok
Encoding: 989440 989440 89
Width: 1000
GlyphClass: 1
Flags: W
LayerCount: 2
Fore
SplineSet
500 50 m 1,0,-1
 500 112 l 1,1,-1
 438 112 l 1,2,-1
 375 112 l 1,3,-1
 375 50 l 1,4,-1
 375 -12 l 1,5,-1
 438 -12 l 1,6,-1
 500 -12 l 1,7,-1
 500 50 l 1,0,-1
375 206 m 1,8,-1
 375 238 l 1,9,-1
 438 238 l 1,10,-1
 500 238 l 1,11,-1
 500 206 l 1,12,-1
 500 175 l 1,13,-1
 531 175 l 1,14,-1
 562 175 l 1,15,-1
 562 144 l 1,16,-1
 562 112 l 1,17,-1
 594 112 l 1,18,-1
 625 112 l 1,19,-1
 625 50 l 1,20,-1
 625 -12 l 1,21,-1
 656 -12 l 1,22,-1
 688 -12 l 1,23,-1
 688 -75 l 1,24,-1
 688 -138 l 1,25,-1
 625 -138 l 1,26,-1
 562 -138 l 1,27,-1
 562 -106 l 1,28,-1
 562 -75 l 1,29,-1
 531 -75 l 1,30,-1
 500 -75 l 1,31,-1
 500 -106 l 1,32,-1
 500 -138 l 1,33,-1
 438 -138 l 1,34,-1
 375 -138 l 1,35,-1
 375 -106 l 1,36,-1
 375 -75 l 1,37,-1
 344 -75 l 1,38,-1
 312 -75 l 1,39,-1
 312 -44 l 1,40,-1
 312 -12 l 1,41,-1
 281 -12 l 1,42,-1
 250 -12 l 1,43,-1
 250 50 l 1,44,-1
 250 112 l 1,45,-1
 281 112 l 1,46,-1
 312 112 l 1,47,-1
 312 144 l 1,48,-1
 312 175 l 1,49,-1
 344 175 l 1,50,-1
 375 175 l 1,51,-1
 375 206 l 1,8,-1
375 519 m 1,52,-1
 375 738 l 1,53,-1
 438 738 l 1,54,-1
 500 738 l 1,55,-1
 500 519 l 1,56,-1
 500 300 l 1,57,-1
 438 300 l 1,58,-1
 375 300 l 1,59,-1
 375 519 l 1,52,-1
EndSplineSet
MultipleSubs2: "Multiple Substitution lookup 2 subtable" aTok cartoucheMiddleTok
EndChar

StartChar: akesiTok
Encoding: 989441 989441 90
Width: 1000
GlyphClass: 1
Flags: W
LayerCount: 2
Fore
SplineSet
625 19 m 1,0,-1
 625 50 l 1,1,-1
 500 50 l 1,2,-1
 375 50 l 1,3,-1
 375 19 l 1,4,-1
 375 -12 l 1,5,-1
 500 -12 l 1,6,-1
 625 -12 l 1,7,-1
 625 19 l 1,0,-1
625 206 m 1,8,-1
 625 238 l 1,9,-1
 500 238 l 1,10,-1
 375 238 l 1,11,-1
 375 206 l 1,12,-1
 375 175 l 1,13,-1
 500 175 l 1,14,-1
 625 175 l 1,15,-1
 625 206 l 1,8,-1
625 394 m 1,16,-1
 625 425 l 1,17,-1
 500 425 l 1,18,-1
 375 425 l 1,19,-1
 375 394 l 1,20,-1
 375 362 l 1,21,-1
 500 362 l 1,22,-1
 625 362 l 1,23,-1
 625 394 l 1,16,-1
312 519 m 1,24,-1
 312 550 l 1,25,-1
 500 550 l 1,26,-1
 688 550 l 1,27,-1
 688 519 l 1,28,-1
 688 488 l 1,29,-1
 719 488 l 1,30,-1
 750 488 l 1,31,-1
 750 425 l 1,32,-1
 750 362 l 1,33,-1
 812 362 l 1,34,-1
 875 362 l 1,35,-1
 875 300 l 1,36,-1
 875 238 l 1,37,-1
 812 238 l 1,38,-1
 750 238 l 1,39,-1
 750 206 l 1,40,-1
 750 175 l 1,41,-1
 812 175 l 1,42,-1
 875 175 l 1,43,-1
 875 112 l 1,44,-1
 875 50 l 1,45,-1
 812 50 l 1,46,-1
 750 50 l 1,47,-1
 750 -12 l 1,48,-1
 750 -75 l 1,49,-1
 719 -75 l 1,50,-1
 688 -75 l 1,51,-1
 688 -106 l 1,52,-1
 688 -138 l 1,53,-1
 500 -138 l 1,54,-1
 312 -138 l 1,55,-1
 312 -106 l 1,56,-1
 312 -75 l 1,57,-1
 281 -75 l 1,58,-1
 250 -75 l 1,59,-1
 250 -12 l 1,60,-1
 250 50 l 1,61,-1
 188 50 l 1,62,-1
 125 50 l 1,63,-1
 125 112 l 1,64,-1
 125 175 l 1,65,-1
 188 175 l 1,66,-1
 250 175 l 1,67,-1
 250 206 l 1,68,-1
 250 238 l 1,69,-1
 188 238 l 1,70,-1
 125 238 l 1,71,-1
 125 300 l 1,72,-1
 125 362 l 1,73,-1
 188 362 l 1,74,-1
 250 362 l 1,75,-1
 250 425 l 1,76,-1
 250 488 l 1,77,-1
 281 488 l 1,78,-1
 312 488 l 1,79,-1
 312 519 l 1,24,-1
625 675 m 1,80,-1
 625 738 l 1,81,-1
 688 738 l 1,82,-1
 750 738 l 1,83,-1
 750 675 l 1,84,-1
 750 612 l 1,85,-1
 688 612 l 1,86,-1
 625 612 l 1,87,-1
 625 675 l 1,80,-1
250 675 m 1,88,-1
 250 738 l 1,89,-1
 312 738 l 1,90,-1
 375 738 l 1,91,-1
 375 675 l 1,92,-1
 375 612 l 1,93,-1
 312 612 l 1,94,-1
 250 612 l 1,95,-1
 250 675 l 1,88,-1
EndSplineSet
MultipleSubs2: "Multiple Substitution lookup 2 subtable" akesiTok cartoucheMiddleTok
Ligature2: "'liga' Standard Ligatures in Latin lookup 0 subtable" a k e s i
Ligature2: "'liga' Standard Ligatures in Latin lookup 0 subtable" a k e s i north
EndChar

StartChar: alaTok
Encoding: 989442 989442 91
Width: 1000
GlyphClass: 1
Flags: W
LayerCount: 2
Fore
SplineSet
62 675 m 1,0,-1
 62 738 l 1,1,-1
 125 738 l 1,2,-1
 188 738 l 1,3,-1
 188 706 l 1,4,-1
 188 675 l 1,5,-1
 219 675 l 1,6,-1
 250 675 l 1,7,-1
 250 644 l 1,8,-1
 250 612 l 1,9,-1
 281 612 l 1,10,-1
 312 612 l 1,11,-1
 312 581 l 1,12,-1
 312 550 l 1,13,-1
 344 550 l 1,14,-1
 375 550 l 1,15,-1
 375 519 l 1,16,-1
 375 488 l 1,17,-1
 406 488 l 1,18,-1
 438 488 l 1,19,-1
 438 456 l 1,20,-1
 438 425 l 1,21,-1
 500 425 l 1,22,-1
 562 425 l 1,23,-1
 562 456 l 1,24,-1
 562 488 l 1,25,-1
 594 488 l 1,26,-1
 625 488 l 1,27,-1
 625 519 l 1,28,-1
 625 550 l 1,29,-1
 656 550 l 1,30,-1
 688 550 l 1,31,-1
 688 581 l 1,32,-1
 688 612 l 1,33,-1
 719 612 l 1,34,-1
 750 612 l 1,35,-1
 750 644 l 1,36,-1
 750 675 l 1,37,-1
 781 675 l 1,38,-1
 812 675 l 1,39,-1
 812 706 l 1,40,-1
 812 738 l 1,41,-1
 875 738 l 1,42,-1
 938 738 l 1,43,-1
 938 675 l 1,44,-1
 938 612 l 1,45,-1
 906 612 l 1,46,-1
 875 612 l 1,47,-1
 875 581 l 1,48,-1
 875 550 l 1,49,-1
 844 550 l 1,50,-1
 812 550 l 1,51,-1
 812 519 l 1,52,-1
 812 488 l 1,53,-1
 781 488 l 1,54,-1
 750 488 l 1,55,-1
 750 456 l 1,56,-1
 750 425 l 1,57,-1
 719 425 l 1,58,-1
 688 425 l 1,59,-1
 688 394 l 1,60,-1
 688 362 l 1,61,-1
 656 362 l 1,62,-1
 625 362 l 1,63,-1
 625 300 l 1,64,-1
 625 238 l 1,65,-1
 656 238 l 1,66,-1
 688 238 l 1,67,-1
 688 206 l 1,68,-1
 688 175 l 1,69,-1
 719 175 l 1,70,-1
 750 175 l 1,71,-1
 750 144 l 1,72,-1
 750 112 l 1,73,-1
 781 112 l 1,74,-1
 812 112 l 1,75,-1
 812 81 l 1,76,-1
 812 50 l 1,77,-1
 844 50 l 1,78,-1
 875 50 l 1,79,-1
 875 19 l 1,80,-1
 875 -12 l 1,81,-1
 906 -12 l 1,82,-1
 938 -12 l 1,83,-1
 938 -75 l 1,84,-1
 938 -138 l 1,85,-1
 875 -138 l 1,86,-1
 812 -138 l 1,87,-1
 812 -106 l 1,88,-1
 812 -75 l 1,89,-1
 781 -75 l 1,90,-1
 750 -75 l 1,91,-1
 750 -44 l 1,92,-1
 750 -12 l 1,93,-1
 719 -12 l 1,94,-1
 688 -12 l 1,95,-1
 688 19 l 1,96,-1
 688 50 l 1,97,-1
 656 50 l 1,98,-1
 625 50 l 1,99,-1
 625 81 l 1,100,-1
 625 112 l 1,101,-1
 594 112 l 1,102,-1
 562 112 l 1,103,-1
 562 144 l 1,104,-1
 562 175 l 1,105,-1
 500 175 l 1,106,-1
 438 175 l 1,107,-1
 438 144 l 1,108,-1
 438 112 l 1,109,-1
 406 112 l 1,110,-1
 375 112 l 1,111,-1
 375 81 l 1,112,-1
 375 50 l 1,113,-1
 344 50 l 1,114,-1
 312 50 l 1,115,-1
 312 19 l 1,116,-1
 312 -12 l 1,117,-1
 281 -12 l 1,118,-1
 250 -12 l 1,119,-1
 250 -44 l 1,120,-1
 250 -75 l 1,121,-1
 219 -75 l 1,122,-1
 188 -75 l 1,123,-1
 188 -106 l 1,124,-1
 188 -138 l 1,125,-1
 125 -138 l 1,126,-1
 62 -138 l 1,127,-1
 62 -75 l 1,128,-1
 62 -12 l 1,129,-1
 94 -12 l 1,130,-1
 125 -12 l 1,131,-1
 125 19 l 1,132,-1
 125 50 l 1,133,-1
 156 50 l 1,134,-1
 188 50 l 1,135,-1
 188 81 l 1,136,-1
 188 112 l 1,137,-1
 219 112 l 1,138,-1
 250 112 l 1,139,-1
 250 144 l 1,140,-1
 250 175 l 1,141,-1
 281 175 l 1,142,-1
 312 175 l 1,143,-1
 312 206 l 1,144,-1
 312 238 l 1,145,-1
 344 238 l 1,146,-1
 375 238 l 1,147,-1
 375 300 l 1,148,-1
 375 362 l 1,149,-1
 344 362 l 1,150,-1
 312 362 l 1,151,-1
 312 394 l 1,152,-1
 312 425 l 1,153,-1
 281 425 l 1,154,-1
 250 425 l 1,155,-1
 250 456 l 1,156,-1
 250 488 l 1,157,-1
 219 488 l 1,158,-1
 188 488 l 1,159,-1
 188 519 l 1,160,-1
 188 550 l 1,161,-1
 156 550 l 1,162,-1
 125 550 l 1,163,-1
 125 581 l 1,164,-1
 125 612 l 1,165,-1
 94 612 l 1,166,-1
 62 612 l 1,167,-1
 62 675 l 1,0,-1
EndSplineSet
MultipleSubs2: "Multiple Substitution lookup 2 subtable" alaTok cartoucheMiddleTok
Ligature2: "'liga' Standard Ligatures in Latin lookup 0 subtable" a l a
EndChar

StartChar: alasaTok
Encoding: 989443 989443 92
Width: 1000
GlyphClass: 1
Flags: W
LayerCount: 2
Fore
SplineSet
500 175 m 1,0,-1
 500 238 l 1,1,-1
 406 238 l 1,2,-1
 312 238 l 1,3,-1
 312 144 l 1,4,-1
 312 50 l 1,5,-1
 375 50 l 1,6,-1
 438 50 l 1,7,-1
 438 81 l 1,8,-1
 438 112 l 1,9,-1
 469 112 l 1,10,-1
 500 112 l 1,11,-1
 500 175 l 1,0,-1
438 519 m 1,12,-1
 438 550 l 1,13,-1
 375 550 l 1,14,-1
 312 550 l 1,15,-1
 312 456 l 1,16,-1
 312 362 l 1,17,-1
 406 362 l 1,18,-1
 500 362 l 1,19,-1
 500 425 l 1,20,-1
 500 488 l 1,21,-1
 469 488 l 1,22,-1
 438 488 l 1,23,-1
 438 519 l 1,12,-1
125 675 m 1,24,-1
 125 738 l 1,25,-1
 250 738 l 1,26,-1
 375 738 l 1,27,-1
 375 706 l 1,28,-1
 375 675 l 1,29,-1
 438 675 l 1,30,-1
 500 675 l 1,31,-1
 500 644 l 1,32,-1
 500 612 l 1,33,-1
 531 612 l 1,34,-1
 562 612 l 1,35,-1
 562 581 l 1,36,-1
 562 550 l 1,37,-1
 594 550 l 1,38,-1
 625 550 l 1,39,-1
 625 456 l 1,40,-1
 625 362 l 1,41,-1
 656 362 l 1,42,-1
 688 362 l 1,43,-1
 688 425 l 1,44,-1
 688 488 l 1,45,-1
 719 488 l 1,46,-1
 750 488 l 1,47,-1
 750 456 l 1,48,-1
 750 425 l 1,49,-1
 781 425 l 1,50,-1
 812 425 l 1,51,-1
 812 394 l 1,52,-1
 812 362 l 1,53,-1
 844 362 l 1,54,-1
 875 362 l 1,55,-1
 875 300 l 1,56,-1
 875 238 l 1,57,-1
 844 238 l 1,58,-1
 812 238 l 1,59,-1
 812 206 l 1,60,-1
 812 175 l 1,61,-1
 781 175 l 1,62,-1
 750 175 l 1,63,-1
 750 144 l 1,64,-1
 750 112 l 1,65,-1
 719 112 l 1,66,-1
 688 112 l 1,67,-1
 688 175 l 1,68,-1
 688 238 l 1,69,-1
 656 238 l 1,70,-1
 625 238 l 1,71,-1
 625 144 l 1,72,-1
 625 50 l 1,73,-1
 594 50 l 1,74,-1
 562 50 l 1,75,-1
 562 19 l 1,76,-1
 562 -12 l 1,77,-1
 531 -12 l 1,78,-1
 500 -12 l 1,79,-1
 500 -44 l 1,80,-1
 500 -75 l 1,81,-1
 438 -75 l 1,82,-1
 375 -75 l 1,83,-1
 375 -106 l 1,84,-1
 375 -138 l 1,85,-1
 250 -138 l 1,86,-1
 125 -138 l 1,87,-1
 125 -75 l 1,88,-1
 125 -12 l 1,89,-1
 156 -12 l 1,90,-1
 188 -12 l 1,91,-1
 188 112 l 1,92,-1
 188 238 l 1,93,-1
 156 238 l 1,94,-1
 125 238 l 1,95,-1
 125 300 l 1,96,-1
 125 362 l 1,97,-1
 156 362 l 1,98,-1
 188 362 l 1,99,-1
 188 488 l 1,100,-1
 188 612 l 1,101,-1
 156 612 l 1,102,-1
 125 612 l 1,103,-1
 125 675 l 1,24,-1
EndSplineSet
MultipleSubs2: "Multiple Substitution lookup 2 subtable" alasaTok cartoucheMiddleTok
Ligature2: "'liga' Standard Ligatures in Latin lookup 0 subtable" a l a s a
EndChar

StartChar: aleTok
Encoding: 989444 989444 93
Width: 1000
GlyphClass: 1
Flags: W
LayerCount: 2
Fore
SplineSet
750 456 m 1,0,-1
 750 488 l 1,1,-1
 688 488 l 1,2,-1
 625 488 l 1,3,-1
 625 456 l 1,4,-1
 625 425 l 1,5,-1
 594 425 l 1,6,-1
 562 425 l 1,7,-1
 562 300 l 1,8,-1
 562 175 l 1,9,-1
 594 175 l 1,10,-1
 625 175 l 1,11,-1
 625 144 l 1,12,-1
 625 112 l 1,13,-1
 688 112 l 1,14,-1
 750 112 l 1,15,-1
 750 144 l 1,16,-1
 750 175 l 1,17,-1
 781 175 l 1,18,-1
 812 175 l 1,19,-1
 812 300 l 1,20,-1
 812 425 l 1,21,-1
 781 425 l 1,22,-1
 750 425 l 1,23,-1
 750 456 l 1,0,-1
375 456 m 1,24,-1
 375 488 l 1,25,-1
 312 488 l 1,26,-1
 250 488 l 1,27,-1
 250 456 l 1,28,-1
 250 425 l 1,29,-1
 219 425 l 1,30,-1
 188 425 l 1,31,-1
 188 300 l 1,32,-1
 188 175 l 1,33,-1
 219 175 l 1,34,-1
 250 175 l 1,35,-1
 250 144 l 1,36,-1
 250 112 l 1,37,-1
 312 112 l 1,38,-1
 375 112 l 1,39,-1
 375 144 l 1,40,-1
 375 175 l 1,41,-1
 406 175 l 1,42,-1
 438 175 l 1,43,-1
 438 300 l 1,44,-1
 438 425 l 1,45,-1
 406 425 l 1,46,-1
 375 425 l 1,47,-1
 375 456 l 1,24,-1
188 581 m 1,48,-1
 188 612 l 1,49,-1
 312 612 l 1,50,-1
 438 612 l 1,51,-1
 438 581 l 1,52,-1
 438 550 l 1,53,-1
 500 550 l 1,54,-1
 562 550 l 1,55,-1
 562 581 l 1,56,-1
 562 612 l 1,57,-1
 688 612 l 1,58,-1
 812 612 l 1,59,-1
 812 581 l 1,60,-1
 812 550 l 1,61,-1
 844 550 l 1,62,-1
 875 550 l 1,63,-1
 875 519 l 1,64,-1
 875 488 l 1,65,-1
 906 488 l 1,66,-1
 938 488 l 1,67,-1
 938 300 l 1,68,-1
 938 112 l 1,69,-1
 906 112 l 1,70,-1
 875 112 l 1,71,-1
 875 81 l 1,72,-1
 875 50 l 1,73,-1
 844 50 l 1,74,-1
 812 50 l 1,75,-1
 812 19 l 1,76,-1
 812 -12 l 1,77,-1
 688 -12 l 1,78,-1
 562 -12 l 1,79,-1
 562 19 l 1,80,-1
 562 50 l 1,81,-1
 500 50 l 1,82,-1
 438 50 l 1,83,-1
 438 19 l 1,84,-1
 438 -12 l 1,85,-1
 312 -12 l 1,86,-1
 188 -12 l 1,87,-1
 188 19 l 1,88,-1
 188 50 l 1,89,-1
 156 50 l 1,90,-1
 125 50 l 1,91,-1
 125 81 l 1,92,-1
 125 112 l 1,93,-1
 94 112 l 1,94,-1
 62 112 l 1,95,-1
 62 300 l 1,96,-1
 62 488 l 1,97,-1
 94 488 l 1,98,-1
 125 488 l 1,99,-1
 125 519 l 1,100,-1
 125 550 l 1,101,-1
 156 550 l 1,102,-1
 188 550 l 1,103,-1
 188 581 l 1,48,-1
EndSplineSet
MultipleSubs2: "Multiple Substitution lookup 2 subtable" aleTok cartoucheMiddleTok
Ligature2: "'liga' Standard Ligatures in Latin lookup 0 subtable" a l e
EndChar

StartChar: anpaTok
Encoding: 989445 989445 94
Width: 1000
GlyphClass: 1
Flags: W
LayerCount: 2
Fore
SplineSet
438 50 m 1,0,-1
 438 112 l 1,1,-1
 500 112 l 1,2,-1
 562 112 l 1,3,-1
 562 50 l 1,4,-1
 562 -12 l 1,5,-1
 500 -12 l 1,6,-1
 438 -12 l 1,7,-1
 438 50 l 1,0,-1
125 425 m 1,8,-1
 125 612 l 1,9,-1
 188 612 l 1,10,-1
 250 612 l 1,11,-1
 250 488 l 1,12,-1
 250 362 l 1,13,-1
 500 362 l 1,14,-1
 750 362 l 1,15,-1
 750 488 l 1,16,-1
 750 612 l 1,17,-1
 812 612 l 1,18,-1
 875 612 l 1,19,-1
 875 425 l 1,20,-1
 875 238 l 1,21,-1
 500 238 l 1,22,-1
 125 238 l 1,23,-1
 125 425 l 1,8,-1
EndSplineSet
MultipleSubs2: "Multiple Substitution lookup 2 subtable" anpaTok cartoucheMiddleTok
Ligature2: "'liga' Standard Ligatures in Latin lookup 0 subtable" a n p a
EndChar

StartChar: anteTok
Encoding: 989446 989446 95
Width: 1000
GlyphClass: 1
Flags: W
LayerCount: 2
Fore
SplineSet
438 206 m 1,0,-1
 438 238 l 1,1,-1
 500 238 l 1,2,-1
 562 238 l 1,3,-1
 562 206 l 1,4,-1
 562 175 l 1,5,-1
 594 175 l 1,6,-1
 625 175 l 1,7,-1
 625 144 l 1,8,-1
 625 112 l 1,9,-1
 688 112 l 1,10,-1
 750 112 l 1,11,-1
 750 81 l 1,12,-1
 750 50 l 1,13,-1
 812 50 l 1,14,-1
 875 50 l 1,15,-1
 875 19 l 1,16,-1
 875 -12 l 1,17,-1
 906 -12 l 1,18,-1
 938 -12 l 1,19,-1
 938 -75 l 1,20,-1
 938 -138 l 1,21,-1
 875 -138 l 1,22,-1
 812 -138 l 1,23,-1
 812 -106 l 1,24,-1
 812 -75 l 1,25,-1
 750 -75 l 1,26,-1
 688 -75 l 1,27,-1
 688 -44 l 1,28,-1
 688 -12 l 1,29,-1
 625 -12 l 1,30,-1
 562 -12 l 1,31,-1
 562 19 l 1,32,-1
 562 50 l 1,33,-1
 500 50 l 1,34,-1
 438 50 l 1,35,-1
 438 19 l 1,36,-1
 438 -12 l 1,37,-1
 375 -12 l 1,38,-1
 312 -12 l 1,39,-1
 312 -44 l 1,40,-1
 312 -75 l 1,41,-1
 250 -75 l 1,42,-1
 188 -75 l 1,43,-1
 188 -106 l 1,44,-1
 188 -138 l 1,45,-1
 125 -138 l 1,46,-1
 62 -138 l 1,47,-1
 62 -75 l 1,48,-1
 62 -12 l 1,49,-1
 94 -12 l 1,50,-1
 125 -12 l 1,51,-1
 125 19 l 1,52,-1
 125 50 l 1,53,-1
 188 50 l 1,54,-1
 250 50 l 1,55,-1
 250 81 l 1,56,-1
 250 112 l 1,57,-1
 312 112 l 1,58,-1
 375 112 l 1,59,-1
 375 144 l 1,60,-1
 375 175 l 1,61,-1
 406 175 l 1,62,-1
 438 175 l 1,63,-1
 438 206 l 1,0,-1
62 675 m 1,64,-1
 62 738 l 1,65,-1
 125 738 l 1,66,-1
 188 738 l 1,67,-1
 188 706 l 1,68,-1
 188 675 l 1,69,-1
 250 675 l 1,70,-1
 312 675 l 1,71,-1
 312 644 l 1,72,-1
 312 612 l 1,73,-1
 375 612 l 1,74,-1
 438 612 l 1,75,-1
 438 581 l 1,76,-1
 438 550 l 1,77,-1
 500 550 l 1,78,-1
 562 550 l 1,79,-1
 562 581 l 1,80,-1
 562 612 l 1,81,-1
 625 612 l 1,82,-1
 688 612 l 1,83,-1
 688 644 l 1,84,-1
 688 675 l 1,85,-1
 750 675 l 1,86,-1
 812 675 l 1,87,-1
 812 706 l 1,88,-1
 812 738 l 1,89,-1
 875 738 l 1,90,-1
 938 738 l 1,91,-1
 938 675 l 1,92,-1
 938 612 l 1,93,-1
 906 612 l 1,94,-1
 875 612 l 1,95,-1
 875 581 l 1,96,-1
 875 550 l 1,97,-1
 812 550 l 1,98,-1
 750 550 l 1,99,-1
 750 519 l 1,100,-1
 750 488 l 1,101,-1
 688 488 l 1,102,-1
 625 488 l 1,103,-1
 625 456 l 1,104,-1
 625 425 l 1,105,-1
 594 425 l 1,106,-1
 562 425 l 1,107,-1
 562 394 l 1,108,-1
 562 362 l 1,109,-1
 500 362 l 1,110,-1
 438 362 l 1,111,-1
 438 394 l 1,112,-1
 438 425 l 1,113,-1
 406 425 l 1,114,-1
 375 425 l 1,115,-1
 375 456 l 1,116,-1
 375 488 l 1,117,-1
 312 488 l 1,118,-1
 250 488 l 1,119,-1
 250 519 l 1,120,-1
 250 550 l 1,121,-1
 188 550 l 1,122,-1
 125 550 l 1,123,-1
 125 581 l 1,124,-1
 125 612 l 1,125,-1
 94 612 l 1,126,-1
 62 612 l 1,127,-1
 62 675 l 1,64,-1
EndSplineSet
MultipleSubs2: "Multiple Substitution lookup 2 subtable" anteTok cartoucheMiddleTok
Ligature2: "'liga' Standard Ligatures in Latin lookup 0 subtable" a n t e
EndChar

StartChar: anuTok
Encoding: 989447 989447 96
Width: 1000
GlyphClass: 1
Flags: W
LayerCount: 2
Fore
SplineSet
62 675 m 1,0,-1
 62 738 l 1,1,-1
 125 738 l 1,2,-1
 188 738 l 1,3,-1
 188 706 l 1,4,-1
 188 675 l 1,5,-1
 219 675 l 1,6,-1
 250 675 l 1,7,-1
 250 644 l 1,8,-1
 250 612 l 1,9,-1
 281 612 l 1,10,-1
 312 612 l 1,11,-1
 312 581 l 1,12,-1
 312 550 l 1,13,-1
 344 550 l 1,14,-1
 375 550 l 1,15,-1
 375 519 l 1,16,-1
 375 488 l 1,17,-1
 406 488 l 1,18,-1
 438 488 l 1,19,-1
 438 456 l 1,20,-1
 438 425 l 1,21,-1
 500 425 l 1,22,-1
 562 425 l 1,23,-1
 562 456 l 1,24,-1
 562 488 l 1,25,-1
 594 488 l 1,26,-1
 625 488 l 1,27,-1
 625 519 l 1,28,-1
 625 550 l 1,29,-1
 656 550 l 1,30,-1
 688 550 l 1,31,-1
 688 581 l 1,32,-1
 688 612 l 1,33,-1
 719 612 l 1,34,-1
 750 612 l 1,35,-1
 750 644 l 1,36,-1
 750 675 l 1,37,-1
 781 675 l 1,38,-1
 812 675 l 1,39,-1
 812 706 l 1,40,-1
 812 738 l 1,41,-1
 875 738 l 1,42,-1
 938 738 l 1,43,-1
 938 675 l 1,44,-1
 938 612 l 1,45,-1
 906 612 l 1,46,-1
 875 612 l 1,47,-1
 875 581 l 1,48,-1
 875 550 l 1,49,-1
 844 550 l 1,50,-1
 812 550 l 1,51,-1
 812 519 l 1,52,-1
 812 488 l 1,53,-1
 781 488 l 1,54,-1
 750 488 l 1,55,-1
 750 456 l 1,56,-1
 750 425 l 1,57,-1
 719 425 l 1,58,-1
 688 425 l 1,59,-1
 688 394 l 1,60,-1
 688 362 l 1,61,-1
 656 362 l 1,62,-1
 625 362 l 1,63,-1
 625 331 l 1,64,-1
 625 300 l 1,65,-1
 594 300 l 1,66,-1
 562 300 l 1,67,-1
 562 81 l 1,68,-1
 562 -138 l 1,69,-1
 500 -138 l 1,70,-1
 438 -138 l 1,71,-1
 438 81 l 1,72,-1
 438 300 l 1,73,-1
 406 300 l 1,74,-1
 375 300 l 1,75,-1
 375 331 l 1,76,-1
 375 362 l 1,77,-1
 344 362 l 1,78,-1
 312 362 l 1,79,-1
 312 394 l 1,80,-1
 312 425 l 1,81,-1
 281 425 l 1,82,-1
 250 425 l 1,83,-1
 250 456 l 1,84,-1
 250 488 l 1,85,-1
 219 488 l 1,86,-1
 188 488 l 1,87,-1
 188 519 l 1,88,-1
 188 550 l 1,89,-1
 156 550 l 1,90,-1
 125 550 l 1,91,-1
 125 581 l 1,92,-1
 125 612 l 1,93,-1
 94 612 l 1,94,-1
 62 612 l 1,95,-1
 62 675 l 1,0,-1
EndSplineSet
MultipleSubs2: "Multiple Substitution lookup 2 subtable" anuTok cartoucheMiddleTok
Ligature2: "'liga' Standard Ligatures in Latin lookup 0 subtable" a n u
EndChar

StartChar: awenTok
Encoding: 989448 989448 97
Width: 1000
GlyphClass: 1
Flags: W
LayerCount: 2
Fore
SplineSet
438 644 m 1,0,-1
 438 738 l 1,1,-1
 500 738 l 1,2,-1
 562 738 l 1,3,-1
 562 644 l 1,4,-1
 562 550 l 1,5,-1
 594 550 l 1,6,-1
 625 550 l 1,7,-1
 625 456 l 1,8,-1
 625 362 l 1,9,-1
 656 362 l 1,10,-1
 688 362 l 1,11,-1
 688 269 l 1,12,-1
 688 175 l 1,13,-1
 719 175 l 1,14,-1
 750 175 l 1,15,-1
 750 81 l 1,16,-1
 750 -12 l 1,17,-1
 812 -12 l 1,18,-1
 875 -12 l 1,19,-1
 875 -75 l 1,20,-1
 875 -138 l 1,21,-1
 750 -138 l 1,22,-1
 625 -138 l 1,23,-1
 625 -12 l 1,24,-1
 625 112 l 1,25,-1
 594 112 l 1,26,-1
 562 112 l 1,27,-1
 562 206 l 1,28,-1
 562 300 l 1,29,-1
 500 300 l 1,30,-1
 438 300 l 1,31,-1
 438 206 l 1,32,-1
 438 112 l 1,33,-1
 406 112 l 1,34,-1
 375 112 l 1,35,-1
 375 -12 l 1,36,-1
 375 -138 l 1,37,-1
 250 -138 l 1,38,-1
 125 -138 l 1,39,-1
 125 -75 l 1,40,-1
 125 -12 l 1,41,-1
 188 -12 l 1,42,-1
 250 -12 l 1,43,-1
 250 81 l 1,44,-1
 250 175 l 1,45,-1
 281 175 l 1,46,-1
 312 175 l 1,47,-1
 312 269 l 1,48,-1
 312 362 l 1,49,-1
 344 362 l 1,50,-1
 375 362 l 1,51,-1
 375 456 l 1,52,-1
 375 550 l 1,53,-1
 406 550 l 1,54,-1
 438 550 l 1,55,-1
 438 644 l 1,0,-1
EndSplineSet
MultipleSubs2: "Multiple Substitution lookup 2 subtable" awenTok cartoucheMiddleTok
Ligature2: "'liga' Standard Ligatures in Latin lookup 0 subtable" a w e n
EndChar

StartChar: eTok
Encoding: 989449 989449 98
Width: 1000
GlyphClass: 1
Flags: W
LayerCount: 2
Fore
SplineSet
500 675 m 1,0,-1
 500 738 l 1,1,-1
 562 738 l 1,2,-1
 625 738 l 1,3,-1
 625 706 l 1,4,-1
 625 675 l 1,5,-1
 656 675 l 1,6,-1
 688 675 l 1,7,-1
 688 612 l 1,8,-1
 688 550 l 1,9,-1
 719 550 l 1,10,-1
 750 550 l 1,11,-1
 750 488 l 1,12,-1
 750 425 l 1,13,-1
 781 425 l 1,14,-1
 812 425 l 1,15,-1
 812 394 l 1,16,-1
 812 362 l 1,17,-1
 844 362 l 1,18,-1
 875 362 l 1,19,-1
 875 300 l 1,20,-1
 875 238 l 1,21,-1
 844 238 l 1,22,-1
 812 238 l 1,23,-1
 812 206 l 1,24,-1
 812 175 l 1,25,-1
 781 175 l 1,26,-1
 750 175 l 1,27,-1
 750 112 l 1,28,-1
 750 50 l 1,29,-1
 719 50 l 1,30,-1
 688 50 l 1,31,-1
 688 -12 l 1,32,-1
 688 -75 l 1,33,-1
 656 -75 l 1,34,-1
 625 -75 l 1,35,-1
 625 -106 l 1,36,-1
 625 -138 l 1,37,-1
 562 -138 l 1,38,-1
 500 -138 l 1,39,-1
 500 -75 l 1,40,-1
 500 -12 l 1,41,-1
 531 -12 l 1,42,-1
 562 -12 l 1,43,-1
 562 50 l 1,44,-1
 562 112 l 1,45,-1
 594 112 l 1,46,-1
 625 112 l 1,47,-1
 625 175 l 1,48,-1
 625 238 l 1,49,-1
 656 238 l 1,50,-1
 688 238 l 1,51,-1
 688 300 l 1,52,-1
 688 362 l 1,53,-1
 656 362 l 1,54,-1
 625 362 l 1,55,-1
 625 425 l 1,56,-1
 625 488 l 1,57,-1
 594 488 l 1,58,-1
 562 488 l 1,59,-1
 562 550 l 1,60,-1
 562 612 l 1,61,-1
 531 612 l 1,62,-1
 500 612 l 1,63,-1
 500 675 l 1,0,-1
125 675 m 1,64,-1
 125 738 l 1,65,-1
 188 738 l 1,66,-1
 250 738 l 1,67,-1
 250 706 l 1,68,-1
 250 675 l 1,69,-1
 281 675 l 1,70,-1
 312 675 l 1,71,-1
 312 612 l 1,72,-1
 312 550 l 1,73,-1
 344 550 l 1,74,-1
 375 550 l 1,75,-1
 375 488 l 1,76,-1
 375 425 l 1,77,-1
 406 425 l 1,78,-1
 438 425 l 1,79,-1
 438 394 l 1,80,-1
 438 362 l 1,81,-1
 469 362 l 1,82,-1
 500 362 l 1,83,-1
 500 300 l 1,84,-1
 500 238 l 1,85,-1
 469 238 l 1,86,-1
 438 238 l 1,87,-1
 438 206 l 1,88,-1
 438 175 l 1,89,-1
 406 175 l 1,90,-1
 375 175 l 1,91,-1
 375 112 l 1,92,-1
 375 50 l 1,93,-1
 344 50 l 1,94,-1
 312 50 l 1,95,-1
 312 -12 l 1,96,-1
 312 -75 l 1,97,-1
 281 -75 l 1,98,-1
 250 -75 l 1,99,-1
 250 -106 l 1,100,-1
 250 -138 l 1,101,-1
 188 -138 l 1,102,-1
 125 -138 l 1,103,-1
 125 -75 l 1,104,-1
 125 -12 l 1,105,-1
 156 -12 l 1,106,-1
 188 -12 l 1,107,-1
 188 50 l 1,108,-1
 188 112 l 1,109,-1
 219 112 l 1,110,-1
 250 112 l 1,111,-1
 250 175 l 1,112,-1
 250 238 l 1,113,-1
 281 238 l 1,114,-1
 312 238 l 1,115,-1
 312 300 l 1,116,-1
 312 362 l 1,117,-1
 281 362 l 1,118,-1
 250 362 l 1,119,-1
 250 425 l 1,120,-1
 250 488 l 1,121,-1
 219 488 l 1,122,-1
 188 488 l 1,123,-1
 188 550 l 1,124,-1
 188 612 l 1,125,-1
 156 612 l 1,126,-1
 125 612 l 1,127,-1
 125 675 l 1,64,-1
EndSplineSet
MultipleSubs2: "Multiple Substitution lookup 2 subtable" eTok cartoucheMiddleTok
EndChar

StartChar: enTok
Encoding: 989450 989450 99
Width: 1000
GlyphClass: 1
Flags: W
LayerCount: 2
Fore
SplineSet
438 519 m 1,0,-1
 438 675 l 1,1,-1
 500 675 l 1,2,-1
 562 675 l 1,3,-1
 562 519 l 1,4,-1
 562 362 l 1,5,-1
 719 362 l 1,6,-1
 875 362 l 1,7,-1
 875 300 l 1,8,-1
 875 238 l 1,9,-1
 719 238 l 1,10,-1
 562 238 l 1,11,-1
 562 81 l 1,12,-1
 562 -75 l 1,13,-1
 500 -75 l 1,14,-1
 438 -75 l 1,15,-1
 438 81 l 1,16,-1
 438 238 l 1,17,-1
 281 238 l 1,18,-1
 125 238 l 1,19,-1
 125 300 l 1,20,-1
 125 362 l 1,21,-1
 281 362 l 1,22,-1
 438 362 l 1,23,-1
 438 519 l 1,0,-1
EndSplineSet
MultipleSubs2: "Multiple Substitution lookup 2 subtable" enTok cartoucheMiddleTok
Ligature2: "'liga' Standard Ligatures in Latin lookup 0 subtable" e n
EndChar

StartChar: esunTok
Encoding: 989451 989451 100
Width: 1000
GlyphClass: 1
Flags: W
LayerCount: 2
Fore
SplineSet
312 144 m 1,0,-1
 312 175 l 1,1,-1
 281 175 l 1,2,-1
 250 175 l 1,3,-1
 250 144 l 1,4,-1
 250 112 l 1,5,-1
 219 112 l 1,6,-1
 188 112 l 1,7,-1
 188 81 l 1,8,-1
 188 50 l 1,9,-1
 219 50 l 1,10,-1
 250 50 l 1,11,-1
 250 19 l 1,12,-1
 250 -12 l 1,13,-1
 281 -12 l 1,14,-1
 312 -12 l 1,15,-1
 312 19 l 1,16,-1
 312 50 l 1,17,-1
 344 50 l 1,18,-1
 375 50 l 1,19,-1
 375 81 l 1,20,-1
 375 112 l 1,21,-1
 344 112 l 1,22,-1
 312 112 l 1,23,-1
 312 144 l 1,0,-1
750 581 m 1,24,-1
 750 612 l 1,25,-1
 719 612 l 1,26,-1
 688 612 l 1,27,-1
 688 581 l 1,28,-1
 688 550 l 1,29,-1
 656 550 l 1,30,-1
 625 550 l 1,31,-1
 625 519 l 1,32,-1
 625 488 l 1,33,-1
 656 488 l 1,34,-1
 688 488 l 1,35,-1
 688 456 l 1,36,-1
 688 425 l 1,37,-1
 719 425 l 1,38,-1
 750 425 l 1,39,-1
 750 456 l 1,40,-1
 750 488 l 1,41,-1
 781 488 l 1,42,-1
 812 488 l 1,43,-1
 812 519 l 1,44,-1
 812 550 l 1,45,-1
 781 550 l 1,46,-1
 750 550 l 1,47,-1
 750 581 l 1,24,-1
62 675 m 1,48,-1
 62 738 l 1,49,-1
 125 738 l 1,50,-1
 188 738 l 1,51,-1
 188 706 l 1,52,-1
 188 675 l 1,53,-1
 219 675 l 1,54,-1
 250 675 l 1,55,-1
 250 644 l 1,56,-1
 250 612 l 1,57,-1
 281 612 l 1,58,-1
 312 612 l 1,59,-1
 312 581 l 1,60,-1
 312 550 l 1,61,-1
 375 550 l 1,62,-1
 438 550 l 1,63,-1
 438 519 l 1,64,-1
 438 488 l 1,65,-1
 469 488 l 1,66,-1
 500 488 l 1,67,-1
 500 550 l 1,68,-1
 500 612 l 1,69,-1
 531 612 l 1,70,-1
 562 612 l 1,71,-1
 562 644 l 1,72,-1
 562 675 l 1,73,-1
 594 675 l 1,74,-1
 625 675 l 1,75,-1
 625 706 l 1,76,-1
 625 738 l 1,77,-1
 719 738 l 1,78,-1
 812 738 l 1,79,-1
 812 706 l 1,80,-1
 812 675 l 1,81,-1
 844 675 l 1,82,-1
 875 675 l 1,83,-1
 875 644 l 1,84,-1
 875 612 l 1,85,-1
 906 612 l 1,86,-1
 938 612 l 1,87,-1
 938 519 l 1,88,-1
 938 425 l 1,89,-1
 906 425 l 1,90,-1
 875 425 l 1,91,-1
 875 394 l 1,92,-1
 875 362 l 1,93,-1
 844 362 l 1,94,-1
 812 362 l 1,95,-1
 812 331 l 1,96,-1
 812 300 l 1,97,-1
 688 300 l 1,98,-1
 562 300 l 1,99,-1
 562 238 l 1,100,-1
 562 175 l 1,101,-1
 594 175 l 1,102,-1
 625 175 l 1,103,-1
 625 144 l 1,104,-1
 625 112 l 1,105,-1
 656 112 l 1,106,-1
 688 112 l 1,107,-1
 688 81 l 1,108,-1
 688 50 l 1,109,-1
 719 50 l 1,110,-1
 750 50 l 1,111,-1
 750 19 l 1,112,-1
 750 -12 l 1,113,-1
 781 -12 l 1,114,-1
 812 -12 l 1,115,-1
 812 19 l 1,116,-1
 812 50 l 1,117,-1
 875 50 l 1,118,-1
 938 50 l 1,119,-1
 938 -12 l 1,120,-1
 938 -75 l 1,121,-1
 906 -75 l 1,122,-1
 875 -75 l 1,123,-1
 875 -106 l 1,124,-1
 875 -138 l 1,125,-1
 781 -138 l 1,126,-1
 688 -138 l 1,127,-1
 688 -106 l 1,128,-1
 688 -75 l 1,129,-1
 656 -75 l 1,130,-1
 625 -75 l 1,131,-1
 625 -44 l 1,132,-1
 625 -12 l 1,133,-1
 594 -12 l 1,134,-1
 562 -12 l 1,135,-1
 562 19 l 1,136,-1
 562 50 l 1,137,-1
 531 50 l 1,138,-1
 500 50 l 1,139,-1
 500 19 l 1,140,-1
 500 -12 l 1,141,-1
 469 -12 l 1,142,-1
 438 -12 l 1,143,-1
 438 -44 l 1,144,-1
 438 -75 l 1,145,-1
 406 -75 l 1,146,-1
 375 -75 l 1,147,-1
 375 -106 l 1,148,-1
 375 -138 l 1,149,-1
 281 -138 l 1,150,-1
 188 -138 l 1,151,-1
 188 -106 l 1,152,-1
 188 -75 l 1,153,-1
 156 -75 l 1,154,-1
 125 -75 l 1,155,-1
 125 -44 l 1,156,-1
 125 -12 l 1,157,-1
 94 -12 l 1,158,-1
 62 -12 l 1,159,-1
 62 81 l 1,160,-1
 62 175 l 1,161,-1
 94 175 l 1,162,-1
 125 175 l 1,163,-1
 125 206 l 1,164,-1
 125 238 l 1,165,-1
 156 238 l 1,166,-1
 188 238 l 1,167,-1
 188 269 l 1,168,-1
 188 300 l 1,169,-1
 312 300 l 1,170,-1
 438 300 l 1,171,-1
 438 331 l 1,172,-1
 438 362 l 1,173,-1
 406 362 l 1,174,-1
 375 362 l 1,175,-1
 375 394 l 1,176,-1
 375 425 l 1,177,-1
 312 425 l 1,178,-1
 250 425 l 1,179,-1
 250 456 l 1,180,-1
 250 488 l 1,181,-1
 219 488 l 1,182,-1
 188 488 l 1,183,-1
 188 519 l 1,184,-1
 188 550 l 1,185,-1
 156 550 l 1,186,-1
 125 550 l 1,187,-1
 125 581 l 1,188,-1
 125 612 l 1,189,-1
 94 612 l 1,190,-1
 62 612 l 1,191,-1
 62 675 l 1,48,-1
EndSplineSet
MultipleSubs2: "Multiple Substitution lookup 2 subtable" esunTok cartoucheMiddleTok
Ligature2: "'liga' Standard Ligatures in Latin lookup 0 subtable" e s u n
EndChar

StartChar: ijoTok
Encoding: 989452 989452 101
Width: 1000
GlyphClass: 1
Flags: W
LayerCount: 2
Fore
SplineSet
562 581 m 1,0,-1
 562 612 l 1,1,-1
 500 612 l 1,2,-1
 438 612 l 1,3,-1
 438 581 l 1,4,-1
 438 550 l 1,5,-1
 375 550 l 1,6,-1
 312 550 l 1,7,-1
 312 519 l 1,8,-1
 312 488 l 1,9,-1
 281 488 l 1,10,-1
 250 488 l 1,11,-1
 250 425 l 1,12,-1
 250 362 l 1,13,-1
 219 362 l 1,14,-1
 188 362 l 1,15,-1
 188 300 l 1,16,-1
 188 238 l 1,17,-1
 219 238 l 1,18,-1
 250 238 l 1,19,-1
 250 175 l 1,20,-1
 250 112 l 1,21,-1
 281 112 l 1,22,-1
 312 112 l 1,23,-1
 312 81 l 1,24,-1
 312 50 l 1,25,-1
 375 50 l 1,26,-1
 438 50 l 1,27,-1
 438 19 l 1,28,-1
 438 -12 l 1,29,-1
 500 -12 l 1,30,-1
 562 -12 l 1,31,-1
 562 19 l 1,32,-1
 562 50 l 1,33,-1
 625 50 l 1,34,-1
 688 50 l 1,35,-1
 688 81 l 1,36,-1
 688 112 l 1,37,-1
 719 112 l 1,38,-1
 750 112 l 1,39,-1
 750 175 l 1,40,-1
 750 238 l 1,41,-1
 781 238 l 1,42,-1
 812 238 l 1,43,-1
 812 300 l 1,44,-1
 812 362 l 1,45,-1
 781 362 l 1,46,-1
 750 362 l 1,47,-1
 750 425 l 1,48,-1
 750 488 l 1,49,-1
 719 488 l 1,50,-1
 688 488 l 1,51,-1
 688 519 l 1,52,-1
 688 550 l 1,53,-1
 625 550 l 1,54,-1
 562 550 l 1,55,-1
 562 581 l 1,0,-1
375 706 m 1,56,-1
 375 738 l 1,57,-1
 500 738 l 1,58,-1
 625 738 l 1,59,-1
 625 706 l 1,60,-1
 625 675 l 1,61,-1
 688 675 l 1,62,-1
 750 675 l 1,63,-1
 750 644 l 1,64,-1
 750 612 l 1,65,-1
 781 612 l 1,66,-1
 812 612 l 1,67,-1
 812 581 l 1,68,-1
 812 550 l 1,69,-1
 844 550 l 1,70,-1
 875 550 l 1,71,-1
 875 488 l 1,72,-1
 875 425 l 1,73,-1
 906 425 l 1,74,-1
 938 425 l 1,75,-1
 938 300 l 1,76,-1
 938 175 l 1,77,-1
 906 175 l 1,78,-1
 875 175 l 1,79,-1
 875 112 l 1,80,-1
 875 50 l 1,81,-1
 844 50 l 1,82,-1
 812 50 l 1,83,-1
 812 19 l 1,84,-1
 812 -12 l 1,85,-1
 781 -12 l 1,86,-1
 750 -12 l 1,87,-1
 750 -44 l 1,88,-1
 750 -75 l 1,89,-1
 688 -75 l 1,90,-1
 625 -75 l 1,91,-1
 625 -106 l 1,92,-1
 625 -138 l 1,93,-1
 500 -138 l 1,94,-1
 375 -138 l 1,95,-1
 375 -106 l 1,96,-1
 375 -75 l 1,97,-1
 312 -75 l 1,98,-1
 250 -75 l 1,99,-1
 250 -44 l 1,100,-1
 250 -12 l 1,101,-1
 219 -12 l 1,102,-1
 188 -12 l 1,103,-1
 188 19 l 1,104,-1
 188 50 l 1,105,-1
 156 50 l 1,106,-1
 125 50 l 1,107,-1
 125 112 l 1,108,-1
 125 175 l 1,109,-1
 94 175 l 1,110,-1
 62 175 l 1,111,-1
 62 300 l 1,112,-1
 62 425 l 1,113,-1
 94 425 l 1,114,-1
 125 425 l 1,115,-1
 125 488 l 1,116,-1
 125 550 l 1,117,-1
 156 550 l 1,118,-1
 188 550 l 1,119,-1
 188 581 l 1,120,-1
 188 612 l 1,121,-1
 219 612 l 1,122,-1
 250 612 l 1,123,-1
 250 644 l 1,124,-1
 250 675 l 1,125,-1
 312 675 l 1,126,-1
 375 675 l 1,127,-1
 375 706 l 1,56,-1
EndSplineSet
MultipleSubs2: "Multiple Substitution lookup 2 subtable" ijoTok cartoucheMiddleTok
Ligature2: "'liga' Standard Ligatures in Latin lookup 0 subtable" i j o
EndChar

StartChar: ikeTok
Encoding: 989453 989453 102
Width: 1000
GlyphClass: 1
Flags: W
LayerCount: 2
Fore
SplineSet
312 519 m 1,0,-1
 312 550 l 1,1,-1
 500 550 l 1,2,-1
 688 550 l 1,3,-1
 688 519 l 1,4,-1
 688 488 l 1,5,-1
 750 488 l 1,6,-1
 812 488 l 1,7,-1
 812 456 l 1,8,-1
 812 425 l 1,9,-1
 844 425 l 1,10,-1
 875 425 l 1,11,-1
 875 362 l 1,12,-1
 875 300 l 1,13,-1
 906 300 l 1,14,-1
 938 300 l 1,15,-1
 938 206 l 1,16,-1
 938 112 l 1,17,-1
 875 112 l 1,18,-1
 812 112 l 1,19,-1
 812 175 l 1,20,-1
 812 238 l 1,21,-1
 781 238 l 1,22,-1
 750 238 l 1,23,-1
 750 300 l 1,24,-1
 750 362 l 1,25,-1
 688 362 l 1,26,-1
 625 362 l 1,27,-1
 625 394 l 1,28,-1
 625 425 l 1,29,-1
 500 425 l 1,30,-1
 375 425 l 1,31,-1
 375 394 l 1,32,-1
 375 362 l 1,33,-1
 312 362 l 1,34,-1
 250 362 l 1,35,-1
 250 300 l 1,36,-1
 250 238 l 1,37,-1
 219 238 l 1,38,-1
 188 238 l 1,39,-1
 188 175 l 1,40,-1
 188 112 l 1,41,-1
 125 112 l 1,42,-1
 62 112 l 1,43,-1
 62 206 l 1,44,-1
 62 300 l 1,45,-1
 94 300 l 1,46,-1
 125 300 l 1,47,-1
 125 362 l 1,48,-1
 125 425 l 1,49,-1
 156 425 l 1,50,-1
 188 425 l 1,51,-1
 188 456 l 1,52,-1
 188 488 l 1,53,-1
 250 488 l 1,54,-1
 312 488 l 1,55,-1
 312 519 l 1,0,-1
EndSplineSet
MultipleSubs2: "Multiple Substitution lookup 2 subtable" ikeTok cartoucheMiddleTok
Ligature2: "'liga' Standard Ligatures in Latin lookup 0 subtable" i k e
EndChar

StartChar: iloTok
Encoding: 989454 989454 103
Width: 1000
GlyphClass: 1
Flags: W
LayerCount: 2
Fore
SplineSet
812 456 m 1,0,-1
 812 612 l 1,1,-1
 688 612 l 1,2,-1
 562 612 l 1,3,-1
 562 456 l 1,4,-1
 562 300 l 1,5,-1
 688 300 l 1,6,-1
 812 300 l 1,7,-1
 812 456 l 1,0,-1
438 456 m 1,8,-1
 438 612 l 1,9,-1
 312 612 l 1,10,-1
 188 612 l 1,11,-1
 188 456 l 1,12,-1
 188 300 l 1,13,-1
 312 300 l 1,14,-1
 438 300 l 1,15,-1
 438 456 l 1,8,-1
62 456 m 1,16,-1
 62 738 l 1,17,-1
 500 738 l 1,18,-1
 938 738 l 1,19,-1
 938 456 l 1,20,-1
 938 175 l 1,21,-1
 750 175 l 1,22,-1
 562 175 l 1,23,-1
 562 19 l 1,24,-1
 562 -138 l 1,25,-1
 500 -138 l 1,26,-1
 438 -138 l 1,27,-1
 438 19 l 1,28,-1
 438 175 l 1,29,-1
 250 175 l 1,30,-1
 62 175 l 1,31,-1
 62 456 l 1,16,-1
EndSplineSet
MultipleSubs2: "Multiple Substitution lookup 2 subtable" iloTok cartoucheMiddleTok
Ligature2: "'liga' Standard Ligatures in Latin lookup 0 subtable" i l o
EndChar

StartChar: insaTok
Encoding: 989455 989455 104
Width: 1000
GlyphClass: 1
Flags: W
LayerCount: 2
Fore
SplineSet
438 362 m 1,0,-1
 438 425 l 1,1,-1
 500 425 l 1,2,-1
 562 425 l 1,3,-1
 562 362 l 1,4,-1
 562 300 l 1,5,-1
 500 300 l 1,6,-1
 438 300 l 1,7,-1
 438 362 l 1,0,-1
125 300 m 1,8,-1
 125 550 l 1,9,-1
 188 550 l 1,10,-1
 250 550 l 1,11,-1
 250 362 l 1,12,-1
 250 175 l 1,13,-1
 500 175 l 1,14,-1
 750 175 l 1,15,-1
 750 362 l 1,16,-1
 750 550 l 1,17,-1
 812 550 l 1,18,-1
 875 550 l 1,19,-1
 875 300 l 1,20,-1
 875 50 l 1,21,-1
 500 50 l 1,22,-1
 125 50 l 1,23,-1
 125 300 l 1,8,-1
EndSplineSet
MultipleSubs2: "Multiple Substitution lookup 2 subtable" insaTok cartoucheMiddleTok
Ligature2: "'liga' Standard Ligatures in Latin lookup 0 subtable" i n s a
EndChar

StartChar: jakiTok
Encoding: 989456 989456 105
Width: 1000
GlyphClass: 1
Flags: W
LayerCount: 2
Fore
SplineSet
562 144 m 1,0,-1
 562 175 l 1,1,-1
 500 175 l 1,2,-1
 438 175 l 1,3,-1
 438 144 l 1,4,-1
 438 112 l 1,5,-1
 469 112 l 1,6,-1
 500 112 l 1,7,-1
 500 50 l 1,8,-1
 500 -12 l 1,9,-1
 562 -12 l 1,10,-1
 625 -12 l 1,11,-1
 625 19 l 1,12,-1
 625 50 l 1,13,-1
 688 50 l 1,14,-1
 750 50 l 1,15,-1
 750 81 l 1,16,-1
 750 112 l 1,17,-1
 781 112 l 1,18,-1
 812 112 l 1,19,-1
 812 144 l 1,20,-1
 812 175 l 1,21,-1
 750 175 l 1,22,-1
 688 175 l 1,23,-1
 688 144 l 1,24,-1
 688 112 l 1,25,-1
 625 112 l 1,26,-1
 562 112 l 1,27,-1
 562 144 l 1,0,-1
438 331 m 1,28,-1
 438 362 l 1,29,-1
 375 362 l 1,30,-1
 312 362 l 1,31,-1
 312 300 l 1,32,-1
 312 238 l 1,33,-1
 344 238 l 1,34,-1
 375 238 l 1,35,-1
 375 269 l 1,36,-1
 375 300 l 1,37,-1
 406 300 l 1,38,-1
 438 300 l 1,39,-1
 438 331 l 1,28,-1
688 394 m 1,40,-1
 688 425 l 1,41,-1
 625 425 l 1,42,-1
 562 425 l 1,43,-1
 562 362 l 1,44,-1
 562 300 l 1,45,-1
 594 300 l 1,46,-1
 625 300 l 1,47,-1
 625 269 l 1,48,-1
 625 238 l 1,49,-1
 656 238 l 1,50,-1
 688 238 l 1,51,-1
 688 269 l 1,52,-1
 688 300 l 1,53,-1
 719 300 l 1,54,-1
 750 300 l 1,55,-1
 750 331 l 1,56,-1
 750 362 l 1,57,-1
 719 362 l 1,58,-1
 688 362 l 1,59,-1
 688 394 l 1,40,-1
500 581 m 1,60,-1
 500 612 l 1,61,-1
 438 612 l 1,62,-1
 375 612 l 1,63,-1
 375 581 l 1,64,-1
 375 550 l 1,65,-1
 344 550 l 1,66,-1
 312 550 l 1,67,-1
 312 519 l 1,68,-1
 312 488 l 1,69,-1
 375 488 l 1,70,-1
 438 488 l 1,71,-1
 438 519 l 1,72,-1
 438 550 l 1,73,-1
 469 550 l 1,74,-1
 500 550 l 1,75,-1
 500 581 l 1,60,-1
312 706 m 1,76,-1
 312 738 l 1,77,-1
 438 738 l 1,78,-1
 562 738 l 1,79,-1
 562 706 l 1,80,-1
 562 675 l 1,81,-1
 594 675 l 1,82,-1
 625 675 l 1,83,-1
 625 644 l 1,84,-1
 625 612 l 1,85,-1
 656 612 l 1,86,-1
 688 612 l 1,87,-1
 688 550 l 1,88,-1
 688 488 l 1,89,-1
 750 488 l 1,90,-1
 812 488 l 1,91,-1
 812 456 l 1,92,-1
 812 425 l 1,93,-1
 844 425 l 1,94,-1
 875 425 l 1,95,-1
 875 394 l 1,96,-1
 875 362 l 1,97,-1
 906 362 l 1,98,-1
 938 362 l 1,99,-1
 938 206 l 1,100,-1
 938 50 l 1,101,-1
 906 50 l 1,102,-1
 875 50 l 1,103,-1
 875 19 l 1,104,-1
 875 -12 l 1,105,-1
 844 -12 l 1,106,-1
 812 -12 l 1,107,-1
 812 -44 l 1,108,-1
 812 -75 l 1,109,-1
 750 -75 l 1,110,-1
 688 -75 l 1,111,-1
 688 -106 l 1,112,-1
 688 -138 l 1,113,-1
 562 -138 l 1,114,-1
 438 -138 l 1,115,-1
 438 -106 l 1,116,-1
 438 -75 l 1,117,-1
 406 -75 l 1,118,-1
 375 -75 l 1,119,-1
 375 19 l 1,120,-1
 375 112 l 1,121,-1
 344 112 l 1,122,-1
 312 112 l 1,123,-1
 312 50 l 1,124,-1
 312 -12 l 1,125,-1
 281 -12 l 1,126,-1
 250 -12 l 1,127,-1
 250 -44 l 1,128,-1
 250 -75 l 1,129,-1
 219 -75 l 1,130,-1
 188 -75 l 1,131,-1
 188 -106 l 1,132,-1
 188 -138 l 1,133,-1
 125 -138 l 1,134,-1
 62 -138 l 1,135,-1
 62 -75 l 1,136,-1
 62 -12 l 1,137,-1
 94 -12 l 1,138,-1
 125 -12 l 1,139,-1
 125 19 l 1,140,-1
 125 50 l 1,141,-1
 156 50 l 1,142,-1
 188 50 l 1,143,-1
 188 175 l 1,144,-1
 188 300 l 1,145,-1
 125 300 l 1,146,-1
 62 300 l 1,147,-1
 62 362 l 1,148,-1
 62 425 l 1,149,-1
 94 425 l 1,150,-1
 125 425 l 1,151,-1
 125 456 l 1,152,-1
 125 488 l 1,153,-1
 156 488 l 1,154,-1
 188 488 l 1,155,-1
 188 550 l 1,156,-1
 188 612 l 1,157,-1
 219 612 l 1,158,-1
 250 612 l 1,159,-1
 250 644 l 1,160,-1
 250 675 l 1,161,-1
 281 675 l 1,162,-1
 312 675 l 1,163,-1
 312 706 l 1,76,-1
EndSplineSet
MultipleSubs2: "Multiple Substitution lookup 2 subtable" jakiTok cartoucheMiddleTok
Ligature2: "'liga' Standard Ligatures in Latin lookup 0 subtable" j a k i
EndChar

StartChar: janTok
Encoding: 989457 989457 106
Width: 1000
GlyphClass: 1
Flags: W
LayerCount: 2
Fore
SplineSet
625 581 m 1,0,-1
 625 612 l 1,1,-1
 500 612 l 1,2,-1
 375 612 l 1,3,-1
 375 581 l 1,4,-1
 375 550 l 1,5,-1
 344 550 l 1,6,-1
 312 550 l 1,7,-1
 312 519 l 1,8,-1
 312 488 l 1,9,-1
 281 488 l 1,10,-1
 250 488 l 1,11,-1
 250 362 l 1,12,-1
 250 238 l 1,13,-1
 281 238 l 1,14,-1
 312 238 l 1,15,-1
 312 206 l 1,16,-1
 312 175 l 1,17,-1
 344 175 l 1,18,-1
 375 175 l 1,19,-1
 375 144 l 1,20,-1
 375 112 l 1,21,-1
 500 112 l 1,22,-1
 625 112 l 1,23,-1
 625 144 l 1,24,-1
 625 175 l 1,25,-1
 656 175 l 1,26,-1
 688 175 l 1,27,-1
 688 206 l 1,28,-1
 688 238 l 1,29,-1
 719 238 l 1,30,-1
 750 238 l 1,31,-1
 750 362 l 1,32,-1
 750 488 l 1,33,-1
 719 488 l 1,34,-1
 688 488 l 1,35,-1
 688 519 l 1,36,-1
 688 550 l 1,37,-1
 656 550 l 1,38,-1
 625 550 l 1,39,-1
 625 581 l 1,0,-1
375 706 m 1,40,-1
 375 738 l 1,41,-1
 500 738 l 1,42,-1
 625 738 l 1,43,-1
 625 706 l 1,44,-1
 625 675 l 1,45,-1
 688 675 l 1,46,-1
 750 675 l 1,47,-1
 750 644 l 1,48,-1
 750 612 l 1,49,-1
 781 612 l 1,50,-1
 812 612 l 1,51,-1
 812 550 l 1,52,-1
 812 488 l 1,53,-1
 844 488 l 1,54,-1
 875 488 l 1,55,-1
 875 362 l 1,56,-1
 875 238 l 1,57,-1
 844 238 l 1,58,-1
 812 238 l 1,59,-1
 812 175 l 1,60,-1
 812 112 l 1,61,-1
 781 112 l 1,62,-1
 750 112 l 1,63,-1
 750 81 l 1,64,-1
 750 50 l 1,65,-1
 781 50 l 1,66,-1
 812 50 l 1,67,-1
 812 19 l 1,68,-1
 812 -12 l 1,69,-1
 844 -12 l 1,70,-1
 875 -12 l 1,71,-1
 875 -75 l 1,72,-1
 875 -138 l 1,73,-1
 812 -138 l 1,74,-1
 750 -138 l 1,75,-1
 750 -106 l 1,76,-1
 750 -75 l 1,77,-1
 719 -75 l 1,78,-1
 688 -75 l 1,79,-1
 688 -44 l 1,80,-1
 688 -12 l 1,81,-1
 500 -12 l 1,82,-1
 312 -12 l 1,83,-1
 312 -44 l 1,84,-1
 312 -75 l 1,85,-1
 281 -75 l 1,86,-1
 250 -75 l 1,87,-1
 250 -106 l 1,88,-1
 250 -138 l 1,89,-1
 188 -138 l 1,90,-1
 125 -138 l 1,91,-1
 125 -75 l 1,92,-1
 125 -12 l 1,93,-1
 156 -12 l 1,94,-1
 188 -12 l 1,95,-1
 188 19 l 1,96,-1
 188 50 l 1,97,-1
 219 50 l 1,98,-1
 250 50 l 1,99,-1
 250 81 l 1,100,-1
 250 112 l 1,101,-1
 219 112 l 1,102,-1
 188 112 l 1,103,-1
 188 175 l 1,104,-1
 188 238 l 1,105,-1
 156 238 l 1,106,-1
 125 238 l 1,107,-1
 125 362 l 1,108,-1
 125 488 l 1,109,-1
 156 488 l 1,110,-1
 188 488 l 1,111,-1
 188 550 l 1,112,-1
 188 612 l 1,113,-1
 219 612 l 1,114,-1
 250 612 l 1,115,-1
 250 644 l 1,116,-1
 250 675 l 1,117,-1
 312 675 l 1,118,-1
 375 675 l 1,119,-1
 375 706 l 1,40,-1
EndSplineSet
MultipleSubs2: "Multiple Substitution lookup 2 subtable" janTok cartoucheMiddleTok
Ligature2: "'liga' Standard Ligatures in Latin lookup 0 subtable" j a n
EndChar

StartChar: jeloTok
Encoding: 989458 989458 107
Width: 1000
GlyphClass: 1
Flags: W
LayerCount: 2
Fore
SplineSet
562 19 m 1,0,-1
 562 50 l 1,1,-1
 500 50 l 1,2,-1
 438 50 l 1,3,-1
 438 19 l 1,4,-1
 438 -12 l 1,5,-1
 500 -12 l 1,6,-1
 562 -12 l 1,7,-1
 562 19 l 1,0,-1
562 456 m 1,8,-1
 562 488 l 1,9,-1
 500 488 l 1,10,-1
 438 488 l 1,11,-1
 438 456 l 1,12,-1
 438 425 l 1,13,-1
 406 425 l 1,14,-1
 375 425 l 1,15,-1
 375 362 l 1,16,-1
 375 300 l 1,17,-1
 406 300 l 1,18,-1
 438 300 l 1,19,-1
 438 269 l 1,20,-1
 438 238 l 1,21,-1
 500 238 l 1,22,-1
 562 238 l 1,23,-1
 562 269 l 1,24,-1
 562 300 l 1,25,-1
 594 300 l 1,26,-1
 625 300 l 1,27,-1
 625 362 l 1,28,-1
 625 425 l 1,29,-1
 594 425 l 1,30,-1
 562 425 l 1,31,-1
 562 456 l 1,8,-1
438 675 m 1,32,-1
 438 738 l 1,33,-1
 500 738 l 1,34,-1
 562 738 l 1,35,-1
 562 675 l 1,36,-1
 562 612 l 1,37,-1
 594 612 l 1,38,-1
 625 612 l 1,39,-1
 625 581 l 1,40,-1
 625 550 l 1,41,-1
 656 550 l 1,42,-1
 688 550 l 1,43,-1
 688 519 l 1,44,-1
 688 488 l 1,45,-1
 719 488 l 1,46,-1
 750 488 l 1,47,-1
 750 456 l 1,48,-1
 750 425 l 1,49,-1
 812 425 l 1,50,-1
 875 425 l 1,51,-1
 875 362 l 1,52,-1
 875 300 l 1,53,-1
 812 300 l 1,54,-1
 750 300 l 1,55,-1
 750 269 l 1,56,-1
 750 238 l 1,57,-1
 719 238 l 1,58,-1
 688 238 l 1,59,-1
 688 206 l 1,60,-1
 688 175 l 1,61,-1
 656 175 l 1,62,-1
 625 175 l 1,63,-1
 625 144 l 1,64,-1
 625 112 l 1,65,-1
 656 112 l 1,66,-1
 688 112 l 1,67,-1
 688 81 l 1,68,-1
 688 50 l 1,69,-1
 719 50 l 1,70,-1
 750 50 l 1,71,-1
 750 19 l 1,72,-1
 750 -12 l 1,73,-1
 781 -12 l 1,74,-1
 812 -12 l 1,75,-1
 812 -44 l 1,76,-1
 812 -75 l 1,77,-1
 844 -75 l 1,78,-1
 875 -75 l 1,79,-1
 875 -106 l 1,80,-1
 875 -138 l 1,81,-1
 500 -138 l 1,82,-1
 125 -138 l 1,83,-1
 125 -106 l 1,84,-1
 125 -75 l 1,85,-1
 156 -75 l 1,86,-1
 188 -75 l 1,87,-1
 188 -44 l 1,88,-1
 188 -12 l 1,89,-1
 219 -12 l 1,90,-1
 250 -12 l 1,91,-1
 250 19 l 1,92,-1
 250 50 l 1,93,-1
 281 50 l 1,94,-1
 312 50 l 1,95,-1
 312 81 l 1,96,-1
 312 112 l 1,97,-1
 344 112 l 1,98,-1
 375 112 l 1,99,-1
 375 144 l 1,100,-1
 375 175 l 1,101,-1
 344 175 l 1,102,-1
 312 175 l 1,103,-1
 312 206 l 1,104,-1
 312 238 l 1,105,-1
 281 238 l 1,106,-1
 250 238 l 1,107,-1
 250 269 l 1,108,-1
 250 300 l 1,109,-1
 188 300 l 1,110,-1
 125 300 l 1,111,-1
 125 362 l 1,112,-1
 125 425 l 1,113,-1
 188 425 l 1,114,-1
 250 425 l 1,115,-1
 250 456 l 1,116,-1
 250 488 l 1,117,-1
 281 488 l 1,118,-1
 312 488 l 1,119,-1
 312 519 l 1,120,-1
 312 550 l 1,121,-1
 344 550 l 1,122,-1
 375 550 l 1,123,-1
 375 581 l 1,124,-1
 375 612 l 1,125,-1
 406 612 l 1,126,-1
 438 612 l 1,127,-1
 438 675 l 1,32,-1
EndSplineSet
MultipleSubs2: "Multiple Substitution lookup 2 subtable" jeloTok cartoucheMiddleTok
Ligature2: "'liga' Standard Ligatures in Latin lookup 0 subtable" j e l o
EndChar

StartChar: joTok
Encoding: 989459 989459 108
Width: 1000
GlyphClass: 1
Flags: W
LayerCount: 2
Fore
SplineSet
625 550 m 1,0,-1
 625 612 l 1,1,-1
 562 612 l 1,2,-1
 500 612 l 1,3,-1
 500 550 l 1,4,-1
 500 488 l 1,5,-1
 562 488 l 1,6,-1
 625 488 l 1,7,-1
 625 550 l 1,0,-1
438 706 m 1,8,-1
 438 738 l 1,9,-1
 562 738 l 1,10,-1
 688 738 l 1,11,-1
 688 706 l 1,12,-1
 688 675 l 1,13,-1
 719 675 l 1,14,-1
 750 675 l 1,15,-1
 750 550 l 1,16,-1
 750 425 l 1,17,-1
 719 425 l 1,18,-1
 688 425 l 1,19,-1
 688 394 l 1,20,-1
 688 362 l 1,21,-1
 531 362 l 1,22,-1
 375 362 l 1,23,-1
 375 331 l 1,24,-1
 375 300 l 1,25,-1
 344 300 l 1,26,-1
 312 300 l 1,27,-1
 312 175 l 1,28,-1
 312 50 l 1,29,-1
 344 50 l 1,30,-1
 375 50 l 1,31,-1
 375 19 l 1,32,-1
 375 -12 l 1,33,-1
 500 -12 l 1,34,-1
 625 -12 l 1,35,-1
 625 19 l 1,36,-1
 625 50 l 1,37,-1
 656 50 l 1,38,-1
 688 50 l 1,39,-1
 688 81 l 1,40,-1
 688 112 l 1,41,-1
 594 112 l 1,42,-1
 500 112 l 1,43,-1
 500 175 l 1,44,-1
 500 238 l 1,45,-1
 656 238 l 1,46,-1
 812 238 l 1,47,-1
 812 112 l 1,48,-1
 812 -12 l 1,49,-1
 781 -12 l 1,50,-1
 750 -12 l 1,51,-1
 750 -44 l 1,52,-1
 750 -75 l 1,53,-1
 719 -75 l 1,54,-1
 688 -75 l 1,55,-1
 688 -106 l 1,56,-1
 688 -138 l 1,57,-1
 500 -138 l 1,58,-1
 312 -138 l 1,59,-1
 312 -106 l 1,60,-1
 312 -75 l 1,61,-1
 281 -75 l 1,62,-1
 250 -75 l 1,63,-1
 250 -44 l 1,64,-1
 250 -12 l 1,65,-1
 219 -12 l 1,66,-1
 188 -12 l 1,67,-1
 188 175 l 1,68,-1
 188 362 l 1,69,-1
 219 362 l 1,70,-1
 250 362 l 1,71,-1
 250 394 l 1,72,-1
 250 425 l 1,73,-1
 281 425 l 1,74,-1
 312 425 l 1,75,-1
 312 456 l 1,76,-1
 312 488 l 1,77,-1
 344 488 l 1,78,-1
 375 488 l 1,79,-1
 375 581 l 1,80,-1
 375 675 l 1,81,-1
 406 675 l 1,82,-1
 438 675 l 1,83,-1
 438 706 l 1,8,-1
EndSplineSet
MultipleSubs2: "Multiple Substitution lookup 2 subtable" joTok cartoucheMiddleTok
Ligature2: "'liga' Standard Ligatures in Latin lookup 0 subtable" j o
EndChar

StartChar: kalaTok
Encoding: 989460 989460 109
Width: 1000
GlyphClass: 1
Flags: W
LayerCount: 2
Fore
SplineSet
750 456 m 1,0,-1
 750 488 l 1,1,-1
 656 488 l 1,2,-1
 562 488 l 1,3,-1
 562 456 l 1,4,-1
 562 425 l 1,5,-1
 531 425 l 1,6,-1
 500 425 l 1,7,-1
 500 394 l 1,8,-1
 500 362 l 1,9,-1
 469 362 l 1,10,-1
 438 362 l 1,11,-1
 438 300 l 1,12,-1
 438 238 l 1,13,-1
 469 238 l 1,14,-1
 500 238 l 1,15,-1
 500 206 l 1,16,-1
 500 175 l 1,17,-1
 531 175 l 1,18,-1
 562 175 l 1,19,-1
 562 144 l 1,20,-1
 562 112 l 1,21,-1
 656 112 l 1,22,-1
 750 112 l 1,23,-1
 750 144 l 1,24,-1
 750 175 l 1,25,-1
 781 175 l 1,26,-1
 812 175 l 1,27,-1
 812 300 l 1,28,-1
 812 425 l 1,29,-1
 781 425 l 1,30,-1
 750 425 l 1,31,-1
 750 456 l 1,0,-1
62 550 m 1,32,-1
 62 612 l 1,33,-1
 125 612 l 1,34,-1
 188 612 l 1,35,-1
 188 581 l 1,36,-1
 188 550 l 1,37,-1
 219 550 l 1,38,-1
 250 550 l 1,39,-1
 250 519 l 1,40,-1
 250 488 l 1,41,-1
 281 488 l 1,42,-1
 312 488 l 1,43,-1
 312 456 l 1,44,-1
 312 425 l 1,45,-1
 344 425 l 1,46,-1
 375 425 l 1,47,-1
 375 456 l 1,48,-1
 375 488 l 1,49,-1
 406 488 l 1,50,-1
 438 488 l 1,51,-1
 438 519 l 1,52,-1
 438 550 l 1,53,-1
 469 550 l 1,54,-1
 500 550 l 1,55,-1
 500 581 l 1,56,-1
 500 612 l 1,57,-1
 656 612 l 1,58,-1
 812 612 l 1,59,-1
 812 581 l 1,60,-1
 812 550 l 1,61,-1
 844 550 l 1,62,-1
 875 550 l 1,63,-1
 875 519 l 1,64,-1
 875 488 l 1,65,-1
 906 488 l 1,66,-1
 938 488 l 1,67,-1
 938 300 l 1,68,-1
 938 112 l 1,69,-1
 906 112 l 1,70,-1
 875 112 l 1,71,-1
 875 81 l 1,72,-1
 875 50 l 1,73,-1
 844 50 l 1,74,-1
 812 50 l 1,75,-1
 812 19 l 1,76,-1
 812 -12 l 1,77,-1
 656 -12 l 1,78,-1
 500 -12 l 1,79,-1
 500 19 l 1,80,-1
 500 50 l 1,81,-1
 469 50 l 1,82,-1
 438 50 l 1,83,-1
 438 81 l 1,84,-1
 438 112 l 1,85,-1
 406 112 l 1,86,-1
 375 112 l 1,87,-1
 375 144 l 1,88,-1
 375 175 l 1,89,-1
 344 175 l 1,90,-1
 312 175 l 1,91,-1
 312 144 l 1,92,-1
 312 112 l 1,93,-1
 281 112 l 1,94,-1
 250 112 l 1,95,-1
 250 81 l 1,96,-1
 250 50 l 1,97,-1
 219 50 l 1,98,-1
 188 50 l 1,99,-1
 188 19 l 1,100,-1
 188 -12 l 1,101,-1
 125 -12 l 1,102,-1
 62 -12 l 1,103,-1
 62 50 l 1,104,-1
 62 112 l 1,105,-1
 94 112 l 1,106,-1
 125 112 l 1,107,-1
 125 144 l 1,108,-1
 125 175 l 1,109,-1
 156 175 l 1,110,-1
 188 175 l 1,111,-1
 188 206 l 1,112,-1
 188 238 l 1,113,-1
 219 238 l 1,114,-1
 250 238 l 1,115,-1
 250 300 l 1,116,-1
 250 362 l 1,117,-1
 219 362 l 1,118,-1
 188 362 l 1,119,-1
 188 394 l 1,120,-1
 188 425 l 1,121,-1
 156 425 l 1,122,-1
 125 425 l 1,123,-1
 125 456 l 1,124,-1
 125 488 l 1,125,-1
 94 488 l 1,126,-1
 62 488 l 1,127,-1
 62 550 l 1,32,-1
EndSplineSet
MultipleSubs2: "Multiple Substitution lookup 2 subtable" kalaTok cartoucheMiddleTok
Ligature2: "'liga' Standard Ligatures in Latin lookup 0 subtable" k a l a
Ligature2: "'liga' Standard Ligatures in Latin lookup 0 subtable" k a l a east
EndChar

StartChar: kalamaTok
Encoding: 989461 989461 110
Width: 1000
GlyphClass: 1
Flags: W
LayerCount: 2
Fore
SplineSet
750 175 m 1,0,-1
 750 238 l 1,1,-1
 500 238 l 1,2,-1
 250 238 l 1,3,-1
 250 175 l 1,4,-1
 250 112 l 1,5,-1
 281 112 l 1,6,-1
 312 112 l 1,7,-1
 312 81 l 1,8,-1
 312 50 l 1,9,-1
 375 50 l 1,10,-1
 438 50 l 1,11,-1
 438 19 l 1,12,-1
 438 -12 l 1,13,-1
 500 -12 l 1,14,-1
 562 -12 l 1,15,-1
 562 19 l 1,16,-1
 562 50 l 1,17,-1
 625 50 l 1,18,-1
 688 50 l 1,19,-1
 688 81 l 1,20,-1
 688 112 l 1,21,-1
 719 112 l 1,22,-1
 750 112 l 1,23,-1
 750 175 l 1,0,-1
62 269 m 1,24,-1
 62 362 l 1,25,-1
 500 362 l 1,26,-1
 938 362 l 1,27,-1
 938 269 l 1,28,-1
 938 175 l 1,29,-1
 906 175 l 1,30,-1
 875 175 l 1,31,-1
 875 112 l 1,32,-1
 875 50 l 1,33,-1
 844 50 l 1,34,-1
 812 50 l 1,35,-1
 812 19 l 1,36,-1
 812 -12 l 1,37,-1
 781 -12 l 1,38,-1
 750 -12 l 1,39,-1
 750 -44 l 1,40,-1
 750 -75 l 1,41,-1
 688 -75 l 1,42,-1
 625 -75 l 1,43,-1
 625 -106 l 1,44,-1
 625 -138 l 1,45,-1
 500 -138 l 1,46,-1
 375 -138 l 1,47,-1
 375 -106 l 1,48,-1
 375 -75 l 1,49,-1
 312 -75 l 1,50,-1
 250 -75 l 1,51,-1
 250 -44 l 1,52,-1
 250 -12 l 1,53,-1
 219 -12 l 1,54,-1
 188 -12 l 1,55,-1
 188 19 l 1,56,-1
 188 50 l 1,57,-1
 156 50 l 1,58,-1
 125 50 l 1,59,-1
 125 112 l 1,60,-1
 125 175 l 1,61,-1
 94 175 l 1,62,-1
 62 175 l 1,63,-1
 62 269 l 1,24,-1
750 644 m 1,64,-1
 750 675 l 1,65,-1
 812 675 l 1,66,-1
 875 675 l 1,67,-1
 875 612 l 1,68,-1
 875 550 l 1,69,-1
 844 550 l 1,70,-1
 812 550 l 1,71,-1
 812 519 l 1,72,-1
 812 488 l 1,73,-1
 781 488 l 1,74,-1
 750 488 l 1,75,-1
 750 456 l 1,76,-1
 750 425 l 1,77,-1
 688 425 l 1,78,-1
 625 425 l 1,79,-1
 625 488 l 1,80,-1
 625 550 l 1,81,-1
 656 550 l 1,82,-1
 688 550 l 1,83,-1
 688 581 l 1,84,-1
 688 612 l 1,85,-1
 719 612 l 1,86,-1
 750 612 l 1,87,-1
 750 644 l 1,64,-1
125 612 m 1,88,-1
 125 675 l 1,89,-1
 188 675 l 1,90,-1
 250 675 l 1,91,-1
 250 644 l 1,92,-1
 250 612 l 1,93,-1
 281 612 l 1,94,-1
 312 612 l 1,95,-1
 312 581 l 1,96,-1
 312 550 l 1,97,-1
 344 550 l 1,98,-1
 375 550 l 1,99,-1
 375 488 l 1,100,-1
 375 425 l 1,101,-1
 312 425 l 1,102,-1
 250 425 l 1,103,-1
 250 456 l 1,104,-1
 250 488 l 1,105,-1
 219 488 l 1,106,-1
 188 488 l 1,107,-1
 188 519 l 1,108,-1
 188 550 l 1,109,-1
 156 550 l 1,110,-1
 125 550 l 1,111,-1
 125 612 l 1,88,-1
438 612 m 1,112,-1
 438 738 l 1,113,-1
 500 738 l 1,114,-1
 562 738 l 1,115,-1
 562 612 l 1,116,-1
 562 488 l 1,117,-1
 500 488 l 1,118,-1
 438 488 l 1,119,-1
 438 612 l 1,112,-1
EndSplineSet
MultipleSubs2: "Multiple Substitution lookup 2 subtable" kalamaTok cartoucheMiddleTok
Ligature2: "'liga' Standard Ligatures in Latin lookup 0 subtable" k a l a m a
EndChar

StartChar: kamaTok
Encoding: 989462 989462 111
Width: 1000
GlyphClass: 1
Flags: W
LayerCount: 2
Fore
SplineSet
562 675 m 1,0,-1
 562 738 l 1,1,-1
 625 738 l 1,2,-1
 688 738 l 1,3,-1
 688 675 l 1,4,-1
 688 612 l 1,5,-1
 719 612 l 1,6,-1
 750 612 l 1,7,-1
 750 519 l 1,8,-1
 750 425 l 1,9,-1
 781 425 l 1,10,-1
 812 425 l 1,11,-1
 812 331 l 1,12,-1
 812 238 l 1,13,-1
 844 238 l 1,14,-1
 875 238 l 1,15,-1
 875 144 l 1,16,-1
 875 50 l 1,17,-1
 906 50 l 1,18,-1
 938 50 l 1,19,-1
 938 -44 l 1,20,-1
 938 -138 l 1,21,-1
 750 -138 l 1,22,-1
 562 -138 l 1,23,-1
 562 -75 l 1,24,-1
 562 -12 l 1,25,-1
 656 -12 l 1,26,-1
 750 -12 l 1,27,-1
 750 81 l 1,28,-1
 750 175 l 1,29,-1
 719 175 l 1,30,-1
 688 175 l 1,31,-1
 688 269 l 1,32,-1
 688 362 l 1,33,-1
 625 362 l 1,34,-1
 562 362 l 1,35,-1
 562 269 l 1,36,-1
 562 175 l 1,37,-1
 531 175 l 1,38,-1
 500 175 l 1,39,-1
 500 81 l 1,40,-1
 500 -12 l 1,41,-1
 469 -12 l 1,42,-1
 438 -12 l 1,43,-1
 438 -75 l 1,44,-1
 438 -138 l 1,45,-1
 375 -138 l 1,46,-1
 312 -138 l 1,47,-1
 312 -106 l 1,48,-1
 312 -75 l 1,49,-1
 281 -75 l 1,50,-1
 250 -75 l 1,51,-1
 250 -44 l 1,52,-1
 250 -12 l 1,53,-1
 219 -12 l 1,54,-1
 188 -12 l 1,55,-1
 188 19 l 1,56,-1
 188 50 l 1,57,-1
 156 50 l 1,58,-1
 125 50 l 1,59,-1
 125 81 l 1,60,-1
 125 112 l 1,61,-1
 94 112 l 1,62,-1
 62 112 l 1,63,-1
 62 175 l 1,64,-1
 62 238 l 1,65,-1
 125 238 l 1,66,-1
 188 238 l 1,67,-1
 188 206 l 1,68,-1
 188 175 l 1,69,-1
 219 175 l 1,70,-1
 250 175 l 1,71,-1
 250 144 l 1,72,-1
 250 112 l 1,73,-1
 281 112 l 1,74,-1
 312 112 l 1,75,-1
 312 81 l 1,76,-1
 312 50 l 1,77,-1
 344 50 l 1,78,-1
 375 50 l 1,79,-1
 375 144 l 1,80,-1
 375 238 l 1,81,-1
 406 238 l 1,82,-1
 438 238 l 1,83,-1
 438 331 l 1,84,-1
 438 425 l 1,85,-1
 469 425 l 1,86,-1
 500 425 l 1,87,-1
 500 519 l 1,88,-1
 500 612 l 1,89,-1
 531 612 l 1,90,-1
 562 612 l 1,91,-1
 562 675 l 1,0,-1
EndSplineSet
MultipleSubs2: "Multiple Substitution lookup 2 subtable" kamaTok cartoucheMiddleTok
Ligature2: "'liga' Standard Ligatures in Latin lookup 0 subtable" k a m a
EndChar

StartChar: kasiTok
Encoding: 989463 989463 112
Width: 1000
GlyphClass: 1
Flags: W
LayerCount: 2
Fore
SplineSet
812 519 m 1,0,-1
 812 612 l 1,1,-1
 750 612 l 1,2,-1
 688 612 l 1,3,-1
 688 581 l 1,4,-1
 688 550 l 1,5,-1
 656 550 l 1,6,-1
 625 550 l 1,7,-1
 625 519 l 1,8,-1
 625 488 l 1,9,-1
 594 488 l 1,10,-1
 562 488 l 1,11,-1
 562 425 l 1,12,-1
 562 362 l 1,13,-1
 656 362 l 1,14,-1
 750 362 l 1,15,-1
 750 394 l 1,16,-1
 750 425 l 1,17,-1
 781 425 l 1,18,-1
 812 425 l 1,19,-1
 812 519 l 1,0,-1
312 581 m 1,20,-1
 312 612 l 1,21,-1
 250 612 l 1,22,-1
 188 612 l 1,23,-1
 188 519 l 1,24,-1
 188 425 l 1,25,-1
 219 425 l 1,26,-1
 250 425 l 1,27,-1
 250 394 l 1,28,-1
 250 362 l 1,29,-1
 344 362 l 1,30,-1
 438 362 l 1,31,-1
 438 425 l 1,32,-1
 438 488 l 1,33,-1
 406 488 l 1,34,-1
 375 488 l 1,35,-1
 375 519 l 1,36,-1
 375 550 l 1,37,-1
 344 550 l 1,38,-1
 312 550 l 1,39,-1
 312 581 l 1,20,-1
62 550 m 1,40,-1
 62 738 l 1,41,-1
 219 738 l 1,42,-1
 375 738 l 1,43,-1
 375 706 l 1,44,-1
 375 675 l 1,45,-1
 406 675 l 1,46,-1
 438 675 l 1,47,-1
 438 644 l 1,48,-1
 438 612 l 1,49,-1
 500 612 l 1,50,-1
 562 612 l 1,51,-1
 562 644 l 1,52,-1
 562 675 l 1,53,-1
 594 675 l 1,54,-1
 625 675 l 1,55,-1
 625 706 l 1,56,-1
 625 738 l 1,57,-1
 781 738 l 1,58,-1
 938 738 l 1,59,-1
 938 550 l 1,60,-1
 938 362 l 1,61,-1
 906 362 l 1,62,-1
 875 362 l 1,63,-1
 875 331 l 1,64,-1
 875 300 l 1,65,-1
 844 300 l 1,66,-1
 812 300 l 1,67,-1
 812 269 l 1,68,-1
 812 238 l 1,69,-1
 688 238 l 1,70,-1
 562 238 l 1,71,-1
 562 50 l 1,72,-1
 562 -138 l 1,73,-1
 500 -138 l 1,74,-1
 438 -138 l 1,75,-1
 438 50 l 1,76,-1
 438 238 l 1,77,-1
 312 238 l 1,78,-1
 188 238 l 1,79,-1
 188 269 l 1,80,-1
 188 300 l 1,81,-1
 156 300 l 1,82,-1
 125 300 l 1,83,-1
 125 331 l 1,84,-1
 125 362 l 1,85,-1
 94 362 l 1,86,-1
 62 362 l 1,87,-1
 62 550 l 1,40,-1
EndSplineSet
MultipleSubs2: "Multiple Substitution lookup 2 subtable" kasiTok cartoucheMiddleTok
Ligature2: "'liga' Standard Ligatures in Latin lookup 0 subtable" k a s i
EndChar

StartChar: kenTok
Encoding: 989464 989464 113
Width: 1000
GlyphClass: 1
Flags: W
LayerCount: 2
Fore
SplineSet
62 300 m 1,0,-1
 62 738 l 1,1,-1
 125 738 l 1,2,-1
 188 738 l 1,3,-1
 188 550 l 1,4,-1
 188 362 l 1,5,-1
 312 362 l 1,6,-1
 438 362 l 1,7,-1
 438 394 l 1,8,-1
 438 425 l 1,9,-1
 500 425 l 1,10,-1
 562 425 l 1,11,-1
 562 456 l 1,12,-1
 562 488 l 1,13,-1
 625 488 l 1,14,-1
 688 488 l 1,15,-1
 688 519 l 1,16,-1
 688 550 l 1,17,-1
 719 550 l 1,18,-1
 750 550 l 1,19,-1
 750 644 l 1,20,-1
 750 738 l 1,21,-1
 812 738 l 1,22,-1
 875 738 l 1,23,-1
 875 612 l 1,24,-1
 875 488 l 1,25,-1
 844 488 l 1,26,-1
 812 488 l 1,27,-1
 812 456 l 1,28,-1
 812 425 l 1,29,-1
 781 425 l 1,30,-1
 750 425 l 1,31,-1
 750 394 l 1,32,-1
 750 362 l 1,33,-1
 688 362 l 1,34,-1
 625 362 l 1,35,-1
 625 300 l 1,36,-1
 625 238 l 1,37,-1
 688 238 l 1,38,-1
 750 238 l 1,39,-1
 750 206 l 1,40,-1
 750 175 l 1,41,-1
 781 175 l 1,42,-1
 812 175 l 1,43,-1
 812 144 l 1,44,-1
 812 112 l 1,45,-1
 844 112 l 1,46,-1
 875 112 l 1,47,-1
 875 -12 l 1,48,-1
 875 -138 l 1,49,-1
 812 -138 l 1,50,-1
 750 -138 l 1,51,-1
 750 -44 l 1,52,-1
 750 50 l 1,53,-1
 719 50 l 1,54,-1
 688 50 l 1,55,-1
 688 81 l 1,56,-1
 688 112 l 1,57,-1
 625 112 l 1,58,-1
 562 112 l 1,59,-1
 562 144 l 1,60,-1
 562 175 l 1,61,-1
 500 175 l 1,62,-1
 438 175 l 1,63,-1
 438 206 l 1,64,-1
 438 238 l 1,65,-1
 312 238 l 1,66,-1
 188 238 l 1,67,-1
 188 50 l 1,68,-1
 188 -138 l 1,69,-1
 125 -138 l 1,70,-1
 62 -138 l 1,71,-1
 62 300 l 1,0,-1
EndSplineSet
MultipleSubs2: "Multiple Substitution lookup 2 subtable" kenTok cartoucheMiddleTok
Ligature2: "'liga' Standard Ligatures in Latin lookup 0 subtable" k e n
EndChar

StartChar: kepekenTok
Encoding: 989465 989465 114
Width: 1000
GlyphClass: 1
Flags: W
LayerCount: 2
Fore
SplineSet
812 550 m 1,0,-1
 812 612 l 1,1,-1
 750 612 l 1,2,-1
 688 612 l 1,3,-1
 688 550 l 1,4,-1
 688 488 l 1,5,-1
 750 488 l 1,6,-1
 812 488 l 1,7,-1
 812 550 l 1,0,-1
562 550 m 1,8,-1
 562 612 l 1,9,-1
 500 612 l 1,10,-1
 438 612 l 1,11,-1
 438 550 l 1,12,-1
 438 488 l 1,13,-1
 500 488 l 1,14,-1
 562 488 l 1,15,-1
 562 550 l 1,8,-1
312 550 m 1,16,-1
 312 738 l 1,17,-1
 625 738 l 1,18,-1
 938 738 l 1,19,-1
 938 550 l 1,20,-1
 938 362 l 1,21,-1
 812 362 l 1,22,-1
 688 362 l 1,23,-1
 688 331 l 1,24,-1
 688 300 l 1,25,-1
 750 300 l 1,26,-1
 812 300 l 1,27,-1
 812 269 l 1,28,-1
 812 238 l 1,29,-1
 844 238 l 1,30,-1
 875 238 l 1,31,-1
 875 206 l 1,32,-1
 875 175 l 1,33,-1
 906 175 l 1,34,-1
 938 175 l 1,35,-1
 938 19 l 1,36,-1
 938 -138 l 1,37,-1
 875 -138 l 1,38,-1
 812 -138 l 1,39,-1
 812 -12 l 1,40,-1
 812 112 l 1,41,-1
 781 112 l 1,42,-1
 750 112 l 1,43,-1
 750 144 l 1,44,-1
 750 175 l 1,45,-1
 625 175 l 1,46,-1
 500 175 l 1,47,-1
 500 144 l 1,48,-1
 500 112 l 1,49,-1
 469 112 l 1,50,-1
 438 112 l 1,51,-1
 438 -12 l 1,52,-1
 438 -138 l 1,53,-1
 344 -138 l 1,54,-1
 250 -138 l 1,55,-1
 250 -106 l 1,56,-1
 250 -75 l 1,57,-1
 219 -75 l 1,58,-1
 188 -75 l 1,59,-1
 188 -44 l 1,60,-1
 188 -12 l 1,61,-1
 156 -12 l 1,62,-1
 125 -12 l 1,63,-1
 125 19 l 1,64,-1
 125 50 l 1,65,-1
 94 50 l 1,66,-1
 62 50 l 1,67,-1
 62 112 l 1,68,-1
 62 175 l 1,69,-1
 125 175 l 1,70,-1
 188 175 l 1,71,-1
 188 144 l 1,72,-1
 188 112 l 1,73,-1
 219 112 l 1,74,-1
 250 112 l 1,75,-1
 250 81 l 1,76,-1
 250 50 l 1,77,-1
 281 50 l 1,78,-1
 312 50 l 1,79,-1
 312 112 l 1,80,-1
 312 175 l 1,81,-1
 344 175 l 1,82,-1
 375 175 l 1,83,-1
 375 206 l 1,84,-1
 375 238 l 1,85,-1
 406 238 l 1,86,-1
 438 238 l 1,87,-1
 438 269 l 1,88,-1
 438 300 l 1,89,-1
 500 300 l 1,90,-1
 562 300 l 1,91,-1
 562 331 l 1,92,-1
 562 362 l 1,93,-1
 438 362 l 1,94,-1
 312 362 l 1,95,-1
 312 550 l 1,16,-1
EndSplineSet
MultipleSubs2: "Multiple Substitution lookup 2 subtable" kepekenTok cartoucheMiddleTok
Ligature2: "'liga' Standard Ligatures in Latin lookup 0 subtable" k e p e k e n
EndChar

StartChar: kiliTok
Encoding: 989466 989466 115
Width: 1000
GlyphClass: 1
Flags: W
LayerCount: 2
Fore
SplineSet
438 394 m 1,0,-1
 438 425 l 1,1,-1
 375 425 l 1,2,-1
 312 425 l 1,3,-1
 312 394 l 1,4,-1
 312 362 l 1,5,-1
 281 362 l 1,6,-1
 250 362 l 1,7,-1
 250 331 l 1,8,-1
 250 300 l 1,9,-1
 219 300 l 1,10,-1
 188 300 l 1,11,-1
 188 206 l 1,12,-1
 188 112 l 1,13,-1
 219 112 l 1,14,-1
 250 112 l 1,15,-1
 250 81 l 1,16,-1
 250 50 l 1,17,-1
 281 50 l 1,18,-1
 312 50 l 1,19,-1
 312 19 l 1,20,-1
 312 -12 l 1,21,-1
 500 -12 l 1,22,-1
 688 -12 l 1,23,-1
 688 19 l 1,24,-1
 688 50 l 1,25,-1
 719 50 l 1,26,-1
 750 50 l 1,27,-1
 750 81 l 1,28,-1
 750 112 l 1,29,-1
 781 112 l 1,30,-1
 812 112 l 1,31,-1
 812 206 l 1,32,-1
 812 300 l 1,33,-1
 781 300 l 1,34,-1
 750 300 l 1,35,-1
 750 331 l 1,36,-1
 750 362 l 1,37,-1
 719 362 l 1,38,-1
 688 362 l 1,39,-1
 688 394 l 1,40,-1
 688 425 l 1,41,-1
 625 425 l 1,42,-1
 562 425 l 1,43,-1
 562 394 l 1,44,-1
 562 362 l 1,45,-1
 500 362 l 1,46,-1
 438 362 l 1,47,-1
 438 394 l 1,0,-1
500 706 m 1,48,-1
 500 738 l 1,49,-1
 562 738 l 1,50,-1
 625 738 l 1,51,-1
 625 675 l 1,52,-1
 625 612 l 1,53,-1
 594 612 l 1,54,-1
 562 612 l 1,55,-1
 562 581 l 1,56,-1
 562 550 l 1,57,-1
 625 550 l 1,58,-1
 688 550 l 1,59,-1
 688 519 l 1,60,-1
 688 488 l 1,61,-1
 750 488 l 1,62,-1
 812 488 l 1,63,-1
 812 456 l 1,64,-1
 812 425 l 1,65,-1
 844 425 l 1,66,-1
 875 425 l 1,67,-1
 875 394 l 1,68,-1
 875 362 l 1,69,-1
 906 362 l 1,70,-1
 938 362 l 1,71,-1
 938 206 l 1,72,-1
 938 50 l 1,73,-1
 906 50 l 1,74,-1
 875 50 l 1,75,-1
 875 19 l 1,76,-1
 875 -12 l 1,77,-1
 844 -12 l 1,78,-1
 812 -12 l 1,79,-1
 812 -44 l 1,80,-1
 812 -75 l 1,81,-1
 750 -75 l 1,82,-1
 688 -75 l 1,83,-1
 688 -106 l 1,84,-1
 688 -138 l 1,85,-1
 500 -138 l 1,86,-1
 312 -138 l 1,87,-1
 312 -106 l 1,88,-1
 312 -75 l 1,89,-1
 250 -75 l 1,90,-1
 188 -75 l 1,91,-1
 188 -44 l 1,92,-1
 188 -12 l 1,93,-1
 156 -12 l 1,94,-1
 125 -12 l 1,95,-1
 125 19 l 1,96,-1
 125 50 l 1,97,-1
 94 50 l 1,98,-1
 62 50 l 1,99,-1
 62 206 l 1,100,-1
 62 362 l 1,101,-1
 94 362 l 1,102,-1
 125 362 l 1,103,-1
 125 394 l 1,104,-1
 125 425 l 1,105,-1
 156 425 l 1,106,-1
 188 425 l 1,107,-1
 188 456 l 1,108,-1
 188 488 l 1,109,-1
 250 488 l 1,110,-1
 312 488 l 1,111,-1
 312 519 l 1,112,-1
 312 550 l 1,113,-1
 375 550 l 1,114,-1
 438 550 l 1,115,-1
 438 612 l 1,116,-1
 438 675 l 1,117,-1
 469 675 l 1,118,-1
 500 675 l 1,119,-1
 500 706 l 1,48,-1
EndSplineSet
MultipleSubs2: "Multiple Substitution lookup 2 subtable" kiliTok cartoucheMiddleTok
Ligature2: "'liga' Standard Ligatures in Latin lookup 0 subtable" k i l i
EndChar

StartChar: kiwenTok
Encoding: 989467 989467 116
Width: 1000
GlyphClass: 1
Flags: W
LayerCount: 2
Fore
SplineSet
688 581 m 1,0,-1
 688 612 l 1,1,-1
 500 612 l 1,2,-1
 312 612 l 1,3,-1
 312 581 l 1,4,-1
 312 550 l 1,5,-1
 281 550 l 1,6,-1
 250 550 l 1,7,-1
 250 519 l 1,8,-1
 250 488 l 1,9,-1
 219 488 l 1,10,-1
 188 488 l 1,11,-1
 188 394 l 1,12,-1
 188 300 l 1,13,-1
 219 300 l 1,14,-1
 250 300 l 1,15,-1
 250 269 l 1,16,-1
 250 238 l 1,17,-1
 281 238 l 1,18,-1
 312 238 l 1,19,-1
 312 206 l 1,20,-1
 312 175 l 1,21,-1
 344 175 l 1,22,-1
 375 175 l 1,23,-1
 375 144 l 1,24,-1
 375 112 l 1,25,-1
 406 112 l 1,26,-1
 438 112 l 1,27,-1
 438 81 l 1,28,-1
 438 50 l 1,29,-1
 500 50 l 1,30,-1
 562 50 l 1,31,-1
 562 81 l 1,32,-1
 562 112 l 1,33,-1
 594 112 l 1,34,-1
 625 112 l 1,35,-1
 625 144 l 1,36,-1
 625 175 l 1,37,-1
 656 175 l 1,38,-1
 688 175 l 1,39,-1
 688 206 l 1,40,-1
 688 238 l 1,41,-1
 719 238 l 1,42,-1
 750 238 l 1,43,-1
 750 269 l 1,44,-1
 750 300 l 1,45,-1
 781 300 l 1,46,-1
 812 300 l 1,47,-1
 812 394 l 1,48,-1
 812 488 l 1,49,-1
 781 488 l 1,50,-1
 750 488 l 1,51,-1
 750 519 l 1,52,-1
 750 550 l 1,53,-1
 719 550 l 1,54,-1
 688 550 l 1,55,-1
 688 581 l 1,0,-1
250 706 m 1,56,-1
 250 738 l 1,57,-1
 500 738 l 1,58,-1
 750 738 l 1,59,-1
 750 706 l 1,60,-1
 750 675 l 1,61,-1
 781 675 l 1,62,-1
 812 675 l 1,63,-1
 812 644 l 1,64,-1
 812 612 l 1,65,-1
 844 612 l 1,66,-1
 875 612 l 1,67,-1
 875 581 l 1,68,-1
 875 550 l 1,69,-1
 906 550 l 1,70,-1
 938 550 l 1,71,-1
 938 394 l 1,72,-1
 938 238 l 1,73,-1
 906 238 l 1,74,-1
 875 238 l 1,75,-1
 875 206 l 1,76,-1
 875 175 l 1,77,-1
 844 175 l 1,78,-1
 812 175 l 1,79,-1
 812 144 l 1,80,-1
 812 112 l 1,81,-1
 781 112 l 1,82,-1
 750 112 l 1,83,-1
 750 81 l 1,84,-1
 750 50 l 1,85,-1
 719 50 l 1,86,-1
 688 50 l 1,87,-1
 688 19 l 1,88,-1
 688 -12 l 1,89,-1
 656 -12 l 1,90,-1
 625 -12 l 1,91,-1
 625 -44 l 1,92,-1
 625 -75 l 1,93,-1
 594 -75 l 1,94,-1
 562 -75 l 1,95,-1
 562 -106 l 1,96,-1
 562 -138 l 1,97,-1
 500 -138 l 1,98,-1
 438 -138 l 1,99,-1
 438 -106 l 1,100,-1
 438 -75 l 1,101,-1
 406 -75 l 1,102,-1
 375 -75 l 1,103,-1
 375 -44 l 1,104,-1
 375 -12 l 1,105,-1
 344 -12 l 1,106,-1
 312 -12 l 1,107,-1
 312 19 l 1,108,-1
 312 50 l 1,109,-1
 281 50 l 1,110,-1
 250 50 l 1,111,-1
 250 81 l 1,112,-1
 250 112 l 1,113,-1
 219 112 l 1,114,-1
 188 112 l 1,115,-1
 188 144 l 1,116,-1
 188 175 l 1,117,-1
 156 175 l 1,118,-1
 125 175 l 1,119,-1
 125 206 l 1,120,-1
 125 238 l 1,121,-1
 94 238 l 1,122,-1
 62 238 l 1,123,-1
 62 394 l 1,124,-1
 62 550 l 1,125,-1
 94 550 l 1,126,-1
 125 550 l 1,127,-1
 125 581 l 1,128,-1
 125 612 l 1,129,-1
 156 612 l 1,130,-1
 188 612 l 1,131,-1
 188 644 l 1,132,-1
 188 675 l 1,133,-1
 219 675 l 1,134,-1
 250 675 l 1,135,-1
 250 706 l 1,56,-1
EndSplineSet
MultipleSubs2: "Multiple Substitution lookup 2 subtable" kiwenTok cartoucheMiddleTok
Ligature2: "'liga' Standard Ligatures in Latin lookup 0 subtable" k i w e n
EndChar

StartChar: koTok
Encoding: 989468 989468 117
Width: 1000
GlyphClass: 1
Flags: W
LayerCount: 2
Fore
SplineSet
562 581 m 1,0,-1
 562 612 l 1,1,-1
 500 612 l 1,2,-1
 438 612 l 1,3,-1
 438 581 l 1,4,-1
 438 550 l 1,5,-1
 406 550 l 1,6,-1
 375 550 l 1,7,-1
 375 488 l 1,8,-1
 375 425 l 1,9,-1
 406 425 l 1,10,-1
 438 425 l 1,11,-1
 438 362 l 1,12,-1
 438 300 l 1,13,-1
 406 300 l 1,14,-1
 375 300 l 1,15,-1
 375 269 l 1,16,-1
 375 238 l 1,17,-1
 312 238 l 1,18,-1
 250 238 l 1,19,-1
 250 206 l 1,20,-1
 250 175 l 1,21,-1
 219 175 l 1,22,-1
 188 175 l 1,23,-1
 188 112 l 1,24,-1
 188 50 l 1,25,-1
 219 50 l 1,26,-1
 250 50 l 1,27,-1
 250 19 l 1,28,-1
 250 -12 l 1,29,-1
 312 -12 l 1,30,-1
 375 -12 l 1,31,-1
 375 19 l 1,32,-1
 375 50 l 1,33,-1
 406 50 l 1,34,-1
 438 50 l 1,35,-1
 438 81 l 1,36,-1
 438 112 l 1,37,-1
 500 112 l 1,38,-1
 562 112 l 1,39,-1
 562 81 l 1,40,-1
 562 50 l 1,41,-1
 594 50 l 1,42,-1
 625 50 l 1,43,-1
 625 19 l 1,44,-1
 625 -12 l 1,45,-1
 688 -12 l 1,46,-1
 750 -12 l 1,47,-1
 750 19 l 1,48,-1
 750 50 l 1,49,-1
 781 50 l 1,50,-1
 812 50 l 1,51,-1
 812 112 l 1,52,-1
 812 175 l 1,53,-1
 781 175 l 1,54,-1
 750 175 l 1,55,-1
 750 206 l 1,56,-1
 750 238 l 1,57,-1
 688 238 l 1,58,-1
 625 238 l 1,59,-1
 625 269 l 1,60,-1
 625 300 l 1,61,-1
 594 300 l 1,62,-1
 562 300 l 1,63,-1
 562 362 l 1,64,-1
 562 425 l 1,65,-1
 594 425 l 1,66,-1
 625 425 l 1,67,-1
 625 488 l 1,68,-1
 625 550 l 1,69,-1
 594 550 l 1,70,-1
 562 550 l 1,71,-1
 562 581 l 1,0,-1
375 706 m 1,72,-1
 375 738 l 1,73,-1
 500 738 l 1,74,-1
 625 738 l 1,75,-1
 625 706 l 1,76,-1
 625 675 l 1,77,-1
 656 675 l 1,78,-1
 688 675 l 1,79,-1
 688 644 l 1,80,-1
 688 612 l 1,81,-1
 719 612 l 1,82,-1
 750 612 l 1,83,-1
 750 488 l 1,84,-1
 750 362 l 1,85,-1
 781 362 l 1,86,-1
 812 362 l 1,87,-1
 812 331 l 1,88,-1
 812 300 l 1,89,-1
 844 300 l 1,90,-1
 875 300 l 1,91,-1
 875 269 l 1,92,-1
 875 238 l 1,93,-1
 906 238 l 1,94,-1
 938 238 l 1,95,-1
 938 112 l 1,96,-1
 938 -12 l 1,97,-1
 906 -12 l 1,98,-1
 875 -12 l 1,99,-1
 875 -44 l 1,100,-1
 875 -75 l 1,101,-1
 844 -75 l 1,102,-1
 812 -75 l 1,103,-1
 812 -106 l 1,104,-1
 812 -138 l 1,105,-1
 688 -138 l 1,106,-1
 562 -138 l 1,107,-1
 562 -106 l 1,108,-1
 562 -75 l 1,109,-1
 500 -75 l 1,110,-1
 438 -75 l 1,111,-1
 438 -106 l 1,112,-1
 438 -138 l 1,113,-1
 312 -138 l 1,114,-1
 188 -138 l 1,115,-1
 188 -106 l 1,116,-1
 188 -75 l 1,117,-1
 156 -75 l 1,118,-1
 125 -75 l 1,119,-1
 125 -44 l 1,120,-1
 125 -12 l 1,121,-1
 94 -12 l 1,122,-1
 62 -12 l 1,123,-1
 62 112 l 1,124,-1
 62 238 l 1,125,-1
 94 238 l 1,126,-1
 125 238 l 1,127,-1
 125 269 l 1,128,-1
 125 300 l 1,129,-1
 156 300 l 1,130,-1
 188 300 l 1,131,-1
 188 331 l 1,132,-1
 188 362 l 1,133,-1
 219 362 l 1,134,-1
 250 362 l 1,135,-1
 250 488 l 1,136,-1
 250 612 l 1,137,-1
 281 612 l 1,138,-1
 312 612 l 1,139,-1
 312 644 l 1,140,-1
 312 675 l 1,141,-1
 344 675 l 1,142,-1
 375 675 l 1,143,-1
 375 706 l 1,72,-1
EndSplineSet
MultipleSubs2: "Multiple Substitution lookup 2 subtable" koTok cartoucheMiddleTok
Ligature2: "'liga' Standard Ligatures in Latin lookup 0 subtable" k o
EndChar

StartChar: konTok
Encoding: 989469 989469 118
Width: 1000
GlyphClass: 1
Flags: W
LayerCount: 2
Fore
SplineSet
625 706 m 1,0,-1
 625 738 l 1,1,-1
 719 738 l 1,2,-1
 812 738 l 1,3,-1
 812 675 l 1,4,-1
 812 612 l 1,5,-1
 750 612 l 1,6,-1
 688 612 l 1,7,-1
 688 581 l 1,8,-1
 688 550 l 1,9,-1
 656 550 l 1,10,-1
 625 550 l 1,11,-1
 625 488 l 1,12,-1
 625 425 l 1,13,-1
 656 425 l 1,14,-1
 688 425 l 1,15,-1
 688 394 l 1,16,-1
 688 362 l 1,17,-1
 719 362 l 1,18,-1
 750 362 l 1,19,-1
 750 331 l 1,20,-1
 750 300 l 1,21,-1
 781 300 l 1,22,-1
 812 300 l 1,23,-1
 812 269 l 1,24,-1
 812 238 l 1,25,-1
 844 238 l 1,26,-1
 875 238 l 1,27,-1
 875 112 l 1,28,-1
 875 -12 l 1,29,-1
 844 -12 l 1,30,-1
 812 -12 l 1,31,-1
 812 -44 l 1,32,-1
 812 -75 l 1,33,-1
 781 -75 l 1,34,-1
 750 -75 l 1,35,-1
 750 -106 l 1,36,-1
 750 -138 l 1,37,-1
 656 -138 l 1,38,-1
 562 -138 l 1,39,-1
 562 -75 l 1,40,-1
 562 -12 l 1,41,-1
 625 -12 l 1,42,-1
 688 -12 l 1,43,-1
 688 19 l 1,44,-1
 688 50 l 1,45,-1
 719 50 l 1,46,-1
 750 50 l 1,47,-1
 750 112 l 1,48,-1
 750 175 l 1,49,-1
 719 175 l 1,50,-1
 688 175 l 1,51,-1
 688 206 l 1,52,-1
 688 238 l 1,53,-1
 656 238 l 1,54,-1
 625 238 l 1,55,-1
 625 269 l 1,56,-1
 625 300 l 1,57,-1
 594 300 l 1,58,-1
 562 300 l 1,59,-1
 562 331 l 1,60,-1
 562 362 l 1,61,-1
 531 362 l 1,62,-1
 500 362 l 1,63,-1
 500 488 l 1,64,-1
 500 612 l 1,65,-1
 531 612 l 1,66,-1
 562 612 l 1,67,-1
 562 644 l 1,68,-1
 562 675 l 1,69,-1
 594 675 l 1,70,-1
 625 675 l 1,71,-1
 625 706 l 1,0,-1
250 706 m 1,72,-1
 250 738 l 1,73,-1
 344 738 l 1,74,-1
 438 738 l 1,75,-1
 438 675 l 1,76,-1
 438 612 l 1,77,-1
 375 612 l 1,78,-1
 312 612 l 1,79,-1
 312 581 l 1,80,-1
 312 550 l 1,81,-1
 281 550 l 1,82,-1
 250 550 l 1,83,-1
 250 488 l 1,84,-1
 250 425 l 1,85,-1
 281 425 l 1,86,-1
 312 425 l 1,87,-1
 312 394 l 1,88,-1
 312 362 l 1,89,-1
 344 362 l 1,90,-1
 375 362 l 1,91,-1
 375 331 l 1,92,-1
 375 300 l 1,93,-1
 406 300 l 1,94,-1
 438 300 l 1,95,-1
 438 269 l 1,96,-1
 438 238 l 1,97,-1
 469 238 l 1,98,-1
 500 238 l 1,99,-1
 500 112 l 1,100,-1
 500 -12 l 1,101,-1
 469 -12 l 1,102,-1
 438 -12 l 1,103,-1
 438 -44 l 1,104,-1
 438 -75 l 1,105,-1
 406 -75 l 1,106,-1
 375 -75 l 1,107,-1
 375 -106 l 1,108,-1
 375 -138 l 1,109,-1
 281 -138 l 1,110,-1
 188 -138 l 1,111,-1
 188 -75 l 1,112,-1
 188 -12 l 1,113,-1
 250 -12 l 1,114,-1
 312 -12 l 1,115,-1
 312 19 l 1,116,-1
 312 50 l 1,117,-1
 344 50 l 1,118,-1
 375 50 l 1,119,-1
 375 112 l 1,120,-1
 375 175 l 1,121,-1
 344 175 l 1,122,-1
 312 175 l 1,123,-1
 312 206 l 1,124,-1
 312 238 l 1,125,-1
 281 238 l 1,126,-1
 250 238 l 1,127,-1
 250 269 l 1,128,-1
 250 300 l 1,129,-1
 219 300 l 1,130,-1
 188 300 l 1,131,-1
 188 331 l 1,132,-1
 188 362 l 1,133,-1
 156 362 l 1,134,-1
 125 362 l 1,135,-1
 125 488 l 1,136,-1
 125 612 l 1,137,-1
 156 612 l 1,138,-1
 188 612 l 1,139,-1
 188 644 l 1,140,-1
 188 675 l 1,141,-1
 219 675 l 1,142,-1
 250 675 l 1,143,-1
 250 706 l 1,72,-1
EndSplineSet
MultipleSubs2: "Multiple Substitution lookup 2 subtable" konTok cartoucheMiddleTok
Ligature2: "'liga' Standard Ligatures in Latin lookup 0 subtable" k o n
EndChar

StartChar: kuleTok
Encoding: 989470 989470 119
Width: 1000
GlyphClass: 1
Flags: W
LayerCount: 2
Fore
SplineSet
688 112 m 1,0,-1
 688 175 l 1,1,-1
 500 175 l 1,2,-1
 312 175 l 1,3,-1
 312 112 l 1,4,-1
 312 50 l 1,5,-1
 281 50 l 1,6,-1
 250 50 l 1,7,-1
 250 19 l 1,8,-1
 250 -12 l 1,9,-1
 500 -12 l 1,10,-1
 750 -12 l 1,11,-1
 750 19 l 1,12,-1
 750 50 l 1,13,-1
 719 50 l 1,14,-1
 688 50 l 1,15,-1
 688 112 l 1,0,-1
562 362 m 1,16,-1
 562 425 l 1,17,-1
 500 425 l 1,18,-1
 438 425 l 1,19,-1
 438 362 l 1,20,-1
 438 300 l 1,21,-1
 500 300 l 1,22,-1
 562 300 l 1,23,-1
 562 362 l 1,16,-1
438 675 m 1,24,-1
 438 738 l 1,25,-1
 500 738 l 1,26,-1
 562 738 l 1,27,-1
 562 675 l 1,28,-1
 562 612 l 1,29,-1
 594 612 l 1,30,-1
 625 612 l 1,31,-1
 625 550 l 1,32,-1
 625 488 l 1,33,-1
 656 488 l 1,34,-1
 688 488 l 1,35,-1
 688 425 l 1,36,-1
 688 362 l 1,37,-1
 719 362 l 1,38,-1
 750 362 l 1,39,-1
 750 331 l 1,40,-1
 750 300 l 1,41,-1
 844 300 l 1,42,-1
 938 300 l 1,43,-1
 938 238 l 1,44,-1
 938 175 l 1,45,-1
 875 175 l 1,46,-1
 812 175 l 1,47,-1
 812 144 l 1,48,-1
 812 112 l 1,49,-1
 844 112 l 1,50,-1
 875 112 l 1,51,-1
 875 50 l 1,52,-1
 875 -12 l 1,53,-1
 906 -12 l 1,54,-1
 938 -12 l 1,55,-1
 938 -75 l 1,56,-1
 938 -138 l 1,57,-1
 500 -138 l 1,58,-1
 62 -138 l 1,59,-1
 62 -75 l 1,60,-1
 62 -12 l 1,61,-1
 94 -12 l 1,62,-1
 125 -12 l 1,63,-1
 125 50 l 1,64,-1
 125 112 l 1,65,-1
 156 112 l 1,66,-1
 188 112 l 1,67,-1
 188 144 l 1,68,-1
 188 175 l 1,69,-1
 125 175 l 1,70,-1
 62 175 l 1,71,-1
 62 238 l 1,72,-1
 62 300 l 1,73,-1
 156 300 l 1,74,-1
 250 300 l 1,75,-1
 250 331 l 1,76,-1
 250 362 l 1,77,-1
 281 362 l 1,78,-1
 312 362 l 1,79,-1
 312 425 l 1,80,-1
 312 488 l 1,81,-1
 344 488 l 1,82,-1
 375 488 l 1,83,-1
 375 550 l 1,84,-1
 375 612 l 1,85,-1
 406 612 l 1,86,-1
 438 612 l 1,87,-1
 438 675 l 1,24,-1
EndSplineSet
MultipleSubs2: "Multiple Substitution lookup 2 subtable" kuleTok cartoucheMiddleTok
Ligature2: "'liga' Standard Ligatures in Latin lookup 0 subtable" k u l e
EndChar

StartChar: kulupuTok
Encoding: 989471 989471 120
Width: 1000
GlyphClass: 1
Flags: W
LayerCount: 2
Fore
SplineSet
750 206 m 1,0,-1
 750 238 l 1,1,-1
 688 238 l 1,2,-1
 625 238 l 1,3,-1
 625 206 l 1,4,-1
 625 175 l 1,5,-1
 594 175 l 1,6,-1
 562 175 l 1,7,-1
 562 112 l 1,8,-1
 562 50 l 1,9,-1
 594 50 l 1,10,-1
 625 50 l 1,11,-1
 625 19 l 1,12,-1
 625 -12 l 1,13,-1
 688 -12 l 1,14,-1
 750 -12 l 1,15,-1
 750 19 l 1,16,-1
 750 50 l 1,17,-1
 781 50 l 1,18,-1
 812 50 l 1,19,-1
 812 112 l 1,20,-1
 812 175 l 1,21,-1
 781 175 l 1,22,-1
 750 175 l 1,23,-1
 750 206 l 1,0,-1
375 206 m 1,24,-1
 375 238 l 1,25,-1
 312 238 l 1,26,-1
 250 238 l 1,27,-1
 250 206 l 1,28,-1
 250 175 l 1,29,-1
 219 175 l 1,30,-1
 188 175 l 1,31,-1
 188 112 l 1,32,-1
 188 50 l 1,33,-1
 219 50 l 1,34,-1
 250 50 l 1,35,-1
 250 19 l 1,36,-1
 250 -12 l 1,37,-1
 312 -12 l 1,38,-1
 375 -12 l 1,39,-1
 375 19 l 1,40,-1
 375 50 l 1,41,-1
 406 50 l 1,42,-1
 438 50 l 1,43,-1
 438 112 l 1,44,-1
 438 175 l 1,45,-1
 406 175 l 1,46,-1
 375 175 l 1,47,-1
 375 206 l 1,24,-1
562 581 m 1,48,-1
 562 612 l 1,49,-1
 500 612 l 1,50,-1
 438 612 l 1,51,-1
 438 581 l 1,52,-1
 438 550 l 1,53,-1
 406 550 l 1,54,-1
 375 550 l 1,55,-1
 375 488 l 1,56,-1
 375 425 l 1,57,-1
 406 425 l 1,58,-1
 438 425 l 1,59,-1
 438 394 l 1,60,-1
 438 362 l 1,61,-1
 500 362 l 1,62,-1
 562 362 l 1,63,-1
 562 394 l 1,64,-1
 562 425 l 1,65,-1
 594 425 l 1,66,-1
 625 425 l 1,67,-1
 625 488 l 1,68,-1
 625 550 l 1,69,-1
 594 550 l 1,70,-1
 562 550 l 1,71,-1
 562 581 l 1,48,-1
375 706 m 1,72,-1
 375 738 l 1,73,-1
 500 738 l 1,74,-1
 625 738 l 1,75,-1
 625 706 l 1,76,-1
 625 675 l 1,77,-1
 656 675 l 1,78,-1
 688 675 l 1,79,-1
 688 644 l 1,80,-1
 688 612 l 1,81,-1
 719 612 l 1,82,-1
 750 612 l 1,83,-1
 750 488 l 1,84,-1
 750 362 l 1,85,-1
 781 362 l 1,86,-1
 812 362 l 1,87,-1
 812 331 l 1,88,-1
 812 300 l 1,89,-1
 844 300 l 1,90,-1
 875 300 l 1,91,-1
 875 269 l 1,92,-1
 875 238 l 1,93,-1
 906 238 l 1,94,-1
 938 238 l 1,95,-1
 938 112 l 1,96,-1
 938 -12 l 1,97,-1
 906 -12 l 1,98,-1
 875 -12 l 1,99,-1
 875 -44 l 1,100,-1
 875 -75 l 1,101,-1
 844 -75 l 1,102,-1
 812 -75 l 1,103,-1
 812 -106 l 1,104,-1
 812 -138 l 1,105,-1
 688 -138 l 1,106,-1
 562 -138 l 1,107,-1
 562 -106 l 1,108,-1
 562 -75 l 1,109,-1
 500 -75 l 1,110,-1
 438 -75 l 1,111,-1
 438 -106 l 1,112,-1
 438 -138 l 1,113,-1
 312 -138 l 1,114,-1
 188 -138 l 1,115,-1
 188 -106 l 1,116,-1
 188 -75 l 1,117,-1
 156 -75 l 1,118,-1
 125 -75 l 1,119,-1
 125 -44 l 1,120,-1
 125 -12 l 1,121,-1
 94 -12 l 1,122,-1
 62 -12 l 1,123,-1
 62 112 l 1,124,-1
 62 238 l 1,125,-1
 94 238 l 1,126,-1
 125 238 l 1,127,-1
 125 269 l 1,128,-1
 125 300 l 1,129,-1
 156 300 l 1,130,-1
 188 300 l 1,131,-1
 188 331 l 1,132,-1
 188 362 l 1,133,-1
 219 362 l 1,134,-1
 250 362 l 1,135,-1
 250 488 l 1,136,-1
 250 612 l 1,137,-1
 281 612 l 1,138,-1
 312 612 l 1,139,-1
 312 644 l 1,140,-1
 312 675 l 1,141,-1
 344 675 l 1,142,-1
 375 675 l 1,143,-1
 375 706 l 1,72,-1
EndSplineSet
MultipleSubs2: "Multiple Substitution lookup 2 subtable" kulupuTok cartoucheMiddleTok
Ligature2: "'liga' Standard Ligatures in Latin lookup 0 subtable" k u l u p u
EndChar

StartChar: kuteTok
Encoding: 989472 989472 121
Width: 1000
GlyphClass: 1
Flags: W
LayerCount: 2
Fore
SplineSet
438 425 m 1,0,-1
 438 488 l 1,1,-1
 500 488 l 1,2,-1
 562 488 l 1,3,-1
 562 394 l 1,4,-1
 562 300 l 1,5,-1
 531 300 l 1,6,-1
 500 300 l 1,7,-1
 500 269 l 1,8,-1
 500 238 l 1,9,-1
 438 238 l 1,10,-1
 375 238 l 1,11,-1
 375 300 l 1,12,-1
 375 362 l 1,13,-1
 406 362 l 1,14,-1
 438 362 l 1,15,-1
 438 425 l 1,0,-1
312 706 m 1,16,-1
 312 738 l 1,17,-1
 500 738 l 1,18,-1
 688 738 l 1,19,-1
 688 706 l 1,20,-1
 688 675 l 1,21,-1
 719 675 l 1,22,-1
 750 675 l 1,23,-1
 750 644 l 1,24,-1
 750 612 l 1,25,-1
 781 612 l 1,26,-1
 812 612 l 1,27,-1
 812 425 l 1,28,-1
 812 238 l 1,29,-1
 781 238 l 1,30,-1
 750 238 l 1,31,-1
 750 175 l 1,32,-1
 750 112 l 1,33,-1
 719 112 l 1,34,-1
 688 112 l 1,35,-1
 688 50 l 1,36,-1
 688 -12 l 1,37,-1
 656 -12 l 1,38,-1
 625 -12 l 1,39,-1
 625 -75 l 1,40,-1
 625 -138 l 1,41,-1
 562 -138 l 1,42,-1
 500 -138 l 1,43,-1
 500 -44 l 1,44,-1
 500 50 l 1,45,-1
 531 50 l 1,46,-1
 562 50 l 1,47,-1
 562 112 l 1,48,-1
 562 175 l 1,49,-1
 594 175 l 1,50,-1
 625 175 l 1,51,-1
 625 238 l 1,52,-1
 625 300 l 1,53,-1
 656 300 l 1,54,-1
 688 300 l 1,55,-1
 688 425 l 1,56,-1
 688 550 l 1,57,-1
 656 550 l 1,58,-1
 625 550 l 1,59,-1
 625 581 l 1,60,-1
 625 612 l 1,61,-1
 500 612 l 1,62,-1
 375 612 l 1,63,-1
 375 581 l 1,64,-1
 375 550 l 1,65,-1
 344 550 l 1,66,-1
 312 550 l 1,67,-1
 312 488 l 1,68,-1
 312 425 l 1,69,-1
 250 425 l 1,70,-1
 188 425 l 1,71,-1
 188 519 l 1,72,-1
 188 612 l 1,73,-1
 219 612 l 1,74,-1
 250 612 l 1,75,-1
 250 644 l 1,76,-1
 250 675 l 1,77,-1
 281 675 l 1,78,-1
 312 675 l 1,79,-1
 312 706 l 1,16,-1
EndSplineSet
MultipleSubs2: "Multiple Substitution lookup 2 subtable" kuteTok cartoucheMiddleTok
Ligature2: "'liga' Standard Ligatures in Latin lookup 0 subtable" k u t e
EndChar

StartChar: laTok
Encoding: 989473 989473 122
Width: 1000
GlyphClass: 1
Flags: W
LayerCount: 2
Fore
SplineSet
312 675 m 1,0,-1
 312 738 l 1,1,-1
 406 738 l 1,2,-1
 500 738 l 1,3,-1
 500 706 l 1,4,-1
 500 675 l 1,5,-1
 562 675 l 1,6,-1
 625 675 l 1,7,-1
 625 644 l 1,8,-1
 625 612 l 1,9,-1
 656 612 l 1,10,-1
 688 612 l 1,11,-1
 688 550 l 1,12,-1
 688 488 l 1,13,-1
 719 488 l 1,14,-1
 750 488 l 1,15,-1
 750 300 l 1,16,-1
 750 112 l 1,17,-1
 719 112 l 1,18,-1
 688 112 l 1,19,-1
 688 50 l 1,20,-1
 688 -12 l 1,21,-1
 656 -12 l 1,22,-1
 625 -12 l 1,23,-1
 625 -44 l 1,24,-1
 625 -75 l 1,25,-1
 562 -75 l 1,26,-1
 500 -75 l 1,27,-1
 500 -106 l 1,28,-1
 500 -138 l 1,29,-1
 406 -138 l 1,30,-1
 312 -138 l 1,31,-1
 312 -75 l 1,32,-1
 312 -12 l 1,33,-1
 375 -12 l 1,34,-1
 438 -12 l 1,35,-1
 438 19 l 1,36,-1
 438 50 l 1,37,-1
 500 50 l 1,38,-1
 562 50 l 1,39,-1
 562 112 l 1,40,-1
 562 175 l 1,41,-1
 594 175 l 1,42,-1
 625 175 l 1,43,-1
 625 300 l 1,44,-1
 625 425 l 1,45,-1
 594 425 l 1,46,-1
 562 425 l 1,47,-1
 562 488 l 1,48,-1
 562 550 l 1,49,-1
 500 550 l 1,50,-1
 438 550 l 1,51,-1
 438 581 l 1,52,-1
 438 612 l 1,53,-1
 375 612 l 1,54,-1
 312 612 l 1,55,-1
 312 675 l 1,0,-1
EndSplineSet
MultipleSubs2: "Multiple Substitution lookup 2 subtable" laTok cartoucheMiddleTok
Ligature2: "'liga' Standard Ligatures in Latin lookup 0 subtable" l a
EndChar

StartChar: lapeTok
Encoding: 989474 989474 123
Width: 1000
GlyphClass: 1
Flags: W
LayerCount: 2
Fore
SplineSet
750 394 m 1,0,-1
 750 425 l 1,1,-1
 688 425 l 1,2,-1
 625 425 l 1,3,-1
 625 394 l 1,4,-1
 625 362 l 1,5,-1
 594 362 l 1,6,-1
 562 362 l 1,7,-1
 562 300 l 1,8,-1
 562 238 l 1,9,-1
 594 238 l 1,10,-1
 625 238 l 1,11,-1
 625 206 l 1,12,-1
 625 175 l 1,13,-1
 688 175 l 1,14,-1
 750 175 l 1,15,-1
 750 206 l 1,16,-1
 750 238 l 1,17,-1
 781 238 l 1,18,-1
 812 238 l 1,19,-1
 812 300 l 1,20,-1
 812 362 l 1,21,-1
 781 362 l 1,22,-1
 750 362 l 1,23,-1
 750 394 l 1,0,-1
562 519 m 1,24,-1
 562 550 l 1,25,-1
 688 550 l 1,26,-1
 812 550 l 1,27,-1
 812 519 l 1,28,-1
 812 488 l 1,29,-1
 844 488 l 1,30,-1
 875 488 l 1,31,-1
 875 456 l 1,32,-1
 875 425 l 1,33,-1
 906 425 l 1,34,-1
 938 425 l 1,35,-1
 938 300 l 1,36,-1
 938 175 l 1,37,-1
 906 175 l 1,38,-1
 875 175 l 1,39,-1
 875 144 l 1,40,-1
 875 112 l 1,41,-1
 844 112 l 1,42,-1
 812 112 l 1,43,-1
 812 81 l 1,44,-1
 812 50 l 1,45,-1
 688 50 l 1,46,-1
 562 50 l 1,47,-1
 562 81 l 1,48,-1
 562 112 l 1,49,-1
 531 112 l 1,50,-1
 500 112 l 1,51,-1
 500 144 l 1,52,-1
 500 175 l 1,53,-1
 469 175 l 1,54,-1
 438 175 l 1,55,-1
 438 206 l 1,56,-1
 438 238 l 1,57,-1
 250 238 l 1,58,-1
 62 238 l 1,59,-1
 62 300 l 1,60,-1
 62 362 l 1,61,-1
 250 362 l 1,62,-1
 438 362 l 1,63,-1
 438 394 l 1,64,-1
 438 425 l 1,65,-1
 469 425 l 1,66,-1
 500 425 l 1,67,-1
 500 456 l 1,68,-1
 500 488 l 1,69,-1
 531 488 l 1,70,-1
 562 488 l 1,71,-1
 562 519 l 1,24,-1
EndSplineSet
MultipleSubs2: "Multiple Substitution lookup 2 subtable" lapeTok cartoucheMiddleTok
Ligature2: "'liga' Standard Ligatures in Latin lookup 0 subtable" l a p e
EndChar

StartChar: lasoTok
Encoding: 989475 989475 124
Width: 1000
GlyphClass: 1
Flags: W
LayerCount: 2
Fore
SplineSet
562 19 m 1,0,-1
 562 50 l 1,1,-1
 500 50 l 1,2,-1
 438 50 l 1,3,-1
 438 19 l 1,4,-1
 438 -12 l 1,5,-1
 500 -12 l 1,6,-1
 562 -12 l 1,7,-1
 562 19 l 1,0,-1
812 519 m 1,8,-1
 812 612 l 1,9,-1
 750 612 l 1,10,-1
 688 612 l 1,11,-1
 688 581 l 1,12,-1
 688 550 l 1,13,-1
 656 550 l 1,14,-1
 625 550 l 1,15,-1
 625 519 l 1,16,-1
 625 488 l 1,17,-1
 594 488 l 1,18,-1
 562 488 l 1,19,-1
 562 425 l 1,20,-1
 562 362 l 1,21,-1
 656 362 l 1,22,-1
 750 362 l 1,23,-1
 750 394 l 1,24,-1
 750 425 l 1,25,-1
 781 425 l 1,26,-1
 812 425 l 1,27,-1
 812 519 l 1,8,-1
312 581 m 1,28,-1
 312 612 l 1,29,-1
 250 612 l 1,30,-1
 188 612 l 1,31,-1
 188 519 l 1,32,-1
 188 425 l 1,33,-1
 219 425 l 1,34,-1
 250 425 l 1,35,-1
 250 394 l 1,36,-1
 250 362 l 1,37,-1
 344 362 l 1,38,-1
 438 362 l 1,39,-1
 438 425 l 1,40,-1
 438 488 l 1,41,-1
 406 488 l 1,42,-1
 375 488 l 1,43,-1
 375 519 l 1,44,-1
 375 550 l 1,45,-1
 344 550 l 1,46,-1
 312 550 l 1,47,-1
 312 581 l 1,28,-1
62 550 m 1,48,-1
 62 738 l 1,49,-1
 219 738 l 1,50,-1
 375 738 l 1,51,-1
 375 706 l 1,52,-1
 375 675 l 1,53,-1
 406 675 l 1,54,-1
 438 675 l 1,55,-1
 438 644 l 1,56,-1
 438 612 l 1,57,-1
 500 612 l 1,58,-1
 562 612 l 1,59,-1
 562 644 l 1,60,-1
 562 675 l 1,61,-1
 594 675 l 1,62,-1
 625 675 l 1,63,-1
 625 706 l 1,64,-1
 625 738 l 1,65,-1
 781 738 l 1,66,-1
 938 738 l 1,67,-1
 938 550 l 1,68,-1
 938 362 l 1,69,-1
 906 362 l 1,70,-1
 875 362 l 1,71,-1
 875 331 l 1,72,-1
 875 300 l 1,73,-1
 844 300 l 1,74,-1
 812 300 l 1,75,-1
 812 269 l 1,76,-1
 812 238 l 1,77,-1
 688 238 l 1,78,-1
 562 238 l 1,79,-1
 562 206 l 1,80,-1
 562 175 l 1,81,-1
 594 175 l 1,82,-1
 625 175 l 1,83,-1
 625 144 l 1,84,-1
 625 112 l 1,85,-1
 656 112 l 1,86,-1
 688 112 l 1,87,-1
 688 81 l 1,88,-1
 688 50 l 1,89,-1
 719 50 l 1,90,-1
 750 50 l 1,91,-1
 750 19 l 1,92,-1
 750 -12 l 1,93,-1
 781 -12 l 1,94,-1
 812 -12 l 1,95,-1
 812 -44 l 1,96,-1
 812 -75 l 1,97,-1
 844 -75 l 1,98,-1
 875 -75 l 1,99,-1
 875 -106 l 1,100,-1
 875 -138 l 1,101,-1
 500 -138 l 1,102,-1
 125 -138 l 1,103,-1
 125 -106 l 1,104,-1
 125 -75 l 1,105,-1
 156 -75 l 1,106,-1
 188 -75 l 1,107,-1
 188 -44 l 1,108,-1
 188 -12 l 1,109,-1
 219 -12 l 1,110,-1
 250 -12 l 1,111,-1
 250 19 l 1,112,-1
 250 50 l 1,113,-1
 281 50 l 1,114,-1
 312 50 l 1,115,-1
 312 81 l 1,116,-1
 312 112 l 1,117,-1
 344 112 l 1,118,-1
 375 112 l 1,119,-1
 375 144 l 1,120,-1
 375 175 l 1,121,-1
 406 175 l 1,122,-1
 438 175 l 1,123,-1
 438 206 l 1,124,-1
 438 238 l 1,125,-1
 312 238 l 1,126,-1
 188 238 l 1,127,-1
 188 269 l 1,128,-1
 188 300 l 1,129,-1
 156 300 l 1,130,-1
 125 300 l 1,131,-1
 125 331 l 1,132,-1
 125 362 l 1,133,-1
 94 362 l 1,134,-1
 62 362 l 1,135,-1
 62 550 l 1,48,-1
EndSplineSet
MultipleSubs2: "Multiple Substitution lookup 2 subtable" lasoTok cartoucheMiddleTok
Ligature2: "'liga' Standard Ligatures in Latin lookup 0 subtable" l a s o
EndChar

StartChar: lawaTok
Encoding: 989476 989476 125
Width: 1000
GlyphClass: 1
Flags: W
LayerCount: 2
Fore
SplineSet
688 238 m 1,0,-1
 688 300 l 1,1,-1
 438 300 l 1,2,-1
 188 300 l 1,3,-1
 188 238 l 1,4,-1
 188 175 l 1,5,-1
 219 175 l 1,6,-1
 250 175 l 1,7,-1
 250 112 l 1,8,-1
 250 50 l 1,9,-1
 281 50 l 1,10,-1
 312 50 l 1,11,-1
 312 19 l 1,12,-1
 312 -12 l 1,13,-1
 438 -12 l 1,14,-1
 562 -12 l 1,15,-1
 562 19 l 1,16,-1
 562 50 l 1,17,-1
 594 50 l 1,18,-1
 625 50 l 1,19,-1
 625 112 l 1,20,-1
 625 175 l 1,21,-1
 656 175 l 1,22,-1
 688 175 l 1,23,-1
 688 238 l 1,0,-1
562 581 m 1,24,-1
 562 612 l 1,25,-1
 438 612 l 1,26,-1
 312 612 l 1,27,-1
 312 581 l 1,28,-1
 312 550 l 1,29,-1
 281 550 l 1,30,-1
 250 550 l 1,31,-1
 250 488 l 1,32,-1
 250 425 l 1,33,-1
 438 425 l 1,34,-1
 625 425 l 1,35,-1
 625 488 l 1,36,-1
 625 550 l 1,37,-1
 594 550 l 1,38,-1
 562 550 l 1,39,-1
 562 581 l 1,24,-1
312 706 m 1,40,-1
 312 738 l 1,41,-1
 438 738 l 1,42,-1
 562 738 l 1,43,-1
 562 706 l 1,44,-1
 562 675 l 1,45,-1
 625 675 l 1,46,-1
 688 675 l 1,47,-1
 688 644 l 1,48,-1
 688 612 l 1,49,-1
 719 612 l 1,50,-1
 750 612 l 1,51,-1
 750 550 l 1,52,-1
 750 488 l 1,53,-1
 781 488 l 1,54,-1
 812 488 l 1,55,-1
 812 456 l 1,56,-1
 812 425 l 1,57,-1
 875 425 l 1,58,-1
 938 425 l 1,59,-1
 938 362 l 1,60,-1
 938 300 l 1,61,-1
 875 300 l 1,62,-1
 812 300 l 1,63,-1
 812 206 l 1,64,-1
 812 112 l 1,65,-1
 781 112 l 1,66,-1
 750 112 l 1,67,-1
 750 50 l 1,68,-1
 750 -12 l 1,69,-1
 719 -12 l 1,70,-1
 688 -12 l 1,71,-1
 688 -44 l 1,72,-1
 688 -75 l 1,73,-1
 625 -75 l 1,74,-1
 562 -75 l 1,75,-1
 562 -106 l 1,76,-1
 562 -138 l 1,77,-1
 438 -138 l 1,78,-1
 312 -138 l 1,79,-1
 312 -106 l 1,80,-1
 312 -75 l 1,81,-1
 250 -75 l 1,82,-1
 188 -75 l 1,83,-1
 188 -44 l 1,84,-1
 188 -12 l 1,85,-1
 156 -12 l 1,86,-1
 125 -12 l 1,87,-1
 125 50 l 1,88,-1
 125 112 l 1,89,-1
 94 112 l 1,90,-1
 62 112 l 1,91,-1
 62 300 l 1,92,-1
 62 488 l 1,93,-1
 94 488 l 1,94,-1
 125 488 l 1,95,-1
 125 550 l 1,96,-1
 125 612 l 1,97,-1
 156 612 l 1,98,-1
 188 612 l 1,99,-1
 188 644 l 1,100,-1
 188 675 l 1,101,-1
 250 675 l 1,102,-1
 312 675 l 1,103,-1
 312 706 l 1,40,-1
EndSplineSet
MultipleSubs2: "Multiple Substitution lookup 2 subtable" lawaTok cartoucheMiddleTok
Ligature2: "'liga' Standard Ligatures in Latin lookup 0 subtable" l a w a
EndChar

StartChar: lenTok
Encoding: 989477 989477 126
Width: 1000
GlyphClass: 1
Flags: W
LayerCount: 2
Fore
SplineSet
750 362 m 1,0,-1
 750 612 l 1,1,-1
 500 612 l 1,2,-1
 250 612 l 1,3,-1
 250 362 l 1,4,-1
 250 112 l 1,5,-1
 500 112 l 1,6,-1
 750 112 l 1,7,-1
 750 362 l 1,0,-1
125 300 m 1,8,-1
 125 738 l 1,9,-1
 500 738 l 1,10,-1
 875 738 l 1,11,-1
 875 300 l 1,12,-1
 875 -138 l 1,13,-1
 812 -138 l 1,14,-1
 750 -138 l 1,15,-1
 750 -75 l 1,16,-1
 750 -12 l 1,17,-1
 656 -12 l 1,18,-1
 562 -12 l 1,19,-1
 562 -75 l 1,20,-1
 562 -138 l 1,21,-1
 500 -138 l 1,22,-1
 438 -138 l 1,23,-1
 438 -75 l 1,24,-1
 438 -12 l 1,25,-1
 344 -12 l 1,26,-1
 250 -12 l 1,27,-1
 250 -75 l 1,28,-1
 250 -138 l 1,29,-1
 188 -138 l 1,30,-1
 125 -138 l 1,31,-1
 125 300 l 1,8,-1
EndSplineSet
MultipleSubs2: "Multiple Substitution lookup 2 subtable" lenTok cartoucheMiddleTok
Ligature2: "'liga' Standard Ligatures in Latin lookup 0 subtable" l e n
EndChar

StartChar: leteTok
Encoding: 989478 989478 127
Width: 1000
GlyphClass: 1
Flags: W
LayerCount: 2
Fore
SplineSet
250 612 m 1,0,-1
 250 675 l 1,1,-1
 312 675 l 1,2,-1
 375 675 l 1,3,-1
 375 644 l 1,4,-1
 375 612 l 1,5,-1
 406 612 l 1,6,-1
 438 612 l 1,7,-1
 438 550 l 1,8,-1
 438 488 l 1,9,-1
 500 488 l 1,10,-1
 562 488 l 1,11,-1
 562 550 l 1,12,-1
 562 612 l 1,13,-1
 594 612 l 1,14,-1
 625 612 l 1,15,-1
 625 644 l 1,16,-1
 625 675 l 1,17,-1
 688 675 l 1,18,-1
 750 675 l 1,19,-1
 750 612 l 1,20,-1
 750 550 l 1,21,-1
 719 550 l 1,22,-1
 688 550 l 1,23,-1
 688 488 l 1,24,-1
 688 425 l 1,25,-1
 656 425 l 1,26,-1
 625 425 l 1,27,-1
 625 394 l 1,28,-1
 625 362 l 1,29,-1
 750 362 l 1,30,-1
 875 362 l 1,31,-1
 875 300 l 1,32,-1
 875 238 l 1,33,-1
 750 238 l 1,34,-1
 625 238 l 1,35,-1
 625 206 l 1,36,-1
 625 175 l 1,37,-1
 656 175 l 1,38,-1
 688 175 l 1,39,-1
 688 112 l 1,40,-1
 688 50 l 1,41,-1
 719 50 l 1,42,-1
 750 50 l 1,43,-1
 750 -12 l 1,44,-1
 750 -75 l 1,45,-1
 688 -75 l 1,46,-1
 625 -75 l 1,47,-1
 625 -44 l 1,48,-1
 625 -12 l 1,49,-1
 594 -12 l 1,50,-1
 562 -12 l 1,51,-1
 562 50 l 1,52,-1
 562 112 l 1,53,-1
 500 112 l 1,54,-1
 438 112 l 1,55,-1
 438 50 l 1,56,-1
 438 -12 l 1,57,-1
 406 -12 l 1,58,-1
 375 -12 l 1,59,-1
 375 -44 l 1,60,-1
 375 -75 l 1,61,-1
 312 -75 l 1,62,-1
 250 -75 l 1,63,-1
 250 -12 l 1,64,-1
 250 50 l 1,65,-1
 281 50 l 1,66,-1
 312 50 l 1,67,-1
 312 112 l 1,68,-1
 312 175 l 1,69,-1
 344 175 l 1,70,-1
 375 175 l 1,71,-1
 375 206 l 1,72,-1
 375 238 l 1,73,-1
 250 238 l 1,74,-1
 125 238 l 1,75,-1
 125 300 l 1,76,-1
 125 362 l 1,77,-1
 250 362 l 1,78,-1
 375 362 l 1,79,-1
 375 394 l 1,80,-1
 375 425 l 1,81,-1
 344 425 l 1,82,-1
 312 425 l 1,83,-1
 312 488 l 1,84,-1
 312 550 l 1,85,-1
 281 550 l 1,86,-1
 250 550 l 1,87,-1
 250 612 l 1,0,-1
EndSplineSet
MultipleSubs2: "Multiple Substitution lookup 2 subtable" leteTok cartoucheMiddleTok
Ligature2: "'liga' Standard Ligatures in Latin lookup 0 subtable" l e t e
EndChar

StartChar: liTok
Encoding: 989479 989479 128
Width: 1000
GlyphClass: 1
Flags: W
LayerCount: 2
Fore
SplineSet
250 675 m 1,0,-1
 250 738 l 1,1,-1
 344 738 l 1,2,-1
 438 738 l 1,3,-1
 438 706 l 1,4,-1
 438 675 l 1,5,-1
 469 675 l 1,6,-1
 500 675 l 1,7,-1
 500 644 l 1,8,-1
 500 612 l 1,9,-1
 531 612 l 1,10,-1
 562 612 l 1,11,-1
 562 581 l 1,12,-1
 562 550 l 1,13,-1
 594 550 l 1,14,-1
 625 550 l 1,15,-1
 625 519 l 1,16,-1
 625 488 l 1,17,-1
 656 488 l 1,18,-1
 688 488 l 1,19,-1
 688 456 l 1,20,-1
 688 425 l 1,21,-1
 719 425 l 1,22,-1
 750 425 l 1,23,-1
 750 394 l 1,24,-1
 750 362 l 1,25,-1
 781 362 l 1,26,-1
 812 362 l 1,27,-1
 812 300 l 1,28,-1
 812 238 l 1,29,-1
 781 238 l 1,30,-1
 750 238 l 1,31,-1
 750 206 l 1,32,-1
 750 175 l 1,33,-1
 719 175 l 1,34,-1
 688 175 l 1,35,-1
 688 144 l 1,36,-1
 688 112 l 1,37,-1
 656 112 l 1,38,-1
 625 112 l 1,39,-1
 625 81 l 1,40,-1
 625 50 l 1,41,-1
 594 50 l 1,42,-1
 562 50 l 1,43,-1
 562 19 l 1,44,-1
 562 -12 l 1,45,-1
 531 -12 l 1,46,-1
 500 -12 l 1,47,-1
 500 -44 l 1,48,-1
 500 -75 l 1,49,-1
 469 -75 l 1,50,-1
 438 -75 l 1,51,-1
 438 -106 l 1,52,-1
 438 -138 l 1,53,-1
 344 -138 l 1,54,-1
 250 -138 l 1,55,-1
 250 -75 l 1,56,-1
 250 -12 l 1,57,-1
 312 -12 l 1,58,-1
 375 -12 l 1,59,-1
 375 19 l 1,60,-1
 375 50 l 1,61,-1
 406 50 l 1,62,-1
 438 50 l 1,63,-1
 438 81 l 1,64,-1
 438 112 l 1,65,-1
 469 112 l 1,66,-1
 500 112 l 1,67,-1
 500 144 l 1,68,-1
 500 175 l 1,69,-1
 531 175 l 1,70,-1
 562 175 l 1,71,-1
 562 206 l 1,72,-1
 562 238 l 1,73,-1
 594 238 l 1,74,-1
 625 238 l 1,75,-1
 625 300 l 1,76,-1
 625 362 l 1,77,-1
 594 362 l 1,78,-1
 562 362 l 1,79,-1
 562 394 l 1,80,-1
 562 425 l 1,81,-1
 531 425 l 1,82,-1
 500 425 l 1,83,-1
 500 456 l 1,84,-1
 500 488 l 1,85,-1
 469 488 l 1,86,-1
 438 488 l 1,87,-1
 438 519 l 1,88,-1
 438 550 l 1,89,-1
 406 550 l 1,90,-1
 375 550 l 1,91,-1
 375 581 l 1,92,-1
 375 612 l 1,93,-1
 312 612 l 1,94,-1
 250 612 l 1,95,-1
 250 675 l 1,0,-1
EndSplineSet
MultipleSubs2: "Multiple Substitution lookup 2 subtable" liTok cartoucheMiddleTok
Ligature2: "'liga' Standard Ligatures in Latin lookup 0 subtable" l i
EndChar

StartChar: liliTok
Encoding: 989480 989480 129
Width: 1000
GlyphClass: 1
Flags: W
LayerCount: 2
Fore
SplineSet
188 425 m 1,0,-1
 188 488 l 1,1,-1
 250 488 l 1,2,-1
 312 488 l 1,3,-1
 312 456 l 1,4,-1
 312 425 l 1,5,-1
 344 425 l 1,6,-1
 375 425 l 1,7,-1
 375 394 l 1,8,-1
 375 362 l 1,9,-1
 406 362 l 1,10,-1
 438 362 l 1,11,-1
 438 331 l 1,12,-1
 438 300 l 1,13,-1
 500 300 l 1,14,-1
 562 300 l 1,15,-1
 562 331 l 1,16,-1
 562 362 l 1,17,-1
 594 362 l 1,18,-1
 625 362 l 1,19,-1
 625 394 l 1,20,-1
 625 425 l 1,21,-1
 656 425 l 1,22,-1
 688 425 l 1,23,-1
 688 456 l 1,24,-1
 688 488 l 1,25,-1
 750 488 l 1,26,-1
 812 488 l 1,27,-1
 812 425 l 1,28,-1
 812 362 l 1,29,-1
 781 362 l 1,30,-1
 750 362 l 1,31,-1
 750 331 l 1,32,-1
 750 300 l 1,33,-1
 719 300 l 1,34,-1
 688 300 l 1,35,-1
 688 269 l 1,36,-1
 688 238 l 1,37,-1
 656 238 l 1,38,-1
 625 238 l 1,39,-1
 625 206 l 1,40,-1
 625 175 l 1,41,-1
 594 175 l 1,42,-1
 562 175 l 1,43,-1
 562 144 l 1,44,-1
 562 112 l 1,45,-1
 500 112 l 1,46,-1
 438 112 l 1,47,-1
 438 144 l 1,48,-1
 438 175 l 1,49,-1
 406 175 l 1,50,-1
 375 175 l 1,51,-1
 375 206 l 1,52,-1
 375 238 l 1,53,-1
 344 238 l 1,54,-1
 312 238 l 1,55,-1
 312 269 l 1,56,-1
 312 300 l 1,57,-1
 281 300 l 1,58,-1
 250 300 l 1,59,-1
 250 331 l 1,60,-1
 250 362 l 1,61,-1
 219 362 l 1,62,-1
 188 362 l 1,63,-1
 188 425 l 1,0,-1
EndSplineSet
MultipleSubs2: "Multiple Substitution lookup 2 subtable" liliTok cartoucheMiddleTok
Ligature2: "'liga' Standard Ligatures in Latin lookup 0 subtable" l i l i
EndChar

StartChar: linjaTok
Encoding: 989481 989481 130
Width: 1000
GlyphClass: 1
Flags: W
LayerCount: 2
Fore
SplineSet
562 456 m 1,0,-1
 562 488 l 1,1,-1
 688 488 l 1,2,-1
 812 488 l 1,3,-1
 812 456 l 1,4,-1
 812 425 l 1,5,-1
 844 425 l 1,6,-1
 875 425 l 1,7,-1
 875 394 l 1,8,-1
 875 362 l 1,9,-1
 906 362 l 1,10,-1
 938 362 l 1,11,-1
 938 269 l 1,12,-1
 938 175 l 1,13,-1
 875 175 l 1,14,-1
 812 175 l 1,15,-1
 812 238 l 1,16,-1
 812 300 l 1,17,-1
 781 300 l 1,18,-1
 750 300 l 1,19,-1
 750 331 l 1,20,-1
 750 362 l 1,21,-1
 688 362 l 1,22,-1
 625 362 l 1,23,-1
 625 331 l 1,24,-1
 625 300 l 1,25,-1
 594 300 l 1,26,-1
 562 300 l 1,27,-1
 562 269 l 1,28,-1
 562 238 l 1,29,-1
 531 238 l 1,30,-1
 500 238 l 1,31,-1
 500 206 l 1,32,-1
 500 175 l 1,33,-1
 469 175 l 1,34,-1
 438 175 l 1,35,-1
 438 144 l 1,36,-1
 438 112 l 1,37,-1
 312 112 l 1,38,-1
 188 112 l 1,39,-1
 188 144 l 1,40,-1
 188 175 l 1,41,-1
 156 175 l 1,42,-1
 125 175 l 1,43,-1
 125 206 l 1,44,-1
 125 238 l 1,45,-1
 94 238 l 1,46,-1
 62 238 l 1,47,-1
 62 331 l 1,48,-1
 62 425 l 1,49,-1
 125 425 l 1,50,-1
 188 425 l 1,51,-1
 188 362 l 1,52,-1
 188 300 l 1,53,-1
 219 300 l 1,54,-1
 250 300 l 1,55,-1
 250 269 l 1,56,-1
 250 238 l 1,57,-1
 312 238 l 1,58,-1
 375 238 l 1,59,-1
 375 269 l 1,60,-1
 375 300 l 1,61,-1
 406 300 l 1,62,-1
 438 300 l 1,63,-1
 438 331 l 1,64,-1
 438 362 l 1,65,-1
 469 362 l 1,66,-1
 500 362 l 1,67,-1
 500 394 l 1,68,-1
 500 425 l 1,69,-1
 531 425 l 1,70,-1
 562 425 l 1,71,-1
 562 456 l 1,0,-1
EndSplineSet
MultipleSubs2: "Multiple Substitution lookup 2 subtable" linjaTok cartoucheMiddleTok
Ligature2: "'liga' Standard Ligatures in Latin lookup 0 subtable" l i n j a
EndChar

StartChar: lipuTok
Encoding: 989482 989482 131
Width: 1000
GlyphClass: 1
Flags: W
LayerCount: 2
Fore
SplineSet
750 300 m 1,0,-1
 750 612 l 1,1,-1
 500 612 l 1,2,-1
 250 612 l 1,3,-1
 250 300 l 1,4,-1
 250 -12 l 1,5,-1
 500 -12 l 1,6,-1
 750 -12 l 1,7,-1
 750 300 l 1,0,-1
125 300 m 1,8,-1
 125 738 l 1,9,-1
 500 738 l 1,10,-1
 875 738 l 1,11,-1
 875 300 l 1,12,-1
 875 -138 l 1,13,-1
 500 -138 l 1,14,-1
 125 -138 l 1,15,-1
 125 300 l 1,8,-1
EndSplineSet
MultipleSubs2: "Multiple Substitution lookup 2 subtable" lipuTok cartoucheMiddleTok
Ligature2: "'liga' Standard Ligatures in Latin lookup 0 subtable" l i p u
EndChar

StartChar: lojeTok
Encoding: 989483 989483 132
Width: 1000
GlyphClass: 1
Flags: W
LayerCount: 2
Fore
SplineSet
562 19 m 1,0,-1
 562 50 l 1,1,-1
 500 50 l 1,2,-1
 438 50 l 1,3,-1
 438 19 l 1,4,-1
 438 -12 l 1,5,-1
 500 -12 l 1,6,-1
 562 -12 l 1,7,-1
 562 19 l 1,0,-1
750 550 m 1,8,-1
 750 612 l 1,9,-1
 500 612 l 1,10,-1
 250 612 l 1,11,-1
 250 550 l 1,12,-1
 250 488 l 1,13,-1
 281 488 l 1,14,-1
 312 488 l 1,15,-1
 312 456 l 1,16,-1
 312 425 l 1,17,-1
 344 425 l 1,18,-1
 375 425 l 1,19,-1
 375 394 l 1,20,-1
 375 362 l 1,21,-1
 500 362 l 1,22,-1
 625 362 l 1,23,-1
 625 394 l 1,24,-1
 625 425 l 1,25,-1
 656 425 l 1,26,-1
 688 425 l 1,27,-1
 688 456 l 1,28,-1
 688 488 l 1,29,-1
 719 488 l 1,30,-1
 750 488 l 1,31,-1
 750 550 l 1,8,-1
125 581 m 1,32,-1
 125 738 l 1,33,-1
 500 738 l 1,34,-1
 875 738 l 1,35,-1
 875 581 l 1,36,-1
 875 425 l 1,37,-1
 844 425 l 1,38,-1
 812 425 l 1,39,-1
 812 394 l 1,40,-1
 812 362 l 1,41,-1
 781 362 l 1,42,-1
 750 362 l 1,43,-1
 750 331 l 1,44,-1
 750 300 l 1,45,-1
 719 300 l 1,46,-1
 688 300 l 1,47,-1
 688 269 l 1,48,-1
 688 238 l 1,49,-1
 625 238 l 1,50,-1
 562 238 l 1,51,-1
 562 206 l 1,52,-1
 562 175 l 1,53,-1
 594 175 l 1,54,-1
 625 175 l 1,55,-1
 625 144 l 1,56,-1
 625 112 l 1,57,-1
 656 112 l 1,58,-1
 688 112 l 1,59,-1
 688 81 l 1,60,-1
 688 50 l 1,61,-1
 719 50 l 1,62,-1
 750 50 l 1,63,-1
 750 19 l 1,64,-1
 750 -12 l 1,65,-1
 781 -12 l 1,66,-1
 812 -12 l 1,67,-1
 812 -44 l 1,68,-1
 812 -75 l 1,69,-1
 844 -75 l 1,70,-1
 875 -75 l 1,71,-1
 875 -106 l 1,72,-1
 875 -138 l 1,73,-1
 500 -138 l 1,74,-1
 125 -138 l 1,75,-1
 125 -106 l 1,76,-1
 125 -75 l 1,77,-1
 156 -75 l 1,78,-1
 188 -75 l 1,79,-1
 188 -44 l 1,80,-1
 188 -12 l 1,81,-1
 219 -12 l 1,82,-1
 250 -12 l 1,83,-1
 250 19 l 1,84,-1
 250 50 l 1,85,-1
 281 50 l 1,86,-1
 312 50 l 1,87,-1
 312 81 l 1,88,-1
 312 112 l 1,89,-1
 344 112 l 1,90,-1
 375 112 l 1,91,-1
 375 144 l 1,92,-1
 375 175 l 1,93,-1
 406 175 l 1,94,-1
 438 175 l 1,95,-1
 438 206 l 1,96,-1
 438 238 l 1,97,-1
 375 238 l 1,98,-1
 312 238 l 1,99,-1
 312 269 l 1,100,-1
 312 300 l 1,101,-1
 281 300 l 1,102,-1
 250 300 l 1,103,-1
 250 331 l 1,104,-1
 250 362 l 1,105,-1
 219 362 l 1,106,-1
 188 362 l 1,107,-1
 188 394 l 1,108,-1
 188 425 l 1,109,-1
 156 425 l 1,110,-1
 125 425 l 1,111,-1
 125 581 l 1,32,-1
EndSplineSet
MultipleSubs2: "Multiple Substitution lookup 2 subtable" lojeTok cartoucheMiddleTok
Ligature2: "'liga' Standard Ligatures in Latin lookup 0 subtable" l o j e
EndChar

StartChar: lonTok
Encoding: 989484 989484 133
Width: 1000
GlyphClass: 1
Flags: W
LayerCount: 2
Fore
SplineSet
125 175 m 1,0,-1
 125 238 l 1,1,-1
 500 238 l 1,2,-1
 875 238 l 1,3,-1
 875 175 l 1,4,-1
 875 112 l 1,5,-1
 500 112 l 1,6,-1
 125 112 l 1,7,-1
 125 175 l 1,0,-1
438 425 m 1,8,-1
 438 488 l 1,9,-1
 500 488 l 1,10,-1
 562 488 l 1,11,-1
 562 425 l 1,12,-1
 562 362 l 1,13,-1
 500 362 l 1,14,-1
 438 362 l 1,15,-1
 438 425 l 1,8,-1
EndSplineSet
MultipleSubs2: "Multiple Substitution lookup 2 subtable" lonTok cartoucheMiddleTok
Ligature2: "'liga' Standard Ligatures in Latin lookup 0 subtable" l o n
EndChar

StartChar: lukaTok
Encoding: 989485 989485 134
Width: 1000
GlyphClass: 1
Flags: W
LayerCount: 2
Fore
SplineSet
500 706 m 1,0,-1
 500 738 l 1,1,-1
 625 738 l 1,2,-1
 750 738 l 1,3,-1
 750 706 l 1,4,-1
 750 675 l 1,5,-1
 781 675 l 1,6,-1
 812 675 l 1,7,-1
 812 644 l 1,8,-1
 812 612 l 1,9,-1
 844 612 l 1,10,-1
 875 612 l 1,11,-1
 875 550 l 1,12,-1
 875 488 l 1,13,-1
 906 488 l 1,14,-1
 938 488 l 1,15,-1
 938 175 l 1,16,-1
 938 -138 l 1,17,-1
 875 -138 l 1,18,-1
 812 -138 l 1,19,-1
 812 144 l 1,20,-1
 812 425 l 1,21,-1
 781 425 l 1,22,-1
 750 425 l 1,23,-1
 750 488 l 1,24,-1
 750 550 l 1,25,-1
 719 550 l 1,26,-1
 688 550 l 1,27,-1
 688 581 l 1,28,-1
 688 612 l 1,29,-1
 625 612 l 1,30,-1
 562 612 l 1,31,-1
 562 581 l 1,32,-1
 562 550 l 1,33,-1
 531 550 l 1,34,-1
 500 550 l 1,35,-1
 500 488 l 1,36,-1
 500 425 l 1,37,-1
 469 425 l 1,38,-1
 438 425 l 1,39,-1
 438 144 l 1,40,-1
 438 -138 l 1,41,-1
 375 -138 l 1,42,-1
 312 -138 l 1,43,-1
 312 -106 l 1,44,-1
 312 -75 l 1,45,-1
 281 -75 l 1,46,-1
 250 -75 l 1,47,-1
 250 -44 l 1,48,-1
 250 -12 l 1,49,-1
 219 -12 l 1,50,-1
 188 -12 l 1,51,-1
 188 19 l 1,52,-1
 188 50 l 1,53,-1
 156 50 l 1,54,-1
 125 50 l 1,55,-1
 125 81 l 1,56,-1
 125 112 l 1,57,-1
 94 112 l 1,58,-1
 62 112 l 1,59,-1
 62 175 l 1,60,-1
 62 238 l 1,61,-1
 125 238 l 1,62,-1
 188 238 l 1,63,-1
 188 206 l 1,64,-1
 188 175 l 1,65,-1
 219 175 l 1,66,-1
 250 175 l 1,67,-1
 250 144 l 1,68,-1
 250 112 l 1,69,-1
 281 112 l 1,70,-1
 312 112 l 1,71,-1
 312 300 l 1,72,-1
 312 488 l 1,73,-1
 344 488 l 1,74,-1
 375 488 l 1,75,-1
 375 550 l 1,76,-1
 375 612 l 1,77,-1
 406 612 l 1,78,-1
 438 612 l 1,79,-1
 438 644 l 1,80,-1
 438 675 l 1,81,-1
 469 675 l 1,82,-1
 500 675 l 1,83,-1
 500 706 l 1,0,-1
EndSplineSet
MultipleSubs2: "Multiple Substitution lookup 2 subtable" lukaTok cartoucheMiddleTok
Ligature2: "'liga' Standard Ligatures in Latin lookup 0 subtable" l u k a
EndChar

StartChar: lukinTok
Encoding: 989486 989486 135
Width: 1000
GlyphClass: 1
Flags: W
LayerCount: 2
Fore
SplineSet
438 394 m 1,0,-1
 438 425 l 1,1,-1
 500 425 l 1,2,-1
 562 425 l 1,3,-1
 562 394 l 1,4,-1
 562 362 l 1,5,-1
 594 362 l 1,6,-1
 625 362 l 1,7,-1
 625 300 l 1,8,-1
 625 238 l 1,9,-1
 594 238 l 1,10,-1
 562 238 l 1,11,-1
 562 206 l 1,12,-1
 562 175 l 1,13,-1
 500 175 l 1,14,-1
 438 175 l 1,15,-1
 438 206 l 1,16,-1
 438 238 l 1,17,-1
 406 238 l 1,18,-1
 375 238 l 1,19,-1
 375 300 l 1,20,-1
 375 362 l 1,21,-1
 406 362 l 1,22,-1
 438 362 l 1,23,-1
 438 394 l 1,0,-1
625 456 m 1,24,-1
 625 488 l 1,25,-1
 500 488 l 1,26,-1
 375 488 l 1,27,-1
 375 456 l 1,28,-1
 375 425 l 1,29,-1
 312 425 l 1,30,-1
 250 425 l 1,31,-1
 250 394 l 1,32,-1
 250 362 l 1,33,-1
 219 362 l 1,34,-1
 188 362 l 1,35,-1
 188 300 l 1,36,-1
 188 238 l 1,37,-1
 219 238 l 1,38,-1
 250 238 l 1,39,-1
 250 206 l 1,40,-1
 250 175 l 1,41,-1
 312 175 l 1,42,-1
 375 175 l 1,43,-1
 375 144 l 1,44,-1
 375 112 l 1,45,-1
 500 112 l 1,46,-1
 625 112 l 1,47,-1
 625 144 l 1,48,-1
 625 175 l 1,49,-1
 688 175 l 1,50,-1
 750 175 l 1,51,-1
 750 206 l 1,52,-1
 750 238 l 1,53,-1
 781 238 l 1,54,-1
 812 238 l 1,55,-1
 812 300 l 1,56,-1
 812 362 l 1,57,-1
 781 362 l 1,58,-1
 750 362 l 1,59,-1
 750 394 l 1,60,-1
 750 425 l 1,61,-1
 688 425 l 1,62,-1
 625 425 l 1,63,-1
 625 456 l 1,24,-1
312 581 m 1,64,-1
 312 612 l 1,65,-1
 500 612 l 1,66,-1
 688 612 l 1,67,-1
 688 581 l 1,68,-1
 688 550 l 1,69,-1
 750 550 l 1,70,-1
 812 550 l 1,71,-1
 812 519 l 1,72,-1
 812 488 l 1,73,-1
 844 488 l 1,74,-1
 875 488 l 1,75,-1
 875 456 l 1,76,-1
 875 425 l 1,77,-1
 906 425 l 1,78,-1
 938 425 l 1,79,-1
 938 300 l 1,80,-1
 938 175 l 1,81,-1
 906 175 l 1,82,-1
 875 175 l 1,83,-1
 875 144 l 1,84,-1
 875 112 l 1,85,-1
 844 112 l 1,86,-1
 812 112 l 1,87,-1
 812 81 l 1,88,-1
 812 50 l 1,89,-1
 750 50 l 1,90,-1
 688 50 l 1,91,-1
 688 19 l 1,92,-1
 688 -12 l 1,93,-1
 500 -12 l 1,94,-1
 312 -12 l 1,95,-1
 312 19 l 1,96,-1
 312 50 l 1,97,-1
 250 50 l 1,98,-1
 188 50 l 1,99,-1
 188 81 l 1,100,-1
 188 112 l 1,101,-1
 156 112 l 1,102,-1
 125 112 l 1,103,-1
 125 144 l 1,104,-1
 125 175 l 1,105,-1
 94 175 l 1,106,-1
 62 175 l 1,107,-1
 62 300 l 1,108,-1
 62 425 l 1,109,-1
 94 425 l 1,110,-1
 125 425 l 1,111,-1
 125 456 l 1,112,-1
 125 488 l 1,113,-1
 156 488 l 1,114,-1
 188 488 l 1,115,-1
 188 519 l 1,116,-1
 188 550 l 1,117,-1
 250 550 l 1,118,-1
 312 550 l 1,119,-1
 312 581 l 1,64,-1
EndSplineSet
MultipleSubs2: "Multiple Substitution lookup 2 subtable" lukinTok cartoucheMiddleTok
Ligature2: "'liga' Standard Ligatures in Latin lookup 0 subtable" l u k i n
EndChar

StartChar: lupaTok
Encoding: 989487 989487 136
Width: 1000
GlyphClass: 1
Flags: W
LayerCount: 2
Fore
SplineSet
62 456 m 1,0,-1
 62 738 l 1,1,-1
 125 738 l 1,2,-1
 188 738 l 1,3,-1
 188 488 l 1,4,-1
 188 238 l 1,5,-1
 219 238 l 1,6,-1
 250 238 l 1,7,-1
 250 175 l 1,8,-1
 250 112 l 1,9,-1
 281 112 l 1,10,-1
 312 112 l 1,11,-1
 312 81 l 1,12,-1
 312 50 l 1,13,-1
 375 50 l 1,14,-1
 438 50 l 1,15,-1
 438 19 l 1,16,-1
 438 -12 l 1,17,-1
 500 -12 l 1,18,-1
 562 -12 l 1,19,-1
 562 19 l 1,20,-1
 562 50 l 1,21,-1
 625 50 l 1,22,-1
 688 50 l 1,23,-1
 688 81 l 1,24,-1
 688 112 l 1,25,-1
 719 112 l 1,26,-1
 750 112 l 1,27,-1
 750 175 l 1,28,-1
 750 238 l 1,29,-1
 781 238 l 1,30,-1
 812 238 l 1,31,-1
 812 488 l 1,32,-1
 812 738 l 1,33,-1
 875 738 l 1,34,-1
 938 738 l 1,35,-1
 938 456 l 1,36,-1
 938 175 l 1,37,-1
 906 175 l 1,38,-1
 875 175 l 1,39,-1
 875 112 l 1,40,-1
 875 50 l 1,41,-1
 844 50 l 1,42,-1
 812 50 l 1,43,-1
 812 19 l 1,44,-1
 812 -12 l 1,45,-1
 781 -12 l 1,46,-1
 750 -12 l 1,47,-1
 750 -44 l 1,48,-1
 750 -75 l 1,49,-1
 688 -75 l 1,50,-1
 625 -75 l 1,51,-1
 625 -106 l 1,52,-1
 625 -138 l 1,53,-1
 500 -138 l 1,54,-1
 375 -138 l 1,55,-1
 375 -106 l 1,56,-1
 375 -75 l 1,57,-1
 312 -75 l 1,58,-1
 250 -75 l 1,59,-1
 250 -44 l 1,60,-1
 250 -12 l 1,61,-1
 219 -12 l 1,62,-1
 188 -12 l 1,63,-1
 188 19 l 1,64,-1
 188 50 l 1,65,-1
 156 50 l 1,66,-1
 125 50 l 1,67,-1
 125 112 l 1,68,-1
 125 175 l 1,69,-1
 94 175 l 1,70,-1
 62 175 l 1,71,-1
 62 456 l 1,0,-1
EndSplineSet
MultipleSubs2: "Multiple Substitution lookup 2 subtable" lupaTok cartoucheMiddleTok
Ligature2: "'liga' Standard Ligatures in Latin lookup 0 subtable" l u p a
EndChar

StartChar: maTok
Encoding: 989488 989488 137
Width: 1000
GlyphClass: 1
Flags: W
LayerCount: 2
Fore
SplineSet
750 175 m 1,0,-1
 750 238 l 1,1,-1
 656 238 l 1,2,-1
 562 238 l 1,3,-1
 562 144 l 1,4,-1
 562 50 l 1,5,-1
 625 50 l 1,6,-1
 688 50 l 1,7,-1
 688 81 l 1,8,-1
 688 112 l 1,9,-1
 719 112 l 1,10,-1
 750 112 l 1,11,-1
 750 175 l 1,0,-1
438 144 m 1,12,-1
 438 238 l 1,13,-1
 344 238 l 1,14,-1
 250 238 l 1,15,-1
 250 175 l 1,16,-1
 250 112 l 1,17,-1
 281 112 l 1,18,-1
 312 112 l 1,19,-1
 312 81 l 1,20,-1
 312 50 l 1,21,-1
 375 50 l 1,22,-1
 438 50 l 1,23,-1
 438 144 l 1,12,-1
688 519 m 1,24,-1
 688 550 l 1,25,-1
 625 550 l 1,26,-1
 562 550 l 1,27,-1
 562 456 l 1,28,-1
 562 362 l 1,29,-1
 656 362 l 1,30,-1
 750 362 l 1,31,-1
 750 425 l 1,32,-1
 750 488 l 1,33,-1
 719 488 l 1,34,-1
 688 488 l 1,35,-1
 688 519 l 1,24,-1
438 456 m 1,36,-1
 438 550 l 1,37,-1
 375 550 l 1,38,-1
 312 550 l 1,39,-1
 312 519 l 1,40,-1
 312 488 l 1,41,-1
 281 488 l 1,42,-1
 250 488 l 1,43,-1
 250 425 l 1,44,-1
 250 362 l 1,45,-1
 344 362 l 1,46,-1
 438 362 l 1,47,-1
 438 456 l 1,36,-1
375 706 m 1,48,-1
 375 738 l 1,49,-1
 500 738 l 1,50,-1
 625 738 l 1,51,-1
 625 706 l 1,52,-1
 625 675 l 1,53,-1
 688 675 l 1,54,-1
 750 675 l 1,55,-1
 750 644 l 1,56,-1
 750 612 l 1,57,-1
 781 612 l 1,58,-1
 812 612 l 1,59,-1
 812 581 l 1,60,-1
 812 550 l 1,61,-1
 844 550 l 1,62,-1
 875 550 l 1,63,-1
 875 488 l 1,64,-1
 875 425 l 1,65,-1
 906 425 l 1,66,-1
 938 425 l 1,67,-1
 938 300 l 1,68,-1
 938 175 l 1,69,-1
 906 175 l 1,70,-1
 875 175 l 1,71,-1
 875 112 l 1,72,-1
 875 50 l 1,73,-1
 844 50 l 1,74,-1
 812 50 l 1,75,-1
 812 19 l 1,76,-1
 812 -12 l 1,77,-1
 781 -12 l 1,78,-1
 750 -12 l 1,79,-1
 750 -44 l 1,80,-1
 750 -75 l 1,81,-1
 688 -75 l 1,82,-1
 625 -75 l 1,83,-1
 625 -106 l 1,84,-1
 625 -138 l 1,85,-1
 500 -138 l 1,86,-1
 375 -138 l 1,87,-1
 375 -106 l 1,88,-1
 375 -75 l 1,89,-1
 312 -75 l 1,90,-1
 250 -75 l 1,91,-1
 250 -44 l 1,92,-1
 250 -12 l 1,93,-1
 219 -12 l 1,94,-1
 188 -12 l 1,95,-1
 188 19 l 1,96,-1
 188 50 l 1,97,-1
 156 50 l 1,98,-1
 125 50 l 1,99,-1
 125 112 l 1,100,-1
 125 175 l 1,101,-1
 94 175 l 1,102,-1
 62 175 l 1,103,-1
 62 300 l 1,104,-1
 62 425 l 1,105,-1
 94 425 l 1,106,-1
 125 425 l 1,107,-1
 125 488 l 1,108,-1
 125 550 l 1,109,-1
 156 550 l 1,110,-1
 188 550 l 1,111,-1
 188 581 l 1,112,-1
 188 612 l 1,113,-1
 219 612 l 1,114,-1
 250 612 l 1,115,-1
 250 644 l 1,116,-1
 250 675 l 1,117,-1
 312 675 l 1,118,-1
 375 675 l 1,119,-1
 375 706 l 1,48,-1
EndSplineSet
MultipleSubs2: "Multiple Substitution lookup 2 subtable" maTok cartoucheMiddleTok
Ligature2: "'liga' Standard Ligatures in Latin lookup 0 subtable" m a
EndChar

StartChar: mamaTok
Encoding: 989489 989489 138
Width: 1000
GlyphClass: 1
Flags: W
LayerCount: 2
Fore
SplineSet
625 81 m 1,0,-1
 625 112 l 1,1,-1
 500 112 l 1,2,-1
 375 112 l 1,3,-1
 375 81 l 1,4,-1
 375 50 l 1,5,-1
 406 50 l 1,6,-1
 438 50 l 1,7,-1
 438 19 l 1,8,-1
 438 -12 l 1,9,-1
 500 -12 l 1,10,-1
 562 -12 l 1,11,-1
 562 19 l 1,12,-1
 562 50 l 1,13,-1
 594 50 l 1,14,-1
 625 50 l 1,15,-1
 625 81 l 1,0,-1
688 581 m 1,16,-1
 688 612 l 1,17,-1
 500 612 l 1,18,-1
 312 612 l 1,19,-1
 312 581 l 1,20,-1
 312 550 l 1,21,-1
 281 550 l 1,22,-1
 250 550 l 1,23,-1
 250 519 l 1,24,-1
 250 488 l 1,25,-1
 219 488 l 1,26,-1
 188 488 l 1,27,-1
 188 425 l 1,28,-1
 188 362 l 1,29,-1
 219 362 l 1,30,-1
 250 362 l 1,31,-1
 250 331 l 1,32,-1
 250 300 l 1,33,-1
 281 300 l 1,34,-1
 312 300 l 1,35,-1
 312 269 l 1,36,-1
 312 238 l 1,37,-1
 500 238 l 1,38,-1
 688 238 l 1,39,-1
 688 269 l 1,40,-1
 688 300 l 1,41,-1
 719 300 l 1,42,-1
 750 300 l 1,43,-1
 750 331 l 1,44,-1
 750 362 l 1,45,-1
 781 362 l 1,46,-1
 812 362 l 1,47,-1
 812 425 l 1,48,-1
 812 488 l 1,49,-1
 781 488 l 1,50,-1
 750 488 l 1,51,-1
 750 519 l 1,52,-1
 750 550 l 1,53,-1
 719 550 l 1,54,-1
 688 550 l 1,55,-1
 688 581 l 1,16,-1
312 706 m 1,56,-1
 312 738 l 1,57,-1
 500 738 l 1,58,-1
 688 738 l 1,59,-1
 688 706 l 1,60,-1
 688 675 l 1,61,-1
 750 675 l 1,62,-1
 812 675 l 1,63,-1
 812 644 l 1,64,-1
 812 612 l 1,65,-1
 844 612 l 1,66,-1
 875 612 l 1,67,-1
 875 581 l 1,68,-1
 875 550 l 1,69,-1
 906 550 l 1,70,-1
 938 550 l 1,71,-1
 938 425 l 1,72,-1
 938 300 l 1,73,-1
 906 300 l 1,74,-1
 875 300 l 1,75,-1
 875 269 l 1,76,-1
 875 238 l 1,77,-1
 844 238 l 1,78,-1
 812 238 l 1,79,-1
 812 206 l 1,80,-1
 812 175 l 1,81,-1
 781 175 l 1,82,-1
 750 175 l 1,83,-1
 750 81 l 1,84,-1
 750 -12 l 1,85,-1
 719 -12 l 1,86,-1
 688 -12 l 1,87,-1
 688 -44 l 1,88,-1
 688 -75 l 1,89,-1
 656 -75 l 1,90,-1
 625 -75 l 1,91,-1
 625 -106 l 1,92,-1
 625 -138 l 1,93,-1
 500 -138 l 1,94,-1
 375 -138 l 1,95,-1
 375 -106 l 1,96,-1
 375 -75 l 1,97,-1
 344 -75 l 1,98,-1
 312 -75 l 1,99,-1
 312 -44 l 1,100,-1
 312 -12 l 1,101,-1
 281 -12 l 1,102,-1
 250 -12 l 1,103,-1
 250 81 l 1,104,-1
 250 175 l 1,105,-1
 219 175 l 1,106,-1
 188 175 l 1,107,-1
 188 206 l 1,108,-1
 188 238 l 1,109,-1
 156 238 l 1,110,-1
 125 238 l 1,111,-1
 125 269 l 1,112,-1
 125 300 l 1,113,-1
 94 300 l 1,114,-1
 62 300 l 1,115,-1
 62 425 l 1,116,-1
 62 550 l 1,117,-1
 94 550 l 1,118,-1
 125 550 l 1,119,-1
 125 581 l 1,120,-1
 125 612 l 1,121,-1
 156 612 l 1,122,-1
 188 612 l 1,123,-1
 188 644 l 1,124,-1
 188 675 l 1,125,-1
 250 675 l 1,126,-1
 312 675 l 1,127,-1
 312 706 l 1,56,-1
EndSplineSet
MultipleSubs2: "Multiple Substitution lookup 2 subtable" mamaTok cartoucheMiddleTok
Ligature2: "'liga' Standard Ligatures in Latin lookup 0 subtable" m a m a
EndChar

StartChar: maniTok
Encoding: 989490 989490 139
Width: 1000
GlyphClass: 1
Flags: W
LayerCount: 2
Fore
SplineSet
625 456 m 1,0,-1
 625 488 l 1,1,-1
 500 488 l 1,2,-1
 375 488 l 1,3,-1
 375 456 l 1,4,-1
 375 425 l 1,5,-1
 344 425 l 1,6,-1
 312 425 l 1,7,-1
 312 394 l 1,8,-1
 312 362 l 1,9,-1
 281 362 l 1,10,-1
 250 362 l 1,11,-1
 250 238 l 1,12,-1
 250 112 l 1,13,-1
 281 112 l 1,14,-1
 312 112 l 1,15,-1
 312 81 l 1,16,-1
 312 50 l 1,17,-1
 344 50 l 1,18,-1
 375 50 l 1,19,-1
 375 19 l 1,20,-1
 375 -12 l 1,21,-1
 500 -12 l 1,22,-1
 625 -12 l 1,23,-1
 625 19 l 1,24,-1
 625 50 l 1,25,-1
 656 50 l 1,26,-1
 688 50 l 1,27,-1
 688 81 l 1,28,-1
 688 112 l 1,29,-1
 719 112 l 1,30,-1
 750 112 l 1,31,-1
 750 238 l 1,32,-1
 750 362 l 1,33,-1
 719 362 l 1,34,-1
 688 362 l 1,35,-1
 688 394 l 1,36,-1
 688 425 l 1,37,-1
 656 425 l 1,38,-1
 625 425 l 1,39,-1
 625 456 l 1,0,-1
62 644 m 1,40,-1
 62 738 l 1,41,-1
 125 738 l 1,42,-1
 188 738 l 1,43,-1
 188 675 l 1,44,-1
 188 612 l 1,45,-1
 219 612 l 1,46,-1
 250 612 l 1,47,-1
 250 581 l 1,48,-1
 250 550 l 1,49,-1
 312 550 l 1,50,-1
 375 550 l 1,51,-1
 375 581 l 1,52,-1
 375 612 l 1,53,-1
 500 612 l 1,54,-1
 625 612 l 1,55,-1
 625 581 l 1,56,-1
 625 550 l 1,57,-1
 688 550 l 1,58,-1
 750 550 l 1,59,-1
 750 581 l 1,60,-1
 750 612 l 1,61,-1
 781 612 l 1,62,-1
 812 612 l 1,63,-1
 812 675 l 1,64,-1
 812 738 l 1,65,-1
 875 738 l 1,66,-1
 938 738 l 1,67,-1
 938 644 l 1,68,-1
 938 550 l 1,69,-1
 906 550 l 1,70,-1
 875 550 l 1,71,-1
 875 519 l 1,72,-1
 875 488 l 1,73,-1
 844 488 l 1,74,-1
 812 488 l 1,75,-1
 812 425 l 1,76,-1
 812 362 l 1,77,-1
 844 362 l 1,78,-1
 875 362 l 1,79,-1
 875 238 l 1,80,-1
 875 112 l 1,81,-1
 844 112 l 1,82,-1
 812 112 l 1,83,-1
 812 50 l 1,84,-1
 812 -12 l 1,85,-1
 781 -12 l 1,86,-1
 750 -12 l 1,87,-1
 750 -44 l 1,88,-1
 750 -75 l 1,89,-1
 688 -75 l 1,90,-1
 625 -75 l 1,91,-1
 625 -106 l 1,92,-1
 625 -138 l 1,93,-1
 500 -138 l 1,94,-1
 375 -138 l 1,95,-1
 375 -106 l 1,96,-1
 375 -75 l 1,97,-1
 312 -75 l 1,98,-1
 250 -75 l 1,99,-1
 250 -44 l 1,100,-1
 250 -12 l 1,101,-1
 219 -12 l 1,102,-1
 188 -12 l 1,103,-1
 188 50 l 1,104,-1
 188 112 l 1,105,-1
 156 112 l 1,106,-1
 125 112 l 1,107,-1
 125 238 l 1,108,-1
 125 362 l 1,109,-1
 156 362 l 1,110,-1
 188 362 l 1,111,-1
 188 425 l 1,112,-1
 188 488 l 1,113,-1
 156 488 l 1,114,-1
 125 488 l 1,115,-1
 125 519 l 1,116,-1
 125 550 l 1,117,-1
 94 550 l 1,118,-1
 62 550 l 1,119,-1
 62 644 l 1,40,-1
EndSplineSet
MultipleSubs2: "Multiple Substitution lookup 2 subtable" maniTok cartoucheMiddleTok
Ligature2: "'liga' Standard Ligatures in Latin lookup 0 subtable" m a n i
EndChar

StartChar: meliTok
Encoding: 989491 989491 140
Width: 1000
GlyphClass: 1
Flags: W
LayerCount: 2
Fore
SplineSet
562 269 m 1,0,-1
 562 300 l 1,1,-1
 500 300 l 1,2,-1
 438 300 l 1,3,-1
 438 269 l 1,4,-1
 438 238 l 1,5,-1
 406 238 l 1,6,-1
 375 238 l 1,7,-1
 375 175 l 1,8,-1
 375 112 l 1,9,-1
 406 112 l 1,10,-1
 438 112 l 1,11,-1
 438 81 l 1,12,-1
 438 50 l 1,13,-1
 500 50 l 1,14,-1
 562 50 l 1,15,-1
 562 81 l 1,16,-1
 562 112 l 1,17,-1
 594 112 l 1,18,-1
 625 112 l 1,19,-1
 625 175 l 1,20,-1
 625 238 l 1,21,-1
 594 238 l 1,22,-1
 562 238 l 1,23,-1
 562 269 l 1,0,-1
375 394 m 1,24,-1
 375 425 l 1,25,-1
 500 425 l 1,26,-1
 625 425 l 1,27,-1
 625 394 l 1,28,-1
 625 362 l 1,29,-1
 656 362 l 1,30,-1
 688 362 l 1,31,-1
 688 331 l 1,32,-1
 688 300 l 1,33,-1
 719 300 l 1,34,-1
 750 300 l 1,35,-1
 750 175 l 1,36,-1
 750 50 l 1,37,-1
 719 50 l 1,38,-1
 688 50 l 1,39,-1
 688 19 l 1,40,-1
 688 -12 l 1,41,-1
 656 -12 l 1,42,-1
 625 -12 l 1,43,-1
 625 -44 l 1,44,-1
 625 -75 l 1,45,-1
 500 -75 l 1,46,-1
 375 -75 l 1,47,-1
 375 -44 l 1,48,-1
 375 -12 l 1,49,-1
 344 -12 l 1,50,-1
 312 -12 l 1,51,-1
 312 19 l 1,52,-1
 312 50 l 1,53,-1
 281 50 l 1,54,-1
 250 50 l 1,55,-1
 250 175 l 1,56,-1
 250 300 l 1,57,-1
 281 300 l 1,58,-1
 312 300 l 1,59,-1
 312 331 l 1,60,-1
 312 362 l 1,61,-1
 344 362 l 1,62,-1
 375 362 l 1,63,-1
 375 394 l 1,24,-1
375 706 m 1,64,-1
 375 738 l 1,65,-1
 500 738 l 1,66,-1
 625 738 l 1,67,-1
 625 706 l 1,68,-1
 625 675 l 1,69,-1
 688 675 l 1,70,-1
 750 675 l 1,71,-1
 750 644 l 1,72,-1
 750 612 l 1,73,-1
 781 612 l 1,74,-1
 812 612 l 1,75,-1
 812 581 l 1,76,-1
 812 550 l 1,77,-1
 844 550 l 1,78,-1
 875 550 l 1,79,-1
 875 488 l 1,80,-1
 875 425 l 1,81,-1
 906 425 l 1,82,-1
 938 425 l 1,83,-1
 938 144 l 1,84,-1
 938 -138 l 1,85,-1
 875 -138 l 1,86,-1
 812 -138 l 1,87,-1
 812 112 l 1,88,-1
 812 362 l 1,89,-1
 781 362 l 1,90,-1
 750 362 l 1,91,-1
 750 425 l 1,92,-1
 750 488 l 1,93,-1
 719 488 l 1,94,-1
 688 488 l 1,95,-1
 688 519 l 1,96,-1
 688 550 l 1,97,-1
 625 550 l 1,98,-1
 562 550 l 1,99,-1
 562 581 l 1,100,-1
 562 612 l 1,101,-1
 500 612 l 1,102,-1
 438 612 l 1,103,-1
 438 581 l 1,104,-1
 438 550 l 1,105,-1
 375 550 l 1,106,-1
 312 550 l 1,107,-1
 312 519 l 1,108,-1
 312 488 l 1,109,-1
 281 488 l 1,110,-1
 250 488 l 1,111,-1
 250 425 l 1,112,-1
 250 362 l 1,113,-1
 219 362 l 1,114,-1
 188 362 l 1,115,-1
 188 112 l 1,116,-1
 188 -138 l 1,117,-1
 125 -138 l 1,118,-1
 62 -138 l 1,119,-1
 62 144 l 1,120,-1
 62 425 l 1,121,-1
 94 425 l 1,122,-1
 125 425 l 1,123,-1
 125 488 l 1,124,-1
 125 550 l 1,125,-1
 156 550 l 1,126,-1
 188 550 l 1,127,-1
 188 581 l 1,128,-1
 188 612 l 1,129,-1
 219 612 l 1,130,-1
 250 612 l 1,131,-1
 250 644 l 1,132,-1
 250 675 l 1,133,-1
 312 675 l 1,134,-1
 375 675 l 1,135,-1
 375 706 l 1,64,-1
EndSplineSet
MultipleSubs2: "Multiple Substitution lookup 2 subtable" meliTok cartoucheMiddleTok
Ligature2: "'liga' Standard Ligatures in Latin lookup 0 subtable" m e l i
EndChar

StartChar: miTok
Encoding: 989492 989492 141
Width: 1000
GlyphClass: 1
Flags: W
LayerCount: 2
Fore
SplineSet
625 581 m 1,0,-1
 625 612 l 1,1,-1
 500 612 l 1,2,-1
 375 612 l 1,3,-1
 375 581 l 1,4,-1
 375 550 l 1,5,-1
 344 550 l 1,6,-1
 312 550 l 1,7,-1
 312 425 l 1,8,-1
 312 300 l 1,9,-1
 344 300 l 1,10,-1
 375 300 l 1,11,-1
 375 269 l 1,12,-1
 375 238 l 1,13,-1
 500 238 l 1,14,-1
 625 238 l 1,15,-1
 625 269 l 1,16,-1
 625 300 l 1,17,-1
 656 300 l 1,18,-1
 688 300 l 1,19,-1
 688 425 l 1,20,-1
 688 550 l 1,21,-1
 656 550 l 1,22,-1
 625 550 l 1,23,-1
 625 581 l 1,0,-1
375 706 m 1,24,-1
 375 738 l 1,25,-1
 500 738 l 1,26,-1
 625 738 l 1,27,-1
 625 706 l 1,28,-1
 625 675 l 1,29,-1
 688 675 l 1,30,-1
 750 675 l 1,31,-1
 750 612 l 1,32,-1
 750 550 l 1,33,-1
 781 550 l 1,34,-1
 812 550 l 1,35,-1
 812 425 l 1,36,-1
 812 300 l 1,37,-1
 781 300 l 1,38,-1
 750 300 l 1,39,-1
 750 238 l 1,40,-1
 750 175 l 1,41,-1
 688 175 l 1,42,-1
 625 175 l 1,43,-1
 625 144 l 1,44,-1
 625 112 l 1,45,-1
 500 112 l 1,46,-1
 375 112 l 1,47,-1
 375 144 l 1,48,-1
 375 175 l 1,49,-1
 344 175 l 1,50,-1
 312 175 l 1,51,-1
 312 19 l 1,52,-1
 312 -138 l 1,53,-1
 250 -138 l 1,54,-1
 188 -138 l 1,55,-1
 188 206 l 1,56,-1
 188 550 l 1,57,-1
 219 550 l 1,58,-1
 250 550 l 1,59,-1
 250 612 l 1,60,-1
 250 675 l 1,61,-1
 312 675 l 1,62,-1
 375 675 l 1,63,-1
 375 706 l 1,24,-1
EndSplineSet
MultipleSubs2: "Multiple Substitution lookup 2 subtable" miTok cartoucheMiddleTok
Ligature2: "'liga' Standard Ligatures in Latin lookup 0 subtable" m i
EndChar

StartChar: mijeTok
Encoding: 989493 989493 142
Width: 1000
GlyphClass: 1
Flags: W
LayerCount: 2
Fore
SplineSet
625 581 m 1,0,-1
 625 612 l 1,1,-1
 500 612 l 1,2,-1
 375 612 l 1,3,-1
 375 581 l 1,4,-1
 375 550 l 1,5,-1
 344 550 l 1,6,-1
 312 550 l 1,7,-1
 312 519 l 1,8,-1
 312 488 l 1,9,-1
 281 488 l 1,10,-1
 250 488 l 1,11,-1
 250 362 l 1,12,-1
 250 238 l 1,13,-1
 281 238 l 1,14,-1
 312 238 l 1,15,-1
 312 206 l 1,16,-1
 312 175 l 1,17,-1
 344 175 l 1,18,-1
 375 175 l 1,19,-1
 375 144 l 1,20,-1
 375 112 l 1,21,-1
 500 112 l 1,22,-1
 625 112 l 1,23,-1
 625 144 l 1,24,-1
 625 175 l 1,25,-1
 656 175 l 1,26,-1
 688 175 l 1,27,-1
 688 206 l 1,28,-1
 688 238 l 1,29,-1
 719 238 l 1,30,-1
 750 238 l 1,31,-1
 750 362 l 1,32,-1
 750 488 l 1,33,-1
 719 488 l 1,34,-1
 688 488 l 1,35,-1
 688 519 l 1,36,-1
 688 550 l 1,37,-1
 656 550 l 1,38,-1
 625 550 l 1,39,-1
 625 581 l 1,0,-1
375 706 m 1,40,-1
 375 738 l 1,41,-1
 500 738 l 1,42,-1
 625 738 l 1,43,-1
 625 706 l 1,44,-1
 625 675 l 1,45,-1
 688 675 l 1,46,-1
 750 675 l 1,47,-1
 750 644 l 1,48,-1
 750 612 l 1,49,-1
 781 612 l 1,50,-1
 812 612 l 1,51,-1
 812 550 l 1,52,-1
 812 488 l 1,53,-1
 844 488 l 1,54,-1
 875 488 l 1,55,-1
 875 362 l 1,56,-1
 875 238 l 1,57,-1
 844 238 l 1,58,-1
 812 238 l 1,59,-1
 812 175 l 1,60,-1
 812 112 l 1,61,-1
 875 112 l 1,62,-1
 938 112 l 1,63,-1
 938 -12 l 1,64,-1
 938 -138 l 1,65,-1
 875 -138 l 1,66,-1
 812 -138 l 1,67,-1
 812 -75 l 1,68,-1
 812 -12 l 1,69,-1
 500 -12 l 1,70,-1
 188 -12 l 1,71,-1
 188 -75 l 1,72,-1
 188 -138 l 1,73,-1
 125 -138 l 1,74,-1
 62 -138 l 1,75,-1
 62 -12 l 1,76,-1
 62 112 l 1,77,-1
 125 112 l 1,78,-1
 188 112 l 1,79,-1
 188 175 l 1,80,-1
 188 238 l 1,81,-1
 156 238 l 1,82,-1
 125 238 l 1,83,-1
 125 362 l 1,84,-1
 125 488 l 1,85,-1
 156 488 l 1,86,-1
 188 488 l 1,87,-1
 188 550 l 1,88,-1
 188 612 l 1,89,-1
 219 612 l 1,90,-1
 250 612 l 1,91,-1
 250 644 l 1,92,-1
 250 675 l 1,93,-1
 312 675 l 1,94,-1
 375 675 l 1,95,-1
 375 706 l 1,40,-1
EndSplineSet
MultipleSubs2: "Multiple Substitution lookup 2 subtable" mijeTok cartoucheMiddleTok
Ligature2: "'liga' Standard Ligatures in Latin lookup 0 subtable" m i j e
EndChar

StartChar: mokuTok
Encoding: 989494 989494 143
Width: 1000
GlyphClass: 1
Flags: W
LayerCount: 2
Fore
SplineSet
812 550 m 1,0,-1
 812 612 l 1,1,-1
 625 612 l 1,2,-1
 438 612 l 1,3,-1
 438 550 l 1,4,-1
 438 488 l 1,5,-1
 469 488 l 1,6,-1
 500 488 l 1,7,-1
 500 456 l 1,8,-1
 500 425 l 1,9,-1
 625 425 l 1,10,-1
 750 425 l 1,11,-1
 750 456 l 1,12,-1
 750 488 l 1,13,-1
 781 488 l 1,14,-1
 812 488 l 1,15,-1
 812 550 l 1,0,-1
312 612 m 1,16,-1
 312 738 l 1,17,-1
 625 738 l 1,18,-1
 938 738 l 1,19,-1
 938 612 l 1,20,-1
 938 488 l 1,21,-1
 906 488 l 1,22,-1
 875 488 l 1,23,-1
 875 425 l 1,24,-1
 875 362 l 1,25,-1
 812 362 l 1,26,-1
 750 362 l 1,27,-1
 750 331 l 1,28,-1
 750 300 l 1,29,-1
 781 300 l 1,30,-1
 812 300 l 1,31,-1
 812 269 l 1,32,-1
 812 238 l 1,33,-1
 844 238 l 1,34,-1
 875 238 l 1,35,-1
 875 206 l 1,36,-1
 875 175 l 1,37,-1
 906 175 l 1,38,-1
 938 175 l 1,39,-1
 938 19 l 1,40,-1
 938 -138 l 1,41,-1
 875 -138 l 1,42,-1
 812 -138 l 1,43,-1
 812 -12 l 1,44,-1
 812 112 l 1,45,-1
 781 112 l 1,46,-1
 750 112 l 1,47,-1
 750 144 l 1,48,-1
 750 175 l 1,49,-1
 625 175 l 1,50,-1
 500 175 l 1,51,-1
 500 144 l 1,52,-1
 500 112 l 1,53,-1
 469 112 l 1,54,-1
 438 112 l 1,55,-1
 438 -12 l 1,56,-1
 438 -138 l 1,57,-1
 344 -138 l 1,58,-1
 250 -138 l 1,59,-1
 250 -106 l 1,60,-1
 250 -75 l 1,61,-1
 219 -75 l 1,62,-1
 188 -75 l 1,63,-1
 188 -44 l 1,64,-1
 188 -12 l 1,65,-1
 156 -12 l 1,66,-1
 125 -12 l 1,67,-1
 125 19 l 1,68,-1
 125 50 l 1,69,-1
 94 50 l 1,70,-1
 62 50 l 1,71,-1
 62 112 l 1,72,-1
 62 175 l 1,73,-1
 125 175 l 1,74,-1
 188 175 l 1,75,-1
 188 144 l 1,76,-1
 188 112 l 1,77,-1
 219 112 l 1,78,-1
 250 112 l 1,79,-1
 250 81 l 1,80,-1
 250 50 l 1,81,-1
 281 50 l 1,82,-1
 312 50 l 1,83,-1
 312 112 l 1,84,-1
 312 175 l 1,85,-1
 344 175 l 1,86,-1
 375 175 l 1,87,-1
 375 206 l 1,88,-1
 375 238 l 1,89,-1
 406 238 l 1,90,-1
 438 238 l 1,91,-1
 438 269 l 1,92,-1
 438 300 l 1,93,-1
 469 300 l 1,94,-1
 500 300 l 1,95,-1
 500 331 l 1,96,-1
 500 362 l 1,97,-1
 438 362 l 1,98,-1
 375 362 l 1,99,-1
 375 425 l 1,100,-1
 375 488 l 1,101,-1
 344 488 l 1,102,-1
 312 488 l 1,103,-1
 312 612 l 1,16,-1
EndSplineSet
MultipleSubs2: "Multiple Substitution lookup 2 subtable" mokuTok cartoucheMiddleTok
Ligature2: "'liga' Standard Ligatures in Latin lookup 0 subtable" m o k u
EndChar

StartChar: moliTok
Encoding: 989495 989495 144
Width: 1000
GlyphClass: 1
Flags: W
LayerCount: 2
Fore
SplineSet
375 50 m 1,0,-1
 375 112 l 1,1,-1
 500 112 l 1,2,-1
 625 112 l 1,3,-1
 625 50 l 1,4,-1
 625 -12 l 1,5,-1
 500 -12 l 1,6,-1
 375 -12 l 1,7,-1
 375 50 l 1,0,-1
562 488 m 1,8,-1
 562 550 l 1,9,-1
 625 550 l 1,10,-1
 688 550 l 1,11,-1
 688 519 l 1,12,-1
 688 488 l 1,13,-1
 719 488 l 1,14,-1
 750 488 l 1,15,-1
 750 519 l 1,16,-1
 750 550 l 1,17,-1
 812 550 l 1,18,-1
 875 550 l 1,19,-1
 875 488 l 1,20,-1
 875 425 l 1,21,-1
 844 425 l 1,22,-1
 812 425 l 1,23,-1
 812 394 l 1,24,-1
 812 362 l 1,25,-1
 844 362 l 1,26,-1
 875 362 l 1,27,-1
 875 300 l 1,28,-1
 875 238 l 1,29,-1
 812 238 l 1,30,-1
 750 238 l 1,31,-1
 750 269 l 1,32,-1
 750 300 l 1,33,-1
 719 300 l 1,34,-1
 688 300 l 1,35,-1
 688 269 l 1,36,-1
 688 238 l 1,37,-1
 625 238 l 1,38,-1
 562 238 l 1,39,-1
 562 300 l 1,40,-1
 562 362 l 1,41,-1
 594 362 l 1,42,-1
 625 362 l 1,43,-1
 625 394 l 1,44,-1
 625 425 l 1,45,-1
 594 425 l 1,46,-1
 562 425 l 1,47,-1
 562 488 l 1,8,-1
125 488 m 1,48,-1
 125 550 l 1,49,-1
 188 550 l 1,50,-1
 250 550 l 1,51,-1
 250 519 l 1,52,-1
 250 488 l 1,53,-1
 281 488 l 1,54,-1
 312 488 l 1,55,-1
 312 519 l 1,56,-1
 312 550 l 1,57,-1
 375 550 l 1,58,-1
 438 550 l 1,59,-1
 438 488 l 1,60,-1
 438 425 l 1,61,-1
 406 425 l 1,62,-1
 375 425 l 1,63,-1
 375 394 l 1,64,-1
 375 362 l 1,65,-1
 406 362 l 1,66,-1
 438 362 l 1,67,-1
 438 300 l 1,68,-1
 438 238 l 1,69,-1
 375 238 l 1,70,-1
 312 238 l 1,71,-1
 312 269 l 1,72,-1
 312 300 l 1,73,-1
 281 300 l 1,74,-1
 250 300 l 1,75,-1
 250 269 l 1,76,-1
 250 238 l 1,77,-1
 188 238 l 1,78,-1
 125 238 l 1,79,-1
 125 300 l 1,80,-1
 125 362 l 1,81,-1
 156 362 l 1,82,-1
 188 362 l 1,83,-1
 188 394 l 1,84,-1
 188 425 l 1,85,-1
 156 425 l 1,86,-1
 125 425 l 1,87,-1
 125 488 l 1,48,-1
EndSplineSet
MultipleSubs2: "Multiple Substitution lookup 2 subtable" moliTok cartoucheMiddleTok
Ligature2: "'liga' Standard Ligatures in Latin lookup 0 subtable" m o l i
EndChar

StartChar: monsiTok
Encoding: 989496 989496 145
Width: 1000
GlyphClass: 1
Flags: W
LayerCount: 2
Fore
SplineSet
188 300 m 1,0,-1
 188 362 l 1,1,-1
 250 362 l 1,2,-1
 312 362 l 1,3,-1
 312 300 l 1,4,-1
 312 238 l 1,5,-1
 250 238 l 1,6,-1
 188 238 l 1,7,-1
 188 300 l 1,0,-1
438 300 m 1,8,-1
 438 738 l 1,9,-1
 625 738 l 1,10,-1
 812 738 l 1,11,-1
 812 675 l 1,12,-1
 812 612 l 1,13,-1
 688 612 l 1,14,-1
 562 612 l 1,15,-1
 562 300 l 1,16,-1
 562 -12 l 1,17,-1
 688 -12 l 1,18,-1
 812 -12 l 1,19,-1
 812 -75 l 1,20,-1
 812 -138 l 1,21,-1
 625 -138 l 1,22,-1
 438 -138 l 1,23,-1
 438 300 l 1,8,-1
EndSplineSet
MultipleSubs2: "Multiple Substitution lookup 2 subtable" monsiTok cartoucheMiddleTok
Ligature2: "'liga' Standard Ligatures in Latin lookup 0 subtable" m o n s i
EndChar

StartChar: muTok
Encoding: 989497 989497 146
Width: 1000
GlyphClass: 1
Flags: W
LayerCount: 2
Fore
SplineSet
438 112 m 1,0,-1
 438 175 l 1,1,-1
 500 175 l 1,2,-1
 562 175 l 1,3,-1
 562 112 l 1,4,-1
 562 50 l 1,5,-1
 500 50 l 1,6,-1
 438 50 l 1,7,-1
 438 112 l 1,0,-1
625 456 m 1,8,-1
 625 488 l 1,9,-1
 500 488 l 1,10,-1
 375 488 l 1,11,-1
 375 456 l 1,12,-1
 375 425 l 1,13,-1
 344 425 l 1,14,-1
 312 425 l 1,15,-1
 312 394 l 1,16,-1
 312 362 l 1,17,-1
 281 362 l 1,18,-1
 250 362 l 1,19,-1
 250 238 l 1,20,-1
 250 112 l 1,21,-1
 281 112 l 1,22,-1
 312 112 l 1,23,-1
 312 81 l 1,24,-1
 312 50 l 1,25,-1
 344 50 l 1,26,-1
 375 50 l 1,27,-1
 375 19 l 1,28,-1
 375 -12 l 1,29,-1
 500 -12 l 1,30,-1
 625 -12 l 1,31,-1
 625 19 l 1,32,-1
 625 50 l 1,33,-1
 656 50 l 1,34,-1
 688 50 l 1,35,-1
 688 81 l 1,36,-1
 688 112 l 1,37,-1
 719 112 l 1,38,-1
 750 112 l 1,39,-1
 750 238 l 1,40,-1
 750 362 l 1,41,-1
 719 362 l 1,42,-1
 688 362 l 1,43,-1
 688 394 l 1,44,-1
 688 425 l 1,45,-1
 656 425 l 1,46,-1
 625 425 l 1,47,-1
 625 456 l 1,8,-1
812 581 m 1,48,-1
 812 612 l 1,49,-1
 781 612 l 1,50,-1
 750 612 l 1,51,-1
 750 581 l 1,52,-1
 750 550 l 1,53,-1
 781 550 l 1,54,-1
 812 550 l 1,55,-1
 812 581 l 1,48,-1
250 581 m 1,56,-1
 250 612 l 1,57,-1
 219 612 l 1,58,-1
 188 612 l 1,59,-1
 188 581 l 1,60,-1
 188 550 l 1,61,-1
 219 550 l 1,62,-1
 250 550 l 1,63,-1
 250 581 l 1,56,-1
125 706 m 1,64,-1
 125 738 l 1,65,-1
 219 738 l 1,66,-1
 312 738 l 1,67,-1
 312 706 l 1,68,-1
 312 675 l 1,69,-1
 344 675 l 1,70,-1
 375 675 l 1,71,-1
 375 644 l 1,72,-1
 375 612 l 1,73,-1
 500 612 l 1,74,-1
 625 612 l 1,75,-1
 625 644 l 1,76,-1
 625 675 l 1,77,-1
 656 675 l 1,78,-1
 688 675 l 1,79,-1
 688 706 l 1,80,-1
 688 738 l 1,81,-1
 781 738 l 1,82,-1
 875 738 l 1,83,-1
 875 706 l 1,84,-1
 875 675 l 1,85,-1
 906 675 l 1,86,-1
 938 675 l 1,87,-1
 938 581 l 1,88,-1
 938 488 l 1,89,-1
 906 488 l 1,90,-1
 875 488 l 1,91,-1
 875 456 l 1,92,-1
 875 425 l 1,93,-1
 844 425 l 1,94,-1
 812 425 l 1,95,-1
 812 394 l 1,96,-1
 812 362 l 1,97,-1
 844 362 l 1,98,-1
 875 362 l 1,99,-1
 875 238 l 1,100,-1
 875 112 l 1,101,-1
 844 112 l 1,102,-1
 812 112 l 1,103,-1
 812 50 l 1,104,-1
 812 -12 l 1,105,-1
 781 -12 l 1,106,-1
 750 -12 l 1,107,-1
 750 -44 l 1,108,-1
 750 -75 l 1,109,-1
 688 -75 l 1,110,-1
 625 -75 l 1,111,-1
 625 -106 l 1,112,-1
 625 -138 l 1,113,-1
 500 -138 l 1,114,-1
 375 -138 l 1,115,-1
 375 -106 l 1,116,-1
 375 -75 l 1,117,-1
 312 -75 l 1,118,-1
 250 -75 l 1,119,-1
 250 -44 l 1,120,-1
 250 -12 l 1,121,-1
 219 -12 l 1,122,-1
 188 -12 l 1,123,-1
 188 50 l 1,124,-1
 188 112 l 1,125,-1
 156 112 l 1,126,-1
 125 112 l 1,127,-1
 125 238 l 1,128,-1
 125 362 l 1,129,-1
 156 362 l 1,130,-1
 188 362 l 1,131,-1
 188 394 l 1,132,-1
 188 425 l 1,133,-1
 156 425 l 1,134,-1
 125 425 l 1,135,-1
 125 456 l 1,136,-1
 125 488 l 1,137,-1
 94 488 l 1,138,-1
 62 488 l 1,139,-1
 62 581 l 1,140,-1
 62 675 l 1,141,-1
 94 675 l 1,142,-1
 125 675 l 1,143,-1
 125 706 l 1,64,-1
EndSplineSet
MultipleSubs2: "Multiple Substitution lookup 2 subtable" muTok cartoucheMiddleTok
Ligature2: "'liga' Standard Ligatures in Latin lookup 0 subtable" m u
EndChar

StartChar: munTok
Encoding: 989498 989498 147
Width: 1000
GlyphClass: 1
Flags: W
LayerCount: 2
Fore
SplineSet
562 581 m 1,0,-1
 562 612 l 1,1,-1
 469 612 l 1,2,-1
 375 612 l 1,3,-1
 375 581 l 1,4,-1
 375 550 l 1,5,-1
 438 550 l 1,6,-1
 500 550 l 1,7,-1
 500 519 l 1,8,-1
 500 488 l 1,9,-1
 531 488 l 1,10,-1
 562 488 l 1,11,-1
 562 456 l 1,12,-1
 562 425 l 1,13,-1
 594 425 l 1,14,-1
 625 425 l 1,15,-1
 625 300 l 1,16,-1
 625 175 l 1,17,-1
 594 175 l 1,18,-1
 562 175 l 1,19,-1
 562 144 l 1,20,-1
 562 112 l 1,21,-1
 531 112 l 1,22,-1
 500 112 l 1,23,-1
 500 81 l 1,24,-1
 500 50 l 1,25,-1
 438 50 l 1,26,-1
 375 50 l 1,27,-1
 375 19 l 1,28,-1
 375 -12 l 1,29,-1
 469 -12 l 1,30,-1
 562 -12 l 1,31,-1
 562 19 l 1,32,-1
 562 50 l 1,33,-1
 625 50 l 1,34,-1
 688 50 l 1,35,-1
 688 81 l 1,36,-1
 688 112 l 1,37,-1
 719 112 l 1,38,-1
 750 112 l 1,39,-1
 750 175 l 1,40,-1
 750 238 l 1,41,-1
 781 238 l 1,42,-1
 812 238 l 1,43,-1
 812 300 l 1,44,-1
 812 362 l 1,45,-1
 781 362 l 1,46,-1
 750 362 l 1,47,-1
 750 425 l 1,48,-1
 750 488 l 1,49,-1
 719 488 l 1,50,-1
 688 488 l 1,51,-1
 688 519 l 1,52,-1
 688 550 l 1,53,-1
 625 550 l 1,54,-1
 562 550 l 1,55,-1
 562 581 l 1,0,-1
375 706 m 1,56,-1
 375 738 l 1,57,-1
 500 738 l 1,58,-1
 625 738 l 1,59,-1
 625 706 l 1,60,-1
 625 675 l 1,61,-1
 688 675 l 1,62,-1
 750 675 l 1,63,-1
 750 644 l 1,64,-1
 750 612 l 1,65,-1
 781 612 l 1,66,-1
 812 612 l 1,67,-1
 812 581 l 1,68,-1
 812 550 l 1,69,-1
 844 550 l 1,70,-1
 875 550 l 1,71,-1
 875 488 l 1,72,-1
 875 425 l 1,73,-1
 906 425 l 1,74,-1
 938 425 l 1,75,-1
 938 300 l 1,76,-1
 938 175 l 1,77,-1
 906 175 l 1,78,-1
 875 175 l 1,79,-1
 875 112 l 1,80,-1
 875 50 l 1,81,-1
 844 50 l 1,82,-1
 812 50 l 1,83,-1
 812 19 l 1,84,-1
 812 -12 l 1,85,-1
 781 -12 l 1,86,-1
 750 -12 l 1,87,-1
 750 -44 l 1,88,-1
 750 -75 l 1,89,-1
 688 -75 l 1,90,-1
 625 -75 l 1,91,-1
 625 -106 l 1,92,-1
 625 -138 l 1,93,-1
 500 -138 l 1,94,-1
 375 -138 l 1,95,-1
 375 -106 l 1,96,-1
 375 -75 l 1,97,-1
 312 -75 l 1,98,-1
 250 -75 l 1,99,-1
 250 -44 l 1,100,-1
 250 -12 l 1,101,-1
 219 -12 l 1,102,-1
 188 -12 l 1,103,-1
 188 19 l 1,104,-1
 188 50 l 1,105,-1
 156 50 l 1,106,-1
 125 50 l 1,107,-1
 125 81 l 1,108,-1
 125 112 l 1,109,-1
 94 112 l 1,110,-1
 62 112 l 1,111,-1
 62 175 l 1,112,-1
 62 238 l 1,113,-1
 125 238 l 1,114,-1
 188 238 l 1,115,-1
 188 206 l 1,116,-1
 188 175 l 1,117,-1
 312 175 l 1,118,-1
 438 175 l 1,119,-1
 438 206 l 1,120,-1
 438 238 l 1,121,-1
 469 238 l 1,122,-1
 500 238 l 1,123,-1
 500 300 l 1,124,-1
 500 362 l 1,125,-1
 469 362 l 1,126,-1
 438 362 l 1,127,-1
 438 394 l 1,128,-1
 438 425 l 1,129,-1
 312 425 l 1,130,-1
 188 425 l 1,131,-1
 188 394 l 1,132,-1
 188 362 l 1,133,-1
 125 362 l 1,134,-1
 62 362 l 1,135,-1
 62 425 l 1,136,-1
 62 488 l 1,137,-1
 94 488 l 1,138,-1
 125 488 l 1,139,-1
 125 519 l 1,140,-1
 125 550 l 1,141,-1
 156 550 l 1,142,-1
 188 550 l 1,143,-1
 188 581 l 1,144,-1
 188 612 l 1,145,-1
 219 612 l 1,146,-1
 250 612 l 1,147,-1
 250 644 l 1,148,-1
 250 675 l 1,149,-1
 312 675 l 1,150,-1
 375 675 l 1,151,-1
 375 706 l 1,56,-1
EndSplineSet
MultipleSubs2: "Multiple Substitution lookup 2 subtable" munTok cartoucheMiddleTok
Ligature2: "'liga' Standard Ligatures in Latin lookup 0 subtable" m u n
EndChar

